<svg id="Layer_1" data-name="Layer 1" xmlns="http://www.w3.org/2000/svg" viewBox="0 0 500 500"><defs><style>.cls-1{fill:#e3f7fe;}.cls-2{fill:#db5262;}.cls-3{fill:#d63f50;}.cls-4{fill:#ddf0f6;}.cls-5{fill:#db5162;}.cls-6{fill:#e2f2f8;}.cls-7{fill:#eefafd;}.cls-8{fill:#97879a;}.cls-9{fill:#e3495f;}.cls-10{fill:#a86c7c;}.cls-11{fill:#e0f0f5;}.cls-12{fill:#be6a7f;}.cls-13{fill:#53e7db;}.cls-14{fill:#74ebe1;}.cls-15{fill:#dcacb4;}.cls-16{fill:#e3d9d9;}.cls-17{fill:#e2fcfe;}.cls-18{fill:#e7e7e5;}.cls-19{fill:#bbd8e2;}.cls-20{fill:#9ec8d6;}.cls-21{fill:#ebfdfe;}.cls-22{fill:#98eceb;}.cls-23{fill:#e03648;}.cls-24{fill:#d63f51;}.cls-25{fill:#da5362;}.cls-26{fill:#e0f6fb;}.cls-27{fill:#d8f2f0;}.cls-28{fill:#d54a5a;}.cls-29{fill:#e2fdfa;}.cls-30{fill:#e6fcfe;}.cls-31{fill:#db7f8f;}.cls-32{fill:#dda7b3;}.cls-33{fill:#dc5364;}.cls-34{fill:#e55666;}.cls-35{fill:#ea7784;}.cls-36{fill:#d94957;}.cls-37{fill:#e76d7b;}.cls-38{fill:#e36270;}.cls-39{fill:#d73f4f;}.cls-40{fill:#d24254;}.cls-41{fill:#e03849;}.cls-42{fill:#858da6;}.cls-43{fill:#e34355;}.cls-44{fill:#d64152;}.cls-45{fill:#cc3b4c;}.cls-46{fill:#d63143;}.cls-47{fill:#d33e4c;}.cls-48{fill:#d23342;}.cls-49{fill:#e14d58;}.cls-50{fill:#e3f6f9;}.cls-51{fill:#daedfc;}.cls-52{fill:#e2f4f8;}.cls-53{fill:#f0ece7;}.cls-54{fill:#d3d9d6;}.cls-55{fill:#dcdee0;}.cls-56{fill:#e76b79;}.cls-57{fill:#5fb8d0;}.cls-58{fill:#cb3d4d;}.cls-59{fill:#cd4f5b;}.cls-60{fill:#c74e56;}.cls-61{fill:#f6f9fd;}.cls-62{fill:#f6fbfd;}.cls-63{fill:#c82e41;}.cls-64{fill:#cb4350;}.cls-65{fill:#c63042;}.cls-66{fill:#f5fafc;}.cls-67{fill:#cc4754;}.cls-68{fill:#ca5057;}.cls-69{fill:#d24a61;}.cls-70{fill:#cc404f;}.cls-71{fill:#e44455;}.cls-72{fill:#b0b1b1;}.cls-73{fill:#babbbb;}.cls-74{fill:#b7b9b9;}.cls-75{fill:#6e6e6d;}.cls-76{fill:#b8b9ba;}.cls-77{fill:#b9baba;}.cls-78{fill:#b8b9b9;}.cls-79{fill:#b9babb;}.cls-80{fill:#d9d9d9;}.cls-81{fill:#b9b9b9;}.cls-82{fill:#dcdddd;}.cls-83{fill:#b4b4b4;}.cls-84{fill:#b5b4b5;}.cls-85{fill:#b4b3b4;}.cls-86{fill:#797979;}.cls-87{fill:#b9bab9;}.cls-88{fill:#d9dada;}.cls-89{fill:#b1b2b2;}.cls-90{fill:#7a7b7a;}.cls-91{fill:#b6b5b5;}.cls-92{fill:#babcbc;}.cls-93{fill:#bbbcbc;}.cls-94{fill:#b9bbbb;}.cls-95{fill:#7c7c7b;}.cls-96{fill:#babbbc;}.cls-97{fill:#babcbb;}.cls-98{fill:#b4b4b5;}.cls-99{fill:#b3b4b3;}.cls-100{fill:#e7edee;}.cls-101{fill:#e3e8ea;}.cls-102{fill:#e9eded;}.cls-103{fill:#e4e9e9;}.cls-104{fill:#e3e6e7;}.cls-105{fill:#e43e4e;}.cls-106{fill:#e03c54;}.cls-107{fill:#e34354;}.cls-108{fill:#e23a4f;}.cls-109{fill:#df364a;}.cls-110{fill:#dad9da;}</style></defs><title>Artboard 1</title><path class="cls-1" d="M248.13,411.23l-1-.2c-.94-3.34-.32-6.76-.44-10.14-.07-2.08-.08-4.05-1.64-5.76-1.14-1.25-1.06-3-1.06-4.61,0-5.37,0-10.75,0-16.12,0-3.42-.43-4-3.76-4.27-6.06-.45-12.14-.58-18.16-1.55-1.68-.27-3.34-.68-5-.79-2.19-.14-3.12.71-3.3,2.9-.15,1.79,0,3.58-.13,5.37-.35,4.1-2.72,6.8-6.1,7a7.81,7.81,0,0,1-8.45-6.62,46.72,46.72,0,0,1-.08-8.85c.13-2.92-1-4.6-3.85-5.58a56.18,56.18,0,0,1-16.84-9.33c-9.64-7.8-14.75-18.09-14.8-30.37q-.3-76.15,0-152.33c0-4.43,0-9,1-13.36,2.57-11.3,9.33-19.53,19-25.55a77.81,77.81,0,0,1,27-10.19c3.07-.58,4.55-2,5.29-5.06,2.07-8.57,7.4-14.68,14.94-19.11A40,40,0,0,1,262,92.36c12.88,3.36,22.19,11,25.68,24.44a4.34,4.34,0,0,0,3.48,3.56c4.7,1.14,9.41,2.25,14,3.82,10.23,3.52,19.59,8.39,26.26,17.28a36.73,36.73,0,0,1,7.82,22.65q-.09,80.47,0,161a22.17,22.17,0,0,1-.14,3.26c-1.34,5.39-2.9,10.65-6.15,15.32a42.53,42.53,0,0,1-14.25,13.12,68.46,68.46,0,0,1-11.58,5.56c-2.33.78-3.35,2.4-3.24,4.91.11,2.68.09,5.37,0,8-.18,4.82-2.58,7.47-6.87,7.65-3.89.16-7.35-3.12-7.77-7.38-.15-1.52.08-3,0-4.56-.17-2.51-1.07-3.29-3.63-3.15-3.3.18-6.52,1-9.82,1.34-4.28.42-8.58.28-12.84.91-3.28.49-4,1-4.09,4.41-.19,5.81,0,11.63-.08,17.44,0,1.48.7,3.82-1.63,3.85s-1.63-2.36-1.65-3.79c-.13-9.66.09-19.33-.14-29a13.82,13.82,0,0,1-.63-1.66c-.09-1.38.73-1.92,1.94-2a12.82,12.82,0,0,0,2.62-.45c9.35-.6,18.73-1.11,28-2.94,10.85-2.16,21.38-5.14,30.22-12.32a27.62,27.62,0,0,0,10-16c.22-1.05.49-2.08.8-3.1a1.62,1.62,0,0,1,.53-.6c.47-.21,1-.28,1.25-.88a17.49,17.49,0,0,0,.12-3.23q0-75.06,0-150.11c0-2-.28-3.91-.39-5.85.17-1.18-.56-.07-.79-.28a1.09,1.09,0,0,1-.61-.44c-2.2-13.75-11-21.79-23.27-26.75-10.14-4.09-20.77-5.91-31.57-7.06-3.83-.42-7.68-.38-11.5-.76a11.16,11.16,0,0,0-2.64-.4c-14.14,0-28.24.47-42.2,2.91-9,1.58-17.77,4.05-25.83,8.6a42.37,42.37,0,0,0-11.1,9.6A10.07,10.07,0,0,0,179,150.8c-.53,1.23-1.2,2.39-1.78,3.6a10,10,0,0,0-.52,1.38,33.33,33.33,0,0,0-1.57,6,4.59,4.59,0,0,1-.34.79c-.15.27-.29.54-.42.82a13.92,13.92,0,0,0-.15,3.22v153.2a14.52,14.52,0,0,0,.27,4.26c.15.29.3.59.47.87a3.44,3.44,0,0,1,.28.93c1.91,10.4,8.14,17.48,17.26,22.3,10.62,5.63,22.17,8,34,9.33a143.72,143.72,0,0,0,18.2,1.18c3.68,0,4.23.6,4.24,4.2q0,22.56,0,45.12C248.88,409.08,249.16,410.32,248.13,411.23Z"/><path class="cls-2" d="M174.5,161.78a13.34,13.34,0,0,1,1.58-6.46c1.69-.13,2,1.13,2.29,2.33a15.36,15.36,0,0,1,.14,2.63,11.68,11.68,0,0,0-.34,5.75c.11,33.12.05,66.23.05,99.35,0,18.61.08,37.23,0,55.84-.05.6-.25,1.18-.31,1.77a1.27,1.27,0,0,1-.33.7c-1.21.95-1.21.93-.07,1.62a2.61,2.61,0,0,1,.86,1c.87,1.77,1.17,3.73,2,5.53,3.56,7.68,10,12.16,17.4,15.44,8.44,3.76,17.4,5.68,26.52,6.92,3,.38,5.92.76,8.9,1,3.18.81,6.43.14,9.63.45,1.66.43,3.35.1,5,.13a5.19,5.19,0,0,1,3.74,1.12c.92,1.37.67,2.93.67,4.43,0,15.75-.09,31.5,0,47.25.08,8.62,1.13,17.12,4.34,25.26,7.52,19.14,21.08,32,40.58,38.18,15.41,4.9,30.83,4.07,45.51-3,21-10,32.79-27,36.53-49.78.22-1.34.1-2.69.26-4,.08-1,0-2,0-3q0-128.42.05-256.83c0-24-5.57-46.26-17.65-66.92a127.37,127.37,0,0,0-46.59-46.18,123.79,123.79,0,0,0-51.53-16.47A125.62,125.62,0,0,0,187.43,42.5a130,130,0,0,0-21.37,15.3,6.2,6.2,0,0,1-1.53,1.07c-1,.35-2.11.28-3.06,1.23s-2.29.79-2.61-1A119,119,0,0,1,187,37.81a129.07,129.07,0,0,1,69.29-16.7c32.13,1.26,60.35,12.67,84.16,34.34,24.18,22,38.15,49.46,42.4,81.85.45,3.46.53,7,.79,10.44a2.67,2.67,0,0,1,.32,2,30,30,0,0,0-.14,4.83q0,127.62,0,255.24a43.13,43.13,0,0,1-.32,6.12,64.54,64.54,0,0,1-13.95,36.77A67.75,67.75,0,0,1,248.8,420.05c-.38-2.92-.45-5.88-.67-8.82,0-16.47,0-32.93.13-49.39,0-2.17-1.06-2.19-2.65-2.21-13.73-.2-27.32-1.48-40.56-5.36-7.18-2.11-14-5.06-19.85-9.79a30.36,30.36,0,0,1-10.64-16.94,7.68,7.68,0,0,1,0-1.86,4.23,4.23,0,0,0,.21-1.5q.06-78.57,0-157.14a10.79,10.79,0,0,0-.18-2.41C174.05,163.7,174.8,162.72,174.5,161.78Z"/><path class="cls-3" d="M163.73,58.58a135.15,135.15,0,0,1,30.63-20.94,125.09,125.09,0,0,1,42.37-12.43,109.29,109.29,0,0,1,18.42-1c14.18.83,28.07,3.1,41.47,8.2a131.89,131.89,0,0,1,25.24,12.81A129.54,129.54,0,0,1,374.2,113.3a123.48,123.48,0,0,1,5.68,27.4c.59,6.36.41,12.69.41,19q.07,127.86,0,255.72c-1.54-.24-1.24-1.46-1.33-2.48q0-127,0-253.95a13.83,13.83,0,0,0-.26-4.26,3.33,3.33,0,0,0-.52-.71,3.43,3.43,0,0,1-.64-.56,1.53,1.53,0,0,1-.29-1.13,1.84,1.84,0,0,1,.3-.65,2.36,2.36,0,0,0,.28-1.87,1.81,1.81,0,0,0-.3-.52,2.74,2.74,0,0,1-.36-.48l-.06-4.27c.51-1.09.1-2.24.23-3.35-.1.62.24,1.31-.32,1.85-1-6.62-1.76-13.28-3.36-19.81A125.81,125.81,0,0,0,132.34,113.1a113.18,113.18,0,0,0-6.16,31.5,4,4,0,0,1,.16,1.93,1.44,1.44,0,0,1-.5.54c-.09,2.7,0,5.39,0,8.07q0,80.46,0,160.92c0,1.58.34,3.23-.48,4.75a2.32,2.32,0,0,1-2.91.36c-.93-.77-1-1.87-1-2.94-.07-1.25,0-2.51,0-3.76,0-53.62-.13-107.24.06-160.86A129.14,129.14,0,0,1,138.12,89.9c5.64-10.05,12.22-19.36,20.58-27.35A27.57,27.57,0,0,1,163.73,58.58Z"/><path class="cls-4" d="M338.4,325.15q0-81,0-162c0-8-3-15-7.78-21.26-7-9-16.6-13.94-27.25-17.28-4.44-1.4-8.95-2.44-13.44-3.58a3.6,3.6,0,0,1-3-3c-2.11-10.74-8.59-18-18.33-22.35a39.59,39.59,0,0,0-34.3.11c-7.41,3.44-13.21,8.59-16.52,16.18a25.88,25.88,0,0,0-1.71,6.18,3.42,3.42,0,0,1-3.18,3.09,85.74,85.74,0,0,0-17.94,5c-10.74,4.4-20.24,10.3-26,21a35.46,35.46,0,0,0-4.15,16.58c-1.14,51.91-.14,103.83-.48,155.75q-.17,24.87,21.58,36.94a66.81,66.81,0,0,0,9.39,4.48c5.51,2,4.23,1.6,4.61,7.28.15,2.14-.11,4.29-.1,6.44,0,5,4,8.21,8.95,7.27,1.79-.34,3.81-3.26,3.92-5.85.08-2,0-3.94,0-5.91.05-2.65,1.76-4.25,4.35-3.64,5.39,1.27,10.91,1.66,16.38,2.23,2.4.24,4.9-.06,7.39.24,3.39.41,4.12,1,4.12,4.5q0,9,0,18c0,1.59.2,3.05,1.72,4a1.52,1.52,0,0,1,.89,1.26c-.1,4.71.61,9.46-.41,14.14-1.6-.56-2.05-1.85-2.13-3.37,0-.71,0-1.43,0-2.14.24-3.6.48-7.19-3.24-9.43-.65-1.54-.32-3.15-.29-4.72.09-6.13-.35-12.26.22-18.38-2.31-1.17-4.87-.69-7.29-.89-5.26-.45-10.51-.89-15.72-1.76-1.9-.32-2.94.07-2.68,2.27a24.71,24.71,0,0,1,0,3.22c-.09,5.58-4,9.55-9.4,9.62a9.56,9.56,0,0,1-9.95-9.45c-.09-2.87-.1-5.74,0-8.6.07-1.7-.51-2.5-2.15-3.11-7.35-2.75-14.22-6.37-20-11.77-7.5-7-12-15.45-12.86-25.77.44-1.68-.06-3.36-.06-5q.06-78.25,0-156.5a25.05,25.05,0,0,0,0-4.5c1-11.65,6.3-20.92,15.34-28.12,9.84-7.85,21.43-11.68,33.52-14.27,1.69-.36,2.48-.86,2.9-2.73,2.4-10.63,9.15-17.72,18.72-22.46,16.79-8.31,38-4.7,50.44,8.64a28.15,28.15,0,0,1,7.19,13.88,2.88,2.88,0,0,0,2.67,2.67c11.47,2.39,22.49,6,32.07,13,7.57,5.57,13.12,12.59,15.53,21.85-.59,1.42-.08,2.82.28,4.15a5.61,5.61,0,0,1-.27,4.13,15.4,15.4,0,0,0-.25,4.28q0,77.64-.06,155.27C339.68,322.42,340.6,324.34,338.4,325.15Z"/><path class="cls-3" d="M379.78,413.29c.05.75-.19,1.57.54,2.15a61.31,61.31,0,0,1-9.68,29.92,63.79,63.79,0,0,1-9.59,12.14c-10.09,9.59-21.87,15.81-35.83,17.62-13.07,1.7-25.71.14-37.48-5.83-19.21-9.74-30.95-25.41-35.19-46.52a71.93,71.93,0,0,1-1.21-14.08q0-25.92,0-51.83c.06-.14.13-.29.19-.44a2,2,0,0,1,1.6-.86c5.17,0,10.29-1.14,15.48-.78.64-.21.07,1.39,1.4.72,1.79-.91,4-.79,6-1a109.5,109.5,0,0,0,21.17-4c7.84-2.28,15.11-5.89,21.07-11.79a18.4,18.4,0,0,0,5.66-10.06c.39-2.26,1.5-4.42,1.12-6.81a1.41,1.41,0,0,1,.91-1.32,1.59,1.59,0,0,1,.81,0c1.29.93.26,2.27.65,3.22.27-.7-.56-1.83.58-2.5,1,.35.9,1.28,1.08,2.07a1.75,1.75,0,0,1-.25.79c-1,10.82-6.88,18.37-15.92,23.77-9.87,5.89-20.84,8.39-32.06,10a182.62,182.62,0,0,1-21.4,1.73c-1.48.59-3.18-.4-4.6.64-.54,1.5,0,3,0,4.5-.05,15.25,0,30.49,0,45.74,0,.34,0,.68-.05,1,.25,32.6,26.6,60,58.48,60.87,34.32.91,61.9-24.11,63.94-58a.5.5,0,0,1,.36-.37c.27-1-.44-2.18.55-3a1.37,1.37,0,0,1,.77-.13C380.06,411.34,379.09,412.63,379.78,413.29Z"/><path class="cls-5" d="M163.73,58.58c-5,5.61-10.6,10.72-15.1,16.85a136.08,136.08,0,0,0-14.45,24.32,125.33,125.33,0,0,0-9.41,29.77,130.91,130.91,0,0,0-2.4,23.1q-.06,84.09,0,168.2a1.64,1.64,0,0,1-2.43,0c-.84-1.5-.5-3.15-.5-4.73q0-81.72,0-163.43a23.84,23.84,0,0,0-.17-4.55,3.6,3.6,0,0,1,.35-2.55,127.46,127.46,0,0,1,15.07-54.26,129.29,129.29,0,0,1,23-31.15c.37-.37.81-.68,1.22-1,1,1.21,2.22,1.55,2.82-.05S163.09,58.83,163.73,58.58Z"/><path class="cls-4" d="M256.17,362.24v30.08c0,.54,0,1.07,0,1.61,0,.72,0,1.59,1.05,1.47.83-.1.67-.8.66-1.47-.07-6.18-.08-12.35-.11-18.53a16.63,16.63,0,0,1,0-1.87c.42-3.59,1.11-4,4.77-4.34,7.62-.63,15.28-.86,22.82-2.27,3.11-.59,4.58.53,4.74,3.65.08,1.5-.12,3-.1,4.54a6.87,6.87,0,0,0,9.47,6.51c2.4-1,3.29-3.18,3.39-5.62.11-2.68,0-5.37,0-8.05,0-4.95.08-5.23,4.62-6.87a34.13,34.13,0,0,0,4.88-2c4.58-2.5,9.23-4.8,13.18-8.42a39.68,39.68,0,0,0,12.29-21.39,3.77,3.77,0,0,1,.5-.92,1.29,1.29,0,0,1,.64.84c0-.85-.46-2,1.15-1.89a1.71,1.71,0,0,1,.35.7c.09,1.19-.15,2.39,0,3.59-1.72,9.55-7,16.9-14.32,22.9a52.66,52.66,0,0,1-16.53,9.27c-2.76.94-3.84,2.36-3.51,5.24a55.14,55.14,0,0,1,.05,6.43c-.05,5.75-3.7,9.8-9,10-5.75.2-9.87-3.54-10.38-9.3-.18-2,1.05-4.69-.63-5.72-1.31-.81-3.78.2-5.72.48-6.28.92-12.61,1.28-18.95,1.62a1.31,1.31,0,0,0-.34.84c0,7.12.16,14.25-.12,21.37a1.7,1.7,0,0,1,0,1.38c-.19.4-.29,1.06-.59,1.16-3.38,1.16-2.51,4-2.58,6.44,0,1.52,0,3-.06,4.55s-.57,2.61-2.23,2.83c-.95-.92-.78-2.13-.78-3.27q0-21.13,0-42.27C254.87,364.35,254.35,362.79,256.17,362.24Z"/><path class="cls-6" d="M161.6,160.71c.8.82.51,1.86.51,2.81q0,80.21,0,160.41c0,.95.29,2-.5,2.82a29.91,29.91,0,0,1-.51-6.94q0-76.21,0-152.44A22.58,22.58,0,0,1,161.6,160.71Z"/><path class="cls-7" d="M118.58,346.73a3.31,3.31,0,0,1-2.61-3.56q0-9.23,0-18.44c0-1.51.46-2.81,2.08-3.34,5-.85,5.54-.36,5.38,4-.2,5.34,0,10.69-.15,16-.09,2.52,1.77,3.58,2.83,5.25l.05.1A9.62,9.62,0,0,1,118.58,346.73Z"/><path class="cls-1" d="M126.1,346.65c-3.32-.31-3.89-2.53-3.76-5.32.28-5.77-.48-11.56.42-17.33.22-1.45-.17-2.92-2.31-2.63a17.6,17.6,0,0,1-2.41,0l.55-.54a1.75,1.75,0,0,1,.48-.38,1.44,1.44,0,0,1,.62,0,1.77,1.77,0,0,1,.5.36H125a1.86,1.86,0,0,1,.52-.36,1.49,1.49,0,0,1,.63,0,1.14,1.14,0,0,1,.42.45c1.68.9,2.6,2.21,2.2,4.2a116.46,116.46,0,0,0,0,18.3C128.79,345.25,128.22,346.6,126.1,346.65Z"/><path class="cls-8" d="M384.05,147.85V415.38l-.43.11c-.63-.79-.33-1.72-.33-2.59q0-130.51,0-261a6.65,6.65,0,0,1,.17-2.39l.18-1.73Z"/><path class="cls-9" d="M383.45,149.47c0,1.88.09,3.76.09,5.63q0,129.41,0,258.79c0,.54.07,1.07.1,1.6a1.49,1.49,0,0,1-.13.47c-.76-.84-.47-1.87-.47-2.83q0-130.41,0-260.82C383,151.36,382.73,150.33,383.45,149.47Z"/><path class="cls-10" d="M377.61,414.33a3,3,0,0,0-.43.08c-.06-.39-.13-.78-.19-1.17a10,10,0,0,1-.16-2.94q0-127.87,0-255.76a9,9,0,0,1,.16-2.93c.06-.93.12-1.85.19-2.78l.42,0a2.69,2.69,0,0,1,.06,3.21c0,.36,0,.73,0,1.09,1.15,1.41.73,3.1.73,4.67q0,73.22,0,146.44,0,51.19,0,102.38A52.94,52.94,0,0,1,377.61,414.33Z"/><path class="cls-11" d="M340,327.3c-1.12,1,.05,2.81-1.3,3.78-.6-.65.14-1.1.22-1.63-.79-2.51.34-4.93.33-7.42q-.11-79.08,0-158.16a6.68,6.68,0,0,1,.25-3.17c.73-1.23.45-2.45.16-3.77s-.55-2.57.35-3.74c.38,1.92.77,3.85,1.15,5.78.62,1.75-.63,3.39-.32,5.13q0,79.86,0,159.7C340.73,325,341.09,326.32,340,327.3Z"/><path class="cls-4" d="M340,163.38c.37-1.47.75-2.94,1.12-4.41.63.83.39,1.84.54,2.77a2.47,2.47,0,0,1,.36,2,20.44,20.44,0,0,0-.15,3.75V319.43a20.44,20.44,0,0,0,.15,3.75,2.55,2.55,0,0,1-.34,2c-.19,1.09.11,2.26-.57,3.27-.28-1.14-.28-1.14-1.11-.62v-3.76a5.63,5.63,0,0,0,.26-2.9q0-77.44,0-154.9A5.63,5.63,0,0,0,340,163.38Z"/><path class="cls-12" d="M119.09,320.83l0-116.27q0-29.4.06-58.8l.4-.23.15,2.33a8,8,0,0,1,.19,2.93q0,83.57,0,167.13a6,6,0,0,1-.24,2.9Z"/><path class="cls-13" d="M125.6,347.2c0,5,0,10.07,0,15.11a5.13,5.13,0,0,1-1.14,3.67,2.31,2.31,0,0,1-.83.48,1.53,1.53,0,0,1-1.69-.71c-1.09-5.79-.6-11.61-.36-17.43a1.82,1.82,0,0,1,.61-1.15A4.8,4.8,0,0,1,125.6,347.2Z"/><path class="cls-14" d="M122.37,347.21l0,18.81a1,1,0,0,1-.48.37,1.4,1.4,0,0,1-.61,0,1.55,1.55,0,0,1-.48-.37,7.08,7.08,0,0,1-1.66-5.18c.11-4.54,0-9.09,0-13.64A4.11,4.11,0,0,1,122.37,347.21Z"/><path class="cls-15" d="M254.76,359.57l4.67.07c-.89.6-1.9.36-2.85.39-1.15,0-1.62.55-1.42,1.67a3.06,3.06,0,0,1,.2,1.58v46a3.39,3.39,0,0,1-.23,1.83l-.37.42a2.26,2.26,0,0,1-.26-.42,4.49,4.49,0,0,1-.2-2.12q0-23.61,0-47.22C254.32,361.05,253.88,360.16,254.76,359.57Z"/><path class="cls-16" d="M121.85,366.18l.49-.16,1.58,0a4.73,4.73,0,0,1,.57,3.1q0,17.55,0,35.1a42.33,42.33,0,0,1-.48,5.84c-.13.62-.43,1-1.14,1a1.47,1.47,0,0,1-.82-2.08,5.56,5.56,0,0,1,.39-.77,23.7,23.7,0,0,0,.18-5.32c0-11.31,0-22.61,0-33.9a4.26,4.26,0,0,0-.35-.62,2.76,2.76,0,0,1-.49-.91A1.51,1.51,0,0,1,121.85,366.18Z"/><path class="cls-17" d="M255.13,411.12l0-49.42,1,.54c-.88.9-.52,2-.52,3.06q0,22.9,0,45.79l-.25.06Z"/><path class="cls-18" d="M122.35,409a3.51,3.51,0,0,0,.52,2.09c-.62.12-1.21.16-1.61-.48a1.41,1.41,0,0,1-.05-1c-.42-13.07-.11-26.13-.16-39.2,0-1.2-.53-2.77,1.29-3.33v1.07a4.1,4.1,0,0,1,.53,2.84q0,17.59,0,35.18A4.1,4.1,0,0,1,122.35,409Z"/><path class="cls-19" d="M121.32,410l-.06.58c-.81-.77-.39-1.8-.59-2.7a13.22,13.22,0,0,1-.74-4.72q0-16.38,0-32.77c0-1.33-.17-2.71.73-3.88l.09-.53.55.06c.5,1,.2,2.12.2,3.18q0,18.93,0,37.86A7,7,0,0,1,121.32,410Z"/><path class="cls-20" d="M124,410.09l-.09-44,.55-.07c0,.2,0,.39.07.59a3.47,3.47,0,0,1,.22,1.83V405a3.34,3.34,0,0,1-.23,1.82C124.33,407.9,124.85,409.11,124,410.09Z"/><path class="cls-21" d="M128.81,343.44c-.7-.62-.55-1.46-.55-2.24q0-6.92,0-13.82c0-.79-.15-1.62.55-2.24Z"/><path class="cls-11" d="M340,327.84c.26-.34.67-1,.74-1,.7.35.18,1.05.37,1.58a5.81,5.81,0,0,1-.55,3.15C339.54,330.48,340.2,329.1,340,327.84Z"/><path class="cls-22" d="M122.37,347.21l-3.21,0-.58-.46,7.57,0-.55.45Z"/><path class="cls-23" d="M377,143.06c.06-.69.11-1.39.17-2.09a3.64,3.64,0,0,1-.08,3.59Z"/><path class="cls-24" d="M262.28,127.84c15.18.36,30.1,2.23,44.21,8.21,9.05,3.83,16.64,9.4,20.47,18.95a27,27,0,0,1,1.87,8.33,1.52,1.52,0,0,1,.21.78c-.16.67-.26,1.38-1.12,1.55-1.2-1.21-.17-2.57-.51-3.52-.43,1,.41,2.6-.28,4a1.2,1.2,0,0,1-.77.24,1.08,1.08,0,0,1-.67-.41c-.61-2.22-.78-4.55-1.27-6.73A16.64,16.64,0,0,0,321.7,153c-3.51-4.7-7.48-8.92-12.94-11.4-6.26-2.84-12.49-5.68-19.41-6.7-4-.58-7.86-1.61-11.84-2.18a14.72,14.72,0,0,0-6.37.25c-6.54-.85-13.2-.39-19.67-1.94a1.78,1.78,0,0,1-.63-.78c-.44-1.85.27-2.67,2.18-2.57C256.1,127.79,259.2,127.42,262.28,127.84Z"/><path class="cls-25" d="M262.28,127.84c-2.76,0-5.53.19-8.27,0-2.14-.12-3,.64-2.67,2.72-1,1.15-2.4,1-3.7,1-3.52.12-7-.15-10.56.14s-7.06.51-10.57,1a143.85,143.85,0,0,0-20.64,4.21,55.86,55.86,0,0,0-18.13,8.95c-3.05,2.3-4.84,5.68-7.44,8.36-.74,0-1.52-.62-2.2.4-.21.32-1.4.87-1.52-.5l1.81-3.62c.64-.17.69-.75.87-1.24,3.3-5.23,8.16-8.66,13.51-11.46,9.63-5,20.1-7.32,30.76-8.72a233,233,0,0,1,36.11-1.62A26.51,26.51,0,0,1,262.28,127.84Z"/><path class="cls-26" d="M329.8,162.31a12.76,12.76,0,0,1,1.08,5.68q0,76.92,0,153.83c0,1.2.4,2.58-1.06,3.33a13,13,0,0,1-.81-5q0-76.44,0-152.88A13,13,0,0,1,329.8,162.31Z"/><path class="cls-4" d="M251.1,114.48a9.6,9.6,0,0,1-9.44-9.52c.08-4.83,4.79-9.56,9.6-9.63,5.08-.08,10.13,4.56,10.24,9.38C261.61,110.33,257.18,114.49,251.1,114.48Z"/><path class="cls-27" d="M339.47,160.7q0,81.18,0,162.37c0,2.17-.7,4.23-.58,6.38-.18-.36-.36-.72-.53-1.08v-3.22c1-1.08.52-2.4.52-3.6q0-78.76,0-157.52C339,162.92,338.55,161.69,339.47,160.7Z"/><path class="cls-28" d="M175,325.15l-.49.53a.66.66,0,0,1-.11-.45,5.21,5.21,0,0,1-.47-3.13q0-78.37,0-156.76a5.78,5.78,0,0,1,.43-3.15.52.52,0,0,1,.12-.41c.73.58.45,1.4.52,2.14a5.85,5.85,0,0,1,.25,2.9q0,77.72,0,155.43A5.84,5.84,0,0,1,175,325.15Z"/><path class="cls-29" d="M174,325.12c-1-.83-.62-2-.62-3q0-78.8,0-157.58c0-.7.07-1.4.12-2.11,0,0,.13-.11.2-.11a.75.75,0,0,1,.25.09,5.82,5.82,0,0,1,.22,2.65q0,78.7,0,157.4A8,8,0,0,1,174,325.12Z"/><path class="cls-30" d="M329.8,162.31V325.15l-.58-1.16a14.3,14.3,0,0,1-.74-5.54q0-75,0-150a11.48,11.48,0,0,1,.77-5C329.45,163.07,328.82,162.29,329.8,162.31Z"/><path class="cls-31" d="M174,325.12c0-12.44-.09-24.88-.09-37.32q0-62.7,0-125.4c.13-.08.26-.14.4-.21,0,1.25.09,2.5.09,3.75q0,79,0,158c0,.45-.06.9-.09,1.34A2.72,2.72,0,0,0,174,325.12Z"/><path class="cls-32" d="M329.24,163.44q0,80.26,0,160.55l-.41.14-.21-.65c-.91-4.05-.67-8.16-.67-12.26q0-69.51,0-139a30.73,30.73,0,0,1,.69-8.23l.22-.65A3.59,3.59,0,0,1,329.24,163.44Z"/><path class="cls-33" d="M176.58,154.15c.82.76,1.77-.17,1.94-.4,1.23-1.65.71.89,1.32.5.28,2.33.13,4.51-2.13,5.93,0-1.79.28-3.7-1.63-4.86Z"/><path class="cls-33" d="M179.26,149.29c.19.6.88,1.24.08,1.8-.48.35-.62-.38-1-.56Z"/><path class="cls-34" d="M236.82,131.12c2-1.06,4.17-.4,6.26-.49,2.75-.12,5.5,0,8.26,0h0c1,1.08,1,2.45,1,3.79,0,14.48,0,29,0,43.45a4.49,4.49,0,0,1-.49,2.59,2.32,2.32,0,0,1-.8.69,11.63,11.63,0,0,1-4.76.51h-38.1c-1.16,0-2.32,0-3.48,0-4.8.13-7,2.23-7.43,7-.06.71,0,1.43,0,2.14V295.42a11.49,11.49,0,0,0,.25,3.46,4.53,4.53,0,0,1,.21,1c.54,3.72,2.34,5.51,6,5.95a29.15,29.15,0,0,0,3.74.1c13.73-.15,27.46.32,41.19-.24a4.17,4.17,0,0,1,2.81.64,2.4,2.4,0,0,1,.49.9,10.86,10.86,0,0,1,.35,3.72q0,20.52,0,41.05c0,1.71,0,3.41-1,4.89h0c-2.64-.84-5.43.51-8.06-.53-3-.53-6-.16-9-.55-2.63-.2-5.24-.64-7.84-1.06a72.26,72.26,0,0,1-27.27-8.89,53.24,53.24,0,0,1-19.6-18.25,24.42,24.42,0,0,1-2.35-5.62V165.5c2.07-8.27,7.92-13.83,14.16-18.89,8.45-6.86,18.35-10.91,28.95-13.13a46.56,46.56,0,0,1,7.34-1.27C230.7,131.87,233.76,131.5,236.82,131.12Z"/><path class="cls-35" d="M227.67,132.73a74.3,74.3,0,0,0-19.28,5.16,59.87,59.87,0,0,0-23.13,15.47,41,41,0,0,0-6.83,10.12,19.29,19.29,0,0,1-1.25,2,14.48,14.48,0,0,1,.53-5.32l2.13-5.93c3.44-6.78,9.18-11.11,15.81-14.29,9.59-4.61,19.88-6.71,30.41-7.76C226.71,132,227.51,131.41,227.67,132.73Z"/><path class="cls-35" d="M177.18,322c1.6,1.09,1.7,3.05,2.61,4.55,7.07,11.6,17.64,18.65,30,23.39a79.21,79.21,0,0,0,16.24,4.3c-.41,1.41-1.34.72-2.14.53-12.82-1.5-25.21-4.33-35.86-12.13a25.86,25.86,0,0,1-10.37-16.38c-.54-.83-.33-1.8-.49-2.7Z"/><path class="cls-33" d="M175,325.15V163.92c.82.81.52,1.85.52,2.8q0,77.82,0,155.63C175.54,323.3,175.84,324.34,175,325.15Z"/><ellipse class="cls-33" cx="176.36" cy="243.46" rx="0.19" ry="108.52"/><ellipse class="cls-36" cx="248.92" cy="386.96" rx="0.18" ry="37.82"/><path class="cls-37" d="M223.91,354.73c.73-.08,1.56.18,2.14-.53,2.7.25,5.3,1.32,8.07,1.06.06,1-.46.85-1.07.54A36.56,36.56,0,0,1,223.91,354.73Z"/><path class="cls-38" d="M233.05,355.8l1.07-.54c3,.59,6.17.13,9.15,1.07C239.87,356,236.41,356.94,233.05,355.8Z"/><path class="cls-33" d="M176.36,163c-.76-2.08.65-3.76-.16-5.5C177.22,158.75,177.22,158.75,176.36,163Z"/><path class="cls-33" d="M177.19,323.52c.77.79.43,1.78.49,2.7-2,.12-1.56-1.34-1.58-2.47C176.05,321.81,177,324.52,177.19,323.52Z"/><path class="cls-39" d="M379.78,413.29c-.36-.71-.72-1.43-1.07-2.15-.75-.93-.53-2.05-.53-3.1q0-125.88,0-251.76c0-1.06-.22-2.17.53-3.11a1.18,1.18,0,0,1,1.06,1.31c0,.9,0,1.79,0,2.69Z"/><path class="cls-23" d="M377.61,414.33q0-128.7,0-257.39c0-1.25,0-2.5.05-3.76h.49a5.73,5.73,0,0,1,.25,2.9q0,126.09,0,252.17a5.72,5.72,0,0,1-.25,2.9c0,1.15,0,2.3,0,3.44a.27.27,0,0,1-.11.2C377.64,414.88,377.69,414.53,377.61,414.33Z"/><path class="cls-40" d="M378.17,411.14v-258h.54v258Z"/><path class="cls-41" d="M125.52,320.85l-.24,0-.24-.07V145.21c.86.4.37,1.11.58,1.6a7,7,0,0,1,.21,2.92q0,84.12,0,168.24C125.82,318.93,126.12,319.94,125.52,320.85Z"/><path class="cls-42" d="M125.52,320.85c0-4.39,0-8.78,0-13.16q0-80.44.05-160.88l.4-.18c0,2.33.08,4.65.08,7q0,83.64,0,167.27Z"/><path class="cls-39" d="M379.5,148.46a5.45,5.45,0,0,1,0-3.48A5.39,5.39,0,0,1,379.5,148.46Z"/><path class="cls-39" d="M378.17,148.87a2.46,2.46,0,0,1,0,3.23A4.35,4.35,0,0,1,378.17,148.87Z"/><path class="cls-23" d="M378.17,148.87c0,1.08,0,2.15,0,3.23h-.49l-.06-3.21Z"/><path class="cls-43" d="M251.35,356.86v-50c1.33-1.25,3-1,4.59-1q19.33,0,38.66,0a27.94,27.94,0,0,0,6.13-.58,5.12,5.12,0,0,0,4.33-4.51,22.31,22.31,0,0,0,.29-4q0-53.29,0-106.6a18.47,18.47,0,0,0-.09-2.68c-.54-3.93-2.42-5.67-6.38-5.82-2.24-.08-4.48,0-6.72,0-12.08,0-24.16,0-36.24,0-1.57,0-3.27.31-4.56-1q0-17.9,0-35.8,0-7.09,0-14.19c6.81.34,13.62.73,20.4,1.62h3.89c16.9,2.4,31.93,8.6,43.58,21.6A30.92,30.92,0,0,1,326,166.07h0c.92.94.79,2.15.79,3.3q0,74.08,0,148.19c0,1.15.13,2.35-.79,3.29l-.53,1.07c-.52,4.86-3.7,8.29-6.61,11.73-7.2,8.48-16.55,13.79-26.9,17.55-7,2.54-14.31,3.66-21.69,4.38a1.37,1.37,0,0,1-1.23-.33,134.94,134.94,0,0,1-15.94,1.11A6.26,6.26,0,0,0,251.35,356.86Z"/><path class="cls-44" d="M326.57,166.07c1.19-1.42.05-3.24.8-4.81.77,1.37-.34,3,.81,4.27a5.63,5.63,0,0,1,.26,2.9q0,75,0,150.06a5.62,5.62,0,0,1-.26,2.9c-1,.85-.12,2.21-.82,3.19-.67-1.19.3-2.68-.79-3.73a5.69,5.69,0,0,1-.25-2.89q0-74.5,0-149A5.72,5.72,0,0,1,326.57,166.07Z"/><path class="cls-45" d="M269.07,355.25A87.34,87.34,0,0,0,303.64,345a53.54,53.54,0,0,0,16-13.56,54.79,54.79,0,0,0,5.84-9.54c1.12,2.8-.45,5.31-1,7.86-1.68,7.75-7.71,11.9-13.86,15.8A60.28,60.28,0,0,1,295,352.15c-3,.89-6.26,1.23-9.39,1.84-5.73,1.13-11.59,1.62-17.42,2.37C268,355.54,269,355.77,269.07,355.25Z"/><path class="cls-46" d="M328.18,321.39V165.53c0-.55-.06-1.13.43-1.55,0,1,.11,2,.11,2.94V320.27c0,1.07-.08,2.14-.12,3.21C328,322.88,328.24,322.11,328.18,321.39Z"/><path class="cls-47" d="M326.57,166.07V320.85H326V166.07Z"/><path class="cls-48" d="M254.76,359.57c-.07,1.25-.2,2.49-.2,3.74q0,23.91-.06,47.81c-.76-.84-.47-1.87-.47-2.82q0-22.91,0-45.8C254,361.5,253.59,360.32,254.76,359.57Z"/><path class="cls-49" d="M119.67,320.82V150.54c0-.89,0-1.79.06-2.68.83,1,.45,2.24.45,3.37q0,84.79,0,169.59l-.26.06Z"/><path class="cls-50" d="M261.06,372.45q0,11.26-.1,22.54a2.13,2.13,0,0,1-.49-1.73V374.39C260.47,373.69,260.39,373,261.06,372.45Z"/><path class="cls-51" d="M340,163.38c.83.81.53,1.86.53,2.8q0,77.55,0,155.1c0,1,.3,2-.53,2.8Z"/><path class="cls-52" d="M341.55,163.43c0,.71.07,1.43.07,2.15v156c0,.63,0,1.25-.07,1.88-.75-.85-.45-1.88-.45-2.83q0-77.21,0-154.41C341.1,165.31,340.8,164.28,341.55,163.43Z"/><path class="cls-53" d="M121.32,410v-44l.53.11.49.89c-.87.9-.51,2-.52,3.07,0,12.27,0,24.53,0,36.8C121.79,408,122.14,409.1,121.32,410Z"/><path class="cls-54" d="M122.88,368.15c0-.09,0-.22.07-.25a1.09,1.09,0,0,1,.37-.14c0,.43.1.86.1,1.29q0,19.26,0,38.51c0,.47.52,1.28-.52,1.43a3,3,0,0,1-.26-1.82V370A2.93,2.93,0,0,1,122.88,368.15Z"/><path class="cls-55" d="M122.88,368.15V409h-.53V368.14Z"/><path class="cls-45" d="M326,166.07c-2.48-3.79-4.19-8-7.19-11.53-7.13-8.32-16.23-13.6-26.28-17.43a78.2,78.2,0,0,0-17.05-4.36c-1.18-.72-2.59.17-3.76-.54h0c3.07-1.47,6.2-.35,9.13.22,6,1.15,12.08,1.84,17.89,4,6.91,2.53,13.73,5.28,19,10.56,2.46,2.47,4.88,5.13,6.16,8.7A51.44,51.44,0,0,1,326,166.07Z"/><path class="cls-56" d="M227.67,132.73c-.41-.57-1-.5-1.61-.53a39.8,39.8,0,0,1,10.76-1.08.91.91,0,0,1,.25.07c.33.19.24.46-.06.45C233.85,131.56,230.78,132.36,227.67,132.73Z"/><path class="cls-57" d="M251.55,98.77a6.3,6.3,0,1,1-.07,12.59,6.3,6.3,0,1,1,.07-12.59Z"/><path class="cls-58" d="M251.35,180.58h47c5.69,0,7.83,2.12,7.83,7.71,0,36.33-.13,72.67.09,109,.05,8.17-3,9.45-9.79,9.53-15,.17-30.07.05-45.11,0l0-.5a1.66,1.66,0,0,1,.07-2.39c1.21-.83,2.59-.55,3.9-.56,14.72-.07,29.44.1,44.16-.1a3.59,3.59,0,0,0,1.14-.48,4.45,4.45,0,0,0,1.27-1.25c.43-.61.45-1.52,1.29-1.85,1.35,0,.47-1.11.84-1.6q0-52.44,0-104.85a20.23,20.23,0,0,1,.09-3.21,21.49,21.49,0,0,0-.1,3.21q0,51.21,0,102.41c0,1.23.29,2.52-.45,3.67-1.5-.05-1.35-1.26-1.35-2.15,0-2.51-.32-5-.32-7.5q0-49.33,0-98.68c0-1.68.29-3.4-.38-5-.59-1.44-1.83-1.44-3.09-1.41q-21.19,0-42.39,0a11.68,11.68,0,0,1-4-.3c-1.48-1-1.73-2.23-.68-3.69Z"/><path class="cls-59" d="M251.34,304.19c0,.72,0,1.44,0,2.17-1.91.17-3.82.48-5.73.49q-20.33.06-40.67,0c-3.95,0-6.9-1.8-7.91-4.69a2.34,2.34,0,0,1,0-2.28c.53-1,.26-2.11.26-3.17q0-52.21,0-104.44c0-1-.06-1.95,0-2.38,0,.25,0,1.05,0,1.85q0,52.5,0,105a4.74,4.74,0,0,1-.26,2.63c-.8-.82-.51-1.86-.51-2.81q0-53.69,0-107.38c0-6.18,2.46-8.6,8.64-8.6l46.17,0a5.11,5.11,0,0,0,.54,3.14c-1,1.22-2.47.84-3.76.84q-21.24,0-42.49,0c-1.91-.1-3.81-.18-4.95,1.82a1.23,1.23,0,0,1-.69.27c-.25-.05-.42-.41-.52-.41-.44,0-.14.32-.1.43a2,2,0,0,1-.08,1.47,4.2,4.2,0,0,0-.27.85,16.39,16.39,0,0,0-.1,2.42V296.08c0,.62,0,1.25.05,1.86a6.34,6.34,0,0,0,.21.86,5.14,5.14,0,0,1,.35,1.79,1.19,1.19,0,0,1-.23.75c.32-.1.38-.6.82-.52.75.17,1.22.82,1.88,1.15a10.37,10.37,0,0,0,4,.35q45.51,0,91,0c1.46,0,3.07-.49,4.32.81l-.63.57a8,8,0,0,1-2.92.18H203.69c15.73,0,31.46,0,47.19,0Z"/><path class="cls-60" d="M197,299.37V187.75a5.05,5.05,0,0,1,.53,3.28q0,52.77,0,105.53c0,1.12.4,2.35-.52,3.34C197,299.72,197,299.54,197,299.37Z"/><path class="cls-24" d="M271.76,132.21c1.25.18,2.62-.45,3.76.54C274.26,132.57,272.89,133.2,271.76,132.21Z"/><path class="cls-61" d="M303.37,299.74c-.51.66-.14,1.72-1,2.23a6.43,6.43,0,0,1-4.11.88H254.72q-24.16,0-48.33,0c-.53,0-1.07,0-1.61,0-1,0-2.66.22-2.7-1,0-1.45,1.54-1.34,2.71-1.23,13.38.16,26.77,0,40.16.08a10.5,10.5,0,0,0,2.62-.45q25.64-.21,51.25,0c1.37.18,2-.43,2-1.8a14.9,14.9,0,0,0-.06-2.41c-2-10.62-.57-21.34-.9-32-.25-7.85-.08-15.7,0-23.56q.07-18.62-.05-37.23c0-5.24.7-10.51-.3-15.72-.15-.23-.29-.48-.45-.71a2.77,2.77,0,0,1-.4-1.15,2.52,2.52,0,0,1,.07-.78l.16-.36a1.12,1.12,0,0,1,.62-.4c.9-.09,1.61.6,2.48.63,1.62,1.14,1.21,2.87,1.21,4.42q0,51.43,0,102.87c0,2.49-.29,5,.22,7.49Z"/><path class="cls-62" d="M204.57,301.51a1.78,1.78,0,0,0-2.18.34c1,1,2.18.72,3.29.72q17.73,0,35.46,0H294.2c2.74,0,5.49.2,8.16-.61l-1,1.19c-1,0-2,.12-2.95.12q-46.6,0-93.21,0c-1.51,0-3.3.6-4.4-1.15-.27-1.37-.29-2.62,1.42-3.08C203.46,299.4,205.18,299.31,204.57,301.51Z"/><path class="cls-63" d="M303.37,299.74l-.07-.12.08-.11c0-1.25.12-2.5.12-3.75V189.86c0-.81,0-1.61,0-2.42,0-.08,0-.2.07-.23.42-.23.33.18.43.36a5,5,0,0,1,.25,2.63q0,53.27,0,106.52a5,5,0,0,1-.25,2.63c-.09.36.18.83-.33,1C303.66,300.38,303.48,300,303.37,299.74Z"/><path class="cls-64" d="M304,299.35V187.57c.82.81.52,1.85.52,2.8q0,53.1,0,106.18C304.53,297.5,304.83,298.54,304,299.35Z"/><path class="cls-61" d="M204.58,184l44.36-.12c1,0,2-.06,2.94-.09l43.82.1c1.15,0,2.31.07,3.46.11.19.08.26.16.2.25s-.12.13-.18.13l0,0c-.94.91-2.15.77-3.3.77H207.73a6.09,6.09,0,0,1-2.64-.32A.88.88,0,0,1,204.58,184Z"/><path class="cls-65" d="M251.4,303.8l49.29-.07c-.84.77-1.87.45-2.81.45q-23.26,0-46.54,0h0c-.21-.12-.28-.22-.19-.3A.38.38,0,0,1,251.4,303.8Z"/><path class="cls-66" d="M299.18,184.33c0-.13,0-.25,0-.38a2.6,2.6,0,0,1,2.76.78C300.86,185.59,300.14,184.14,299.18,184.33Z"/><path class="cls-66" d="M201.89,299.36c-.8.76-.72,1.87-1.13,2.79l-1-1.3a6.77,6.77,0,0,1-.85-4.13q0-53,0-106a9.19,9.19,0,0,1,.82-4.14,2,2,0,0,1,.41-.22,2.48,2.48,0,0,1,2.39,1.75,11.13,11.13,0,0,1,.38,3.72q0,51.51,0,103C202.93,296.38,203.24,298.07,201.89,299.36Z"/><path class="cls-67" d="M199.76,186.54q0,40.11.05,80.23,0,17,0,34.08c-.16.19-.08.94-.48.47a5.53,5.53,0,0,1-.66-2q0-53.94,0-107.88c0-1.31-.35-2.7.52-3.91a3.16,3.16,0,0,1-.34-1.18c0-.35.39-.67.61-1Z"/><path class="cls-66" d="M201.89,187.57a3.43,3.43,0,0,1-1.72-1.25c.52-2.56,2.4-2.59,4.41-2.37v.38c.44.72,1.12.26,1.64.26q21.08,0,42.13,0h1.88c.45,0,1,0,1.07.55a1.16,1.16,0,0,1-.67,1.09,6.68,6.68,0,0,1-3.37.68c-13,0-25.93.18-38.9-.09-1.49,0-3-.15-4.41.69A2.07,2.07,0,0,1,201.89,187.57Z"/><path class="cls-68" d="M199.2,187.57q0,54.23,0,108.45c0,1.12.4,2.34-.52,3.34h0a5,5,0,0,1-.25-2.63q0-53.27,0-106.52a4.92,4.92,0,0,1,.25-2.63Z"/><path class="cls-69" d="M198.66,187.57V299.35c-.82-.81-.52-1.85-.52-2.79q0-53.1,0-106.19C198.14,189.42,197.84,188.38,198.66,187.57Z"/><path class="cls-70" d="M251.4,303.8a1.23,1.23,0,0,0-.06.39H202.56v-.39Z"/><path class="cls-62" d="M201.89,187.57c2.58-1.74,5.49-1.65,8.44-1.63q18.78.06,37.58,0c1,0,2.09.3,3.32-.87H202.94c.18-1,1-.6,1.64-.74l94.57,0c0,.17,0,.35,0,.52a5.69,5.69,0,0,1-2.89.25q-22.11,0-44.22,0,22.11,0,44.22,0a5.69,5.69,0,0,1,2.89.25v1.07a2.86,2.86,0,0,1-1.82.26H252.26c-.44,0-.89.14-1,0,14.82,0,29.94,0,45,0a5.48,5.48,0,0,0,2.89-.26c.39.16.86-.27,1.14.6a12.47,12.47,0,0,1,.48,3.86c0,32.93.05,65.85-.09,98.77,0,2.83,1.62,5.24,1.2,8.07a7.58,7.58,0,0,1-.72,3.09c-.43.67-1.26,2-2,.09-.66-.9-1.64-.52-2.47-.52q-21.26,0-42.52,0a33.26,33.26,0,0,0-6.6.51,6.63,6.63,0,0,1-3.65.53H204.57c-.26-1.51-1.75-1.48-2.68-2.15Z"/><path class="cls-62" d="M247.57,301a20.13,20.13,0,0,1,7-1c14.86.06,29.72-.31,44.57.2.51,0,.92-.68,1.47-.17.06,1.16-.82.93-1.48,1Z"/><path class="cls-66" d="M299.16,185.42H252.52v-.54h46.64Z"/><path class="cls-71" d="M206.2,194.05l-.58-1.65a2.87,2.87,0,0,1,.69-2.1l0,.07c.86-.73,1.89-.36,2.83-.36q43.14,0,86.26,0a9,9,0,0,1,.9,0,8.87,8.87,0,0,1,.68,4.2,2,2,0,0,1-.93.08q-43.33,0-86.64,0A7.39,7.39,0,0,1,206.2,194.05Z"/><path class="cls-62" d="M221.24,289.14c-1.6-.07-3.49.53-4-2-.15-.88-1.13-.68-1.81-.69a38.67,38.67,0,0,0-5,0,4.43,4.43,0,0,1-4.22-1.65.65.65,0,0,1,.24-.9,2.82,2.82,0,0,1,1-.36c9.12-.18,18.25,0,27.38-.07,20.59,0,41.17,0,61.76,0a1.49,1.49,0,0,1,1,.29c-.31,1.15,1.87.3,1.26,1.44a2.92,2.92,0,0,1-2.81,1.24H280.44c-3.31,0-6.62-.06-9.93,0-1.31,0-2.68-.49-3.89,1-.73.9-2.18-.45-3.38-.59-7.13-.87-14.28-.31-21.41-.43-5.82-.1-11.63,0-17.45,0C222.49,286.43,221.22,287,221.24,289.14Z"/><path class="cls-66" d="M297.55,283.77l-.78.1a1.4,1.4,0,0,1-.81-.58c-.66-2-2.25-2-3.93-2q-23.37,0-46.73,0H211.47a11.16,11.16,0,0,0-3.46.22c-1.06.58-1,1.94-1.8,2.68v.6c-.18.26-.46.77-.52.75-1.09-.43-1.07-1.42-1.12-2.37.36-.48-.09-1.22.54-1.61.12-.54-.55-1.07,0-1.61.7-1.31,1.78-1.32,3.16-1.33,28.35-.08,56.69,0,85,0a2.39,2.39,0,0,0,1.55-.26c1.08-.37.77,2.05,2.15,1.07,1.13-.21.85.69.76,1.14a3.2,3.2,0,0,0,.86,2.62Z"/><path class="cls-62" d="M282,295.6c.61,1.29-.46.94-1.05,1.06-7.13,1.47-14.47.33-21.54,1.33-5,.7-9.58-1.28-14.38-.29a9,9,0,0,1-3.73-.07c-2.53-.59-5-1.64-7.59,1,4.57,1.56,9.28.15,13.74,1.12H205.23v-.4h12c3.58,0,7.15,0,10.73,0,.88,0,2.51.45,2.4-.8s-1.78-.85-2.73-.64a4.88,4.88,0,0,1-5.17-1.46c-1.17-1.34-.6-1.86.92-1.93l.3.21a12.58,12.58,0,0,0,9-.06l.34-.14c1.4-.93,3-.51,4.46-.52q6,0,12.09,0c.94,0,2-.32,2.79.54-.84.87-1.92.79-3,.79h.29c1,0,2,.11,2.69-.8H254a4.69,4.69,0,0,0,3.3.79H278.8A9.33,9.33,0,0,1,282,295.6Z"/><path class="cls-72" d="M239.51,221.92c-6.61,0-13.23,0-19.85-.07a14.63,14.63,0,0,1-2.39-.18.92.92,0,0,1-.76-1c0-.56.39-.77.87-.81s1.25-.08,1.87-.08h37.57c.27,0,.54,0,.81,0,.84.07,2.08-.19,2,1.09s-1.31,1-2.16,1c-5.81,0-11.62,0-17.44,0C239.87,222.31,239.69,222.31,239.51,221.92Z"/><path class="cls-73" d="M234.68,249.39c-5.71,0-11.43,0-17.15,0-.79,0-2.07.41-2.08-1s1.21-1.1,2.07-1.1q17,0,34,0c.93,0,2.32-.08,2.24,1.25s-1.41.78-2.22.79C245.94,249.4,240.31,249.39,234.68,249.39Z"/><path class="cls-62" d="M221.24,289.14c11.87,0,23.75,0,35.63,0,2.57,0,5.14.36,7.71.52a1.22,1.22,0,0,1,1.28,1.1,1.1,1.1,0,0,1,0,1.58c-4.45,1-9,.37-13.46.53.28-1.48,1.47-1.3,2.49-1.32,2.05-.05,4.1,0,6.15,0-5.18,0-10.37,0-15.56,0a4.63,4.63,0,0,0-3.27.82,1.51,1.51,0,0,0-1.62,0,10.44,10.44,0,0,0-5.48-.77c-3.38.27-6.75-.22-10.13.12-1.29.13-2.71.18-3.72-1Z"/><path class="cls-74" d="M242.18,226.8a5.38,5.38,0,0,1-3.11.52c-9.9,0-19.8,0-29.7,0a4.78,4.78,0,0,1-3.68-1.14v0c.58-1.05,1.59-1,2.58-1h31.57a4.33,4.33,0,0,1,2.32.52A.67.67,0,0,1,242.18,226.8Z"/><path class="cls-75" d="M241.94,266h-15.8c-.78,0-1.9.21-2-.82-.1-1.26,1.08-1.16,2-1.16h31.61c.81,0,1.73-.09,1.64,1.14s-1,.84-1.63.84C252.47,266,247.21,266,241.94,266Z"/><path class="cls-76" d="M207.8,241.8l24.4.08c.63,0,1.26,0,1.88,0,.84.06,2.06-.17,2,1.15-.08,1-1.18.9-2,.9H215c-2.41,0-4.83,0-7.24,0-.59,0-1.32.11-1.48-.77a1.07,1.07,0,0,1,.94-1.36C207.44,241.56,207.62,241.54,207.8,241.8Z"/><path class="cls-77" d="M245.53,210.68c-4,0-8.05,0-12.08,0-.74,0-1.83.25-1.84-.95s1-1.12,1.78-1.12q12.21,0,24.42,0c.78,0,1.86-.06,1.85,1,0,1.29-1.23,1-2.06,1C253.58,210.69,249.55,210.68,245.53,210.68Z"/><path class="cls-78" d="M242.66,236.44c4,0,8.06,0,12.09,0,.73,0,1.83-.29,1.86.92s-1,1.14-1.79,1.14q-12.07,0-24.16-.1c-.81,0-2.14.17-2-1.12s1.4-.82,2.21-.83C234.78,236.42,238.72,236.44,242.66,236.44Z"/><path class="cls-66" d="M239.51,221.92a1.19,1.19,0,0,1,.53,0c.44.8,1.2,1.48-.38,2.14a6.48,6.48,0,0,1-2.51.59c-8.84,0-17.68,0-26.52,0a3,3,0,0,1-3.11-1.63c9.79,0,19.45,0,29.12,0C237.66,223,239.08,223.65,239.51,221.92Z"/><path class="cls-62" d="M294.86,278.4c-1,.92-2.21.51-3.33.52q-39.58,0-79.17,0a24.35,24.35,0,0,0-7.25,1.08c-.93-2.11.72-2.12,1.9-2.08C236.29,279,265.58,278.08,294.86,278.4Z"/><path class="cls-66" d="M206.2,194.05,297,194q.32-.45.6,0c1.1,1.17-.51.89-.59.86a14.71,14.71,0,0,0-4.53-.32q-41.44,0-82.89,0C208.42,194.54,207.2,194.93,206.2,194.05Z"/><path class="cls-66" d="M296.52,190.24l-85.42,0c-1.61,0-3.22.06-4.83.1,0-.22-.06-.43-.08-.65h0q43.44,0,86.87,0a14.75,14.75,0,0,0,4.49-.55C298,190.28,297.66,190.66,296.52,190.24Z"/><path class="cls-66" d="M294.74,189.18H210.16a9.73,9.73,0,0,1-1.08,0c-.68-.08-1.56.33-2-.41-.3-.54.06-1.09.77-.85.34.12.44.75,1,.73.71,0,1.43,0,2.15,0q40.17,0,80.34,0A5.54,5.54,0,0,1,294.74,189.18Z"/><path class="cls-79" d="M248.9,241.88c3,0,6.06,0,9.09,0,.72,0,1.62,0,1.69.9.09,1.14-.92,1.15-1.71,1.15H239.26c-.71,0-1.62,0-1.69-.91-.09-1.15.92-1.13,1.71-1.14C242.49,241.87,245.7,241.88,248.9,241.88Z"/><path class="cls-80" d="M282,295.6c-.63.69-1.47.55-2.26.56H256.41c-1.14,0-2.49.25-2.37-1.62h0c3.71-.65,7.44-.26,11.16-.26,5.41,0,10.84-.33,16.24.23Z"/><path class="cls-81" d="M227.14,236.52c.65,1.46-.46,1.86-1.41,1.88-6.23.1-12.46.19-18.69,0-1.74,0-.91-1.23-.32-2A161.78,161.78,0,0,1,227.14,236.52Z"/><path class="cls-82" d="M221.24,290.73l17,0c1.13,0,2.46-.24,2.34,1.61a5.94,5.94,0,0,1-3.19.53,4.4,4.4,0,0,0-3.27,0h-3.18a5.89,5.89,0,0,0-3.8,0H220.7q-.27.41-.54,0c-.85-.06-2.13,0-1.85-1.18C218.65,290.24,220.2,290.93,221.24,290.73Z"/><path class="cls-83" d="M219.54,214.36c3.84,0,7.67,0,11.51,0,.74,0,1.91-.24,1.88.88s-1.19.83-1.93.83q-11.37,0-22.75,0c-.84,0-2.11.2-2-1.09.1-.92,1.29-.62,2-.62C212.05,214.34,215.79,214.36,219.54,214.36Z"/><path class="cls-84" d="M232,232.75c-3.39,0-6.78,0-10.16,0-.74,0-1.89.32-2-.78s1.08-.92,1.8-.92q10.7,0,21.39,0c.67,0,1.68-.18,1.72.78.05,1.22-1.09.92-1.81.93C239.28,232.76,235.63,232.74,232,232.75Z"/><path class="cls-66" d="M251.88,274.11l-.55,1.6c-1.69.47-3.25-.9-5-.71-.06,1.46,1.71.54,1.46,2-.93.13-1.68,1-2.48-.87s-2.65.21-4.07-.13c-.7-.16-2.28,1-2.2,0,.09-1.16-.5-2.59.59-3.71.91-.94,1.54-.23,2,.27,1,1.06,1.84,1.38,2.92.23a.87.87,0,0,1,1.22-.06,3.05,3.05,0,0,0,3.6.22c1.35-.72,1.89.15,2.44,1.1Z"/><path class="cls-85" d="M245.53,216.1c-3,0-6.06,0-9.09,0-.74,0-1.86.24-1.87-.9,0-.92,1-.81,1.7-.81q9.34,0,18.7,0c.68,0,1.66-.1,1.61.9s-1,.8-1.7.81C251.76,216.11,248.65,216.1,245.53,216.1Z"/><path class="cls-80" d="M242.19,292.37c-.05-1.11.45-1.62,1.59-1.61,6.24,0,12.49,0,18.73,0,.6,0,1.45-.12,1.49.72.05,1.09-.93.88-1.58.89-2.5,0-5,0-7.49,0-.87,0-1.81-.22-2.55.5h-.49c-3.2-.75-6.49.22-9.69-.53Z"/><path class="cls-86" d="M206.9,264c4.37,0,8.74,0,13.1,0,1,0,2.77-.58,2.77,1.09,0,1.51-1.67.89-2.62.91-4.45.06-8.91,0-13.37,0C205.55,265.25,205.46,264.57,206.9,264Z"/><path class="cls-87" d="M214.56,210.66c-2.23,0-4.45,0-6.68,0-.64,0-1.34-.11-1.39-.92s.69-1.05,1.28-1.06q6.94-.08,13.89,0a1,1,0,0,1,1.09,1c.06.87-.59,1-1.24,1C219.19,210.67,216.88,210.66,214.56,210.66Z"/><path class="cls-66" d="M243.26,225.72c-.14-.92-1.93-1-1.2-2.35a2.14,2.14,0,0,1,2.84-.8c3.81,1.58,7.63-.73,11.43.29.13,1.32-1.12,1.71-1.82,2.49C250.8,226.78,247,226.36,243.26,225.72Z"/><path class="cls-88" d="M265.84,292.37c0-.53,0-1.05,0-1.58l1.06-.06a3.19,3.19,0,0,1,2.46-.78h14.43a3.15,3.15,0,0,1,2.45.83v0c.52,1,.46,1.87-.87,1.84-6.51-.11-13,.4-19.54-.23Z"/><path class="cls-62" d="M286.26,290.78l-19.34,0c0-1,.06-1.78,1.61-1.73,5,.18,10,.11,14.92.15C284.69,289.16,286.06,289,286.26,290.78Z"/><path class="cls-66" d="M233.8,271.26c.59,1,.16,3,2.13,1.4.61-.51,1.1,1.22,2.29.7-.66.83-1.8,1.38-.63,2.52.49.48.27,1.22-.58,1.36-.57.09-1.19-.05-1-.8.35-1.42-.41-.79-.9-.51-2.25,1.31-4.19-.41-6.29-.62-.89-.09-.27-.64-.29-1,0-.5-.13-.84.77-.91A6.09,6.09,0,0,0,233.8,271.26Z"/><path class="cls-66" d="M261.11,270.44c.62-.42.28,1.37,1.26.49a2,2,0,0,1,3.12,0,1.32,1.32,0,0,0,2.25-.43c.44-.78.92,1.12,1.92.93.54-.1.6.34.4.89a3.19,3.19,0,0,1-3.41,2.2c-.21,0-.6-.34-.82-.05-2.4,3.31-2.68-.12-3.15-1.18S260.63,271.91,261.11,270.44Z"/><path class="cls-66" d="M299.16,186.49c-.63.7-1.47.54-2.26.54H251.3c-.48,0-1,.22-1.62-.53Z"/><path class="cls-89" d="M243.26,225.72c3.73-.94,7.5-.34,11.25-.37.25.41,1.08.49.8,1.19s-1.1.76-1.8.76c-3.36,0-6.71,0-10.06,0-.76-.44-.53-1-.19-1.57Z"/><path class="cls-84" d="M253.2,232.74c-1.77,0-3.55,0-5.32,0-.63,0-1.35,0-1.32-.92,0-.69.65-.77,1.18-.77q5.32,0,10.65,0c.62,0,1.39.08,1.33.92s-.84.79-1.46.8c-1.68,0-3.37,0-5.06,0Z"/><path class="cls-66" d="M211.57,274.1c-1.51,1.76-3.66,1.62-5.64,1.72-1,.05-1-1.23-1.07-1.93a3.64,3.64,0,0,1,.58-2.48,1.72,1.72,0,0,1,2.2.14c1.1,1.19,2.64,1.65,3.92,2.54Z"/><path class="cls-90" d="M282.65,264c.9,0,1.79,0,2.69,0s2-.2,2,1.11c0,1.13-1.12.91-1.88.92q-3.09,0-6.18,0c-.84,0-2.08.23-2-1.06s1.29-.94,2.14-1C280.5,263.94,281.58,264,282.65,264Z"/><path class="cls-91" d="M206.74,232.76c-1.05-1.6,0-1.84,1.24-1.85,2.91,0,5.83.05,8.74.1,1.16,0,2.37.07,1.27,1.75A58.73,58.73,0,0,1,206.74,232.76Z"/><path class="cls-92" d="M214.81,219.72c1.14,1.63.09,2.08-1.25,2.14-1.95.1-3.9,0-5.85,0s-1.54-1-1-2.08A30,30,0,0,1,214.81,219.72Z"/><path class="cls-62" d="M265.84,292.37l18.09,0c1.15,0,2.46.21,2.32-1.63,1.81.43-.3,3,2.76,3-2.46.73-2.5.76-3.31-.48-.4-.62-.93-.36-1.39-.36q-8,0-16,.14A3.06,3.06,0,0,1,265.84,292.37Z"/><path class="cls-93" d="M207.26,247.27c1.78,0,3.57,0,5.35.14.56,0,1.37.2,1.36,1s-.73.94-1.37.94c-1.61,0-3.21,0-4.82,0a1.45,1.45,0,0,1-1.56-1.49A1.55,1.55,0,0,1,207.26,247.27Z"/><path class="cls-62" d="M281.42,294.51l-27.4,0c.53-.64,1.27-.56,2-.56h23.44A2.36,2.36,0,0,1,281.42,294.51Z"/><path class="cls-94" d="M284.12,227.48c-1.37-.52-3.57.62-3.6-1.1,0-2.13,2.23-1,3.46-1.09s3.13-.66,3.15.94C287.16,228.4,284.91,226.59,284.12,227.48Z"/><path class="cls-95" d="M296.37,266c-1.51,0-3,.08-4.51,0-.88,0-2.29.48-2.36-.93s1.35-1.06,2.24-1.09c1.5-.06,3,0,4.51,0C297.21,264.58,297,265.27,296.37,266Z"/><path class="cls-73" d="M296.37,227.31H291c-.64,0-1.38,0-1.45-.84s.66-1.19,1.42-1.21c1.78,0,3.57,0,5.35,0A1.42,1.42,0,0,1,296.37,227.31Z"/><path class="cls-96" d="M284.07,241.87c.91.43,3.05-.87,3.05,1s-2.12.83-3.31,1.07a2.62,2.62,0,0,1-.79,0c-1-.1-2.56.35-2.52-1.13s1.65-.73,2.57-.94A5.25,5.25,0,0,1,284.07,241.87Z"/><path class="cls-73" d="M283.87,210.77c-1.14-.49-3.27.74-3.31-1.06s2.08-1.07,3.26-1.08,3.31-.71,3.3,1.05S285,210.25,283.87,210.77Z"/><path class="cls-73" d="M296.41,210.66c-1.77,0-3.53,0-5.3,0-.69,0-1.56,0-1.52-1s.81-1.07,1.54-1.09c1.59,0,3.18,0,4.77-.06C296.75,209.09,297.15,209.73,296.41,210.66Z"/><path class="cls-92" d="M284.07,249.55c-1.32-.55-3.5.63-3.5-1.09,0-1.92,2.23-1.05,3.49-1.1,1.1-.05,3.11-.63,3.08,1C287.1,250.43,284.91,248.69,284.07,249.55Z"/><path class="cls-97" d="M290.06,249.43c-.47-.36-.83-1-.43-1.36,1.55-1.51,3.53-.57,5.31-.72,1.31-.11,1.63.81,1.53,1.94A15.56,15.56,0,0,1,290.06,249.43Z"/><path class="cls-96" d="M284.05,219.79c.91.41,3.05-.86,3.07,1s-2.1.86-3.29,1.11a1.88,1.88,0,0,1-.53,0c-1.06-.14-2.81.43-2.79-1.13s1.81-.71,2.8-1A4.36,4.36,0,0,1,284.05,219.79Z"/><path class="cls-97" d="M295.92,244c-1.5,0-3,0-4.5-.05-.79,0-1.77,0-1.83-1.05s1-1,1.75-1c1.68,0,3.35,0,5,0C297.26,242.8,296.83,243.45,295.92,244Z"/><path class="cls-92" d="M295.88,221.92c-1.57,0-3.16.06-4.72-.06-1.33-.1-2.38-.56-1.1-2.12a18.17,18.17,0,0,1,6.41.09h0C297,220.72,297,221.46,295.88,221.92Z"/><path class="cls-77" d="M295.33,238.6c-1.5,0-3,0-4.51-.13-.64,0-1.26-.32-1.25-1.1s.7-.91,1.34-.91c1.85,0,3.71,0,5.57,0C297.21,237.79,296.43,238.27,295.33,238.6Z"/><path class="cls-73" d="M284.14,236.44c.88.44,3-.88,3,1,0,1.69-2.13.84-3.32,1.06a2.68,2.68,0,0,1-.8,0c-1-.14-2.52.16-2.49-1.23s1.51-.68,2.37-.85A7.26,7.26,0,0,1,284.14,236.44Z"/><path class="cls-66" d="M284.13,274.08a1.42,1.42,0,0,0,.83-.95c.35-1,1.63-1.94,2.1-1.54a3.86,3.86,0,0,1,1.3,3.08c-.14.76-1.47,1.44-2.79,1.37s-1.7-.74-1.47-1.93Z"/><path class="cls-77" d="M227.45,210.63c-1,0-1.61,0-2.22,0s-1-.32-1.07-1,.5-.91,1-1a7.19,7.19,0,0,1,1.85-.07c1.13.15,3.06-.6,3.06,1.1C230.11,211.63,228,210.05,227.45,210.63Z"/><path class="cls-66" d="M205.46,202.73c-.7-2.43,1-2.3,2.57-2.25,1,0,1.73.18,1.49,1.54-.39,2.26-2.69.61-3.64,1.86C205.67,204.16,204.7,203.6,205.46,202.73Z"/><path class="cls-66" d="M227.14,236.52l-20.42-.1v-.48h0c1.4-1.71,2.8,0,4.2,0,4.82-.08,9.64,0,14.46-.11C226.14,235.83,226.8,235.62,227.14,236.52Z"/><path class="cls-98" d="M284.05,230.92c1,.52,3.08-.72,3,1,0,1.51-2.08.78-3.18.75s-3.34.82-3.29-.86S282.86,231.39,284.05,230.92Z"/><path class="cls-84" d="M289.51,232.61c0-.5,0-1,0-1.51,2-.56,4.06-.21,6.09-.23,1.34,0,1.34.87.87,1.84l0,0A15.48,15.48,0,0,1,289.51,232.61Z"/><path class="cls-83" d="M289.5,216c0-.61-.1-1.45.69-1.5a49.11,49.11,0,0,1,5.56,0c.81,0,.67.9.72,1.5A15.62,15.62,0,0,1,289.5,216Z"/><path class="cls-99" d="M283.87,216.18c-1.11-.48-3.24.73-3.25-1,0-1.44,2.07-.75,3.17-.72s3.27-.86,3.28.9C287.07,216.81,285,215.72,283.87,216.18Z"/><path class="cls-66" d="M277.22,277.77c-1-1-1.72-2-3.6-1.76,1.68-1.54,3.19-.69,4.28-1.43-.33-.95-1.56,0-1.94-1,.7-.66,1.59-1.54,2.41-.68a1.66,1.66,0,0,1-.41,2.71C277,276.1,277.67,276.88,277.22,277.77Z"/><path class="cls-61" d="M297.9,204.3c-.88-1.39-2.47-1.6-3.55-2.45,1.13-2.74,2.95-.52,4.07-.19S298.48,203.4,297.9,204.3Z"/><path class="cls-66" d="M211.56,274.09c.1-.63-.11-1.77,1-1.25.54.26,2.27-.36,1.65,1.32-.33.9.87,1,.66,1.91-1-.32-3.08.92-2.27-1.8l-1-.17Z"/><path class="cls-66" d="M256.75,276.24c0-.89,1.18-1.18,1-2.28s.83-.87,1.47-.91,1.3.26,1.34,1a1.14,1.14,0,0,1-1.13,1.23C258.3,275.16,257.75,276.34,256.75,276.24Z"/><path class="cls-61" d="M295.88,221.92a2.08,2.08,0,0,0,.58-2.1c1.51.89,2.58,2,2.2,4C297.09,224.12,296.61,222.84,295.88,221.92Z"/><path class="cls-66" d="M206.74,232.76H218A26,26,0,0,1,206.74,232.76Z"/><path class="cls-61" d="M296.37,266a1.81,1.81,0,0,0-.11-2l.75-.08h0c2.42,1.42.37,3.56.94,5.28C297.2,268.18,297.39,266.8,296.37,266Z"/><path class="cls-66" d="M214.81,219.72l-8.09.09c.45-1.07,1.3-.55,2.06-.58,2.18-.08,4.48.66,6.45-.91C215.69,219.05,214.88,219.26,214.81,219.72Z"/><path class="cls-66" d="M297.55,194l-.6,0-.17-.52a7.14,7.14,0,0,1-.49-2.05c.51-.81,1.83-1,1.8-2.24,1.55.48,1.18,1.49.68,2.51C298.39,192.48,298,193.24,297.55,194Z"/><path class="cls-66" d="M207.26,247.27l-1,.6c.1-1.73.45-2.89,2.68-1.94,1.06.46,2.39.25,3.94.37C210.84,247.24,208.83,246,207.26,247.27Z"/><path class="cls-66" d="M284.1,274.11c-1.11.05-2.44-.45-2.83,1.58-.45-1.28-.8-2.48.17-2.9a1.94,1.94,0,0,1,2.69,1.29Z"/><path class="cls-61" d="M296.45,232.71c.25-1.34-.44-1.74-1.64-1.7-1.77.05-3.55.06-5.32.09,2.63-1,5.37-.49,8.06-.54C297.19,231.28,296.82,232,296.45,232.71Z"/><path class="cls-61" d="M297,272.93c.59.85,1.89-1.6,1.95.37,0,1-1.38.91-2.29,1-.74.07-1.42-.29-1.28-.91A1,1,0,0,1,297,272.93Z"/><path class="cls-62" d="M242.2,292.37c3.22.34,6.51-.6,9.69.53C248.67,292.63,245.38,293.51,242.2,292.37Z"/><path class="cls-66" d="M206.9,264a1.34,1.34,0,0,0-.12,2c-.5-.1-.14,1.69-1.16.51a2.25,2.25,0,0,1-.13-3.12C206.43,262.17,206.34,264,206.9,264Z"/><path class="cls-62" d="M223.38,294.5a18.48,18.48,0,0,1,9.68,0v0a12.52,12.52,0,0,1-9.67,0Z"/><path class="cls-66" d="M251.86,274.08c0-.75.67-.89,1.16-1.24.66-.47,1.21-.68,1.87-.14.29.24.52.52.25.89-.42.59-1.08.48-1.68.5s-1.05,0-1.58,0Z"/><path class="cls-61" d="M296.93,256.57a1.19,1.19,0,0,1-1.06,1.27.68.68,0,0,1-.89-.68,1.4,1.4,0,0,1,1.21-1.48C296.65,255.61,296.89,256.09,296.93,256.57Z"/><path class="cls-62" d="M220.16,292.9h.54c0,3.68-1.73,1.17-3.54.87C218.48,293.1,219.62,293.83,220.16,292.9Z"/><path class="cls-66" d="M272.44,276.6c-.26.59-.68.7-1.09.46s-1.52-.26-1.19-1.26c.08-.27.48-.9.93-.6A8.12,8.12,0,0,1,272.44,276.6Z"/><path class="cls-61" d="M298.63,283.23c-1.9-.67-.68-2.68-1.62-3.76V278.4q-.22-.18-.15-.36t.15-.18C298.69,279.31,297.75,281.54,298.63,283.23Z"/><path class="cls-61" d="M295.92,244a1.93,1.93,0,0,0,.45-2.11c.89.36,2,.68,1.57,1.94S296.6,243.82,295.92,244Z"/><path class="cls-61" d="M289.5,216h7A8.79,8.79,0,0,1,289.5,216Z"/><path class="cls-61" d="M289.51,232.61l7,.08A8.71,8.71,0,0,1,289.51,232.61Z"/><path class="cls-61" d="M296.47,219.83l-6.41-.09c2.08-1,4.28-.23,6.42-.46Z"/><path class="cls-61" d="M290.06,249.43l6.41-.14A8.16,8.16,0,0,1,290.06,249.43Z"/><path class="cls-66" d="M204.5,206.53c2-.2,3.23-.28,4.6,1.42Z"/><path class="cls-61" d="M296.41,210.66a2,2,0,0,0-.51-2.12,2.68,2.68,0,0,1,.93.38c.63.64,1.74,1.3,1,2.32C297.35,211.92,297.44,209.58,296.41,210.66Z"/><path class="cls-66" d="M273.23,273.21c0,.39-.15.71-.59.74s-.71-.14-.73-.58.13-.71.57-.73A.63.63,0,0,1,273.23,273.21Z"/><path class="cls-66" d="M206.19,189.72c-.73-.09-1.41-.28-1.42-1.18a.57.57,0,0,1,.69-.58c.85.29.68,1.09.73,1.76Z"/><path class="cls-61" d="M297,263.88c-.71-3.05,1.47.25,1.63-.88-.17,1.1-1,.78-1.63.88Z"/><path class="cls-61" d="M298.09,189.18c.78,1.47-.34,1.77-1.33,2.15-.44,0-.51-.21-.22-.54l0-.55a1,1,0,0,0,1-1.06Z"/><path class="cls-61" d="M295.33,238.6c.77-.5,1.47-1,1.15-2.12.36.71.72,1.43,1.07,2.15l-1.07.53Z"/><path class="cls-61" d="M296.37,227.31a3.12,3.12,0,0,0,0-2.09,3.81,3.81,0,0,1,1.71,1.95Z"/><path class="cls-61" d="M298.09,232.71a4.15,4.15,0,0,1,.53.59c.31.54.7,1.11,0,1.66a.51.51,0,0,1-.48,0c-.58-.44-.11-1-.1-1.46,0-.27,0-.54,0-.81Z"/><path class="cls-66" d="M207.8,241.8h-.54c.18-1-1-.62-1.32-1.31C207.31,240,207.8,240.54,207.8,241.8Z"/><path class="cls-62" d="M227.13,292.9a3.41,3.41,0,0,1,3.8,0Z"/><path class="cls-62" d="M234.11,292.9a2.66,2.66,0,0,1,3.27,0Z"/><path class="cls-66" d="M205.69,226.2l-.1,1.57c-.75-1.16-.75-1.16.11-1.55Z"/><path class="cls-66" d="M205.46,249.59a2.76,2.76,0,0,1,.49.72.33.33,0,0,1-.46.41,1.22,1.22,0,0,1-.47-.59C204.9,249.88,205,249.64,205.46,249.59Z"/><path class="cls-66" d="M206.72,235.94c-.58-.24-.89.9-1.5.31-.1-.09,0-.54.16-.71.68-.76,1-.15,1.35.4Z"/><path class="cls-61" d="M297.55,236.58c.49.64,1,1.24.48,1.89-.08.11-.31.11-.48.16Z"/><path class="cls-61" d="M296.43,217.33c.33.65.55,1,.7,1.42s-.18.56-.38.47a2.84,2.84,0,0,1-.93-.73C295.77,218.44,296,218.13,296.43,217.33Z"/><path class="cls-66" d="M206.38,257.25c-.95.22-1.62.3-1.68-1Z"/><path class="cls-61" d="M298.69,241.59c-.72.43-1.15-.06-2.14-.66C297.72,240.8,298.22,241,298.69,241.59Z"/><path class="cls-66" d="M254.66,277.92c-.15-.4-.37-.69-.29-.83a2.48,2.48,0,0,1,.74-.95c.26-.18.54.16.47.38A8.82,8.82,0,0,1,254.66,277.92Z"/><path class="cls-66" d="M205.33,259.47c.69,0,1.19.51,1,.92-.41,1-.7.17-.91-.22A1.87,1.87,0,0,1,205.33,259.47Z"/><path class="cls-66" d="M230.08,276.42c-.07.45-.32.67-.72.57s-.82-.19-.6-.59.7-.47,1.07-.69Z"/><path class="cls-100" d="M264.11,226.16c-.27.24-.43.49-.6.5s-.4-.19-.6-.3c.14-.17.25-.45.42-.49S263.75,226,264.11,226.16Z"/><path class="cls-62" d="M205.11,281.62c0,.6,0,1.21-.54,1.61C204.27,282.53,203.79,281.78,205.11,281.62Z"/><path class="cls-66" d="M243.26,225.72c.06.52.13,1.05.19,1.57l-1.27-.49c0-.36,0-.71,0-1.06Z"/><path class="cls-66" d="M297,277.86v.54a2,2,0,0,1-.6-1.91C297.22,276.76,296.92,277.39,297,277.86Z"/><path class="cls-66" d="M256.71,276.25c.12.38.5.84,0,1.15-.64.42-.85-.19-1.11-.62Z"/><path class="cls-66" d="M206.31,190.3a2.74,2.74,0,0,1-.69,2.1C204.84,191.36,205.58,190.83,206.31,190.3Z"/><path class="cls-101" d="M264,265.19a1.92,1.92,0,0,1-.66.2.29.29,0,0,1-.16-.53,1.08,1.08,0,0,1,.66-.16S263.92,265,264,265.19Z"/><path class="cls-66" d="M213.79,246c.93-1.15,1.46-.76,2-.94C215.33,246,214.77,245.32,213.79,246Z"/><path class="cls-66" d="M252.18,276.54l-.54.34a1.91,1.91,0,0,1-.27-.65c0-.13-.34-.58.22-.48A.65.65,0,0,1,252.18,276.54Z"/><path class="cls-61" d="M298.09,232.71c-.73-.58-.49-1.4-.54-2.15,1.51.39.16,1.49.54,2.15Z"/><path class="cls-102" d="M265.1,215.82c-.08-.21-.24-.44-.22-.64a.29.29,0,0,1,.51-.21,1.19,1.19,0,0,1,.21.67A3.09,3.09,0,0,1,265.1,215.82Z"/><path class="cls-103" d="M268.81,214.6c.21.27.49.47.48.65a.7.7,0,0,1-.49.47.68.68,0,0,1-.48-.48C268.31,215.06,268.59,214.87,268.81,214.6Z"/><path class="cls-61" d="M297.62,240c-.61.25-1.32.32-1.37-.24-.11-1.21.52-.2.8-.15S297.39,239.88,297.62,240Z"/><path class="cls-104" d="M259.87,248.76c-.38,0-.65-.09-.55-.39s.34-.3.55-.38.34.22.32.27A2.54,2.54,0,0,1,259.87,248.76Z"/><ellipse class="cls-105" cx="250.79" cy="191.06" rx="61.39" ry="0.18"/><path class="cls-106" d="M295,193.31H209V193h85.92Z"/><path class="cls-105" d="M296.54,190.79l.22.54c0,.71,0,1.43,0,2.14C295.89,192.65,295.05,191.82,296.54,190.79Z"/><path class="cls-105" d="M207.43,192.07c.09.18.29.4.28.61s-.23.55-.37.56c-.37,0-.29-.32-.29-.57S207,192.14,207.43,192.07Z"/><path class="cls-107" d="M206.21,284.25c.28-1.06-.4-2.27.47-3.24,11.2.17,22.39.05,33.58.07q26.46,0,52.93,0c1.84,0,3.62,0,2.86,2.68a5.58,5.58,0,0,1-2.89.26q-41.9,0-83.79,0a5.5,5.5,0,0,0-2.64.2l-.26.05Z"/><path class="cls-108" d="M206.73,284.25c.11-.52.39-.61,1-.61q44.13.09,88.25.13c.18-.34.35-.34.52,0a1.68,1.68,0,0,0,.32.09c-.47.79-1.26.55-1.94.55H208.05A9.91,9.91,0,0,1,206.73,284.25Z"/><path class="cls-109" d="M296.45,283.78h-.52c.32-2.5-1.43-2.15-2.94-2.15H224c-4.83,0-9.67,0-14.5,0-.95,0-2,.3-2.77-.6a4.42,4.42,0,0,1,2.61-.29c28.14,0,56.29,0,84.43-.06C296.15,280.66,297.37,281.12,296.45,283.78Z"/><path class="cls-88" d="M252.39,294.53c.08,1.13-.42,1.64-1.57,1.63-4.82,0-9.65,0-14.48,0-.61,0-1.47,0-1.44-.79,0-1,1-.84,1.67-.84,5.27,0,10.55,0,15.83,0Z"/><path class="cls-110" d="M223.38,294.52h9.67c.08,1.1-.39,1.63-1.54,1.63-2.21,0-4.42.17-6.63.11C224,296.24,222.42,296.34,223.38,294.52Z"/><path class="cls-62" d="M264.37,274.11c-.09-1.23-.42-1.86.25-2.26.13-.08.44.13.67.21Z"/></svg>