<svg id="Layer_1" data-name="Layer 1" xmlns="http://www.w3.org/2000/svg" viewBox="0 0 500 500"><defs><style>.cls-1{fill:#08080a;}.cls-2{fill:#feb020;}.cls-3{fill:#fece25;}.cls-4{fill:#c8f4f7;}.cls-5{fill:#fdb020;}.cls-6{fill:#9ee0f7;}.cls-7{fill:#2e2f2a;}.cls-8{fill:#1c1d1b;}.cls-9{fill:#1c1d1a;}.cls-10{fill:#fcce24;}.cls-11{fill:#fef338;}.cls-12{fill:#030303;}.cls-13{fill:#030204;}.cls-14{fill:#010102;}.cls-15{fill:#1c1c19;}.cls-16{fill:#000001;}.cls-17{fill:#f8b015;}.cls-18{fill:#1d1d1b;}.cls-19{fill:#fdf237;}.cls-20{fill:#fdf238;}.cls-21{fill:#2f302c;}.cls-22{fill:#2f302b;}.cls-23{fill:#fee124;}</style></defs><title>Artboard 2</title><path class="cls-1" d="M131.41,311.16c1.2-15.35,8-27.89,19.38-38a55.76,55.76,0,0,1,29.73-13.52c6.3-.9,10.1-4.75,10.51-11.18.27-4.19,1.31-8,4.09-11.16a16.56,16.56,0,0,1,11.27-5.84c1-.1,2.56.66,2.61-1.41,0-1.37.08-2.54-1.76-2.76a2.39,2.39,0,0,1-1.76-1.46c-.22-.79.3-.89.88-1,4.28.67,8.45-.55,12.66-.87,12.2-.91,24.4-1.87,36.6-2.81,13.28-1,26.58-1.8,39.87-2.75,2.57-.18,4.69-.73,5.07-3.79a.94.94,0,0,1,1.08-.8c.61,3.08.35,5.76-3.24,6.86-.51.15-.88.39-.88,1,0,2.86,0,5.73,0,8.59,0,1.2.92,1,1.67,1.13,10.5,1.52,15.4,6.78,16.17,17.35a11.59,11.59,0,0,0,10,10.79c26.85,4.22,45.5,22.85,49.56,49.55a43.13,43.13,0,0,1,.24,4.41,5.08,5.08,0,0,0-.26,2.62q0,54.93,0,109.86a5.32,5.32,0,0,0,.25,2.62c-.29,9.12-4.41,16.46-10.83,22.62-8.86,8.51-19.85,13.1-31.44,16.39a105.81,105.81,0,0,1-24.15,4.25c-2.06-.71-4.1.09-6.15.09q-49.62-.08-99.23,0c-2.05,0-4.1-.8-6.15-.09-18-1.45-35.32-5.37-50.33-16.08-8.5-6.07-14.33-14.05-15.47-24.82.6-2-.11-3.9-.11-5.86q.07-54.06,0-108.13C131.33,315.06,132.1,313.12,131.41,311.16Z"/><path class="cls-1" d="M344.92,113.63c2.36,4.76,4.78,9.49,7.07,14.28,2.9,6.06,1.64,10-4.13,13.37Q325,154.53,302,167.76c-6.15,3.56-10.24,2.38-13.61-3.87-5.24-9.7-10.09-19.61-15.78-29.07a5.64,5.64,0,0,1-2-2.17c-3.72-7.08-7.95-13.88-11.9-20.84a4,4,0,0,1-.85-2.47,300.76,300.76,0,0,0-15.94-26c-5.88-8.66-4.14-13,4.35-17.7,14.76-8.16,29.25-16.8,43.86-25.22,5.19-3,9.38-2.17,12.81,2.73s6.5,9.66,9.73,14.5c3.46,3.73,5.56,8.34,8.1,12.65,7.51,12.71,14.8,25.56,22.09,38.41A22,22,0,0,1,344.92,113.63Z"/><path class="cls-2" d="M344.92,113.63,320,70.26q-3.61-6.29-7.21-12.57c3.8,1.65,7.08.71,10.58-1.35,14.54-8.58,29.12-17.08,43.86-25.31a27.61,27.61,0,0,1,40.49,18.58c2.52,11.88-2.76,23.66-13.61,30q-21.88,12.75-43.87,25.29C346.69,106.88,344.56,109.43,344.92,113.63Z"/><path class="cls-3" d="M99.94,223.88a36.37,36.37,0,0,1-6.15-11c-1.24-3.14-.54-4.7,2.35-6.36,2.52-1.46,4.78-3,8.17-2.47,2.3.36,4.3-2.16,6.54-3.15,2.59-1.14,3.11-3.25,3.22-5.77a5.84,5.84,0,0,1,3.19-4.72c1.52-.92,3.1-1.73,4.65-2.58,1.06.37,2.14.73,2.49,2-.93,1.68-2.88,2-4.25,3.07s-2.83,2.35-1.76,4.44c.83,1.61,2.72,1.85,5,.54,8.78-5.14,17.69-10,26.43-15.23,12-7.11,24.14-13.88,36.14-20.92,7.67-4.5,15.47-8.76,23.07-13.35a4.2,4.2,0,0,0,2-1.75,3.22,3.22,0,0,0-.25-3.38,2.53,2.53,0,0,0-3.23-.65,39.56,39.56,0,0,0-6.24,3.37c-1.73,1.06-3.35,2.53-5.63,2.27a2.86,2.86,0,0,1-1.41-2.11q9.62-6,19.64-11.36c.64.51.55,1.2.5,1.9a18.51,18.51,0,0,0,10.4,18.1c.7.33,1.65.43,1.77,1.37.15,1.11-.81,1.5-1.56,1.92-5.85,3.31-11.67,6.68-17.54,9.95-10.35,5.79-20.56,11.83-30.89,17.65C161.68,194,147,202.51,132.2,211a8.68,8.68,0,0,1-8.25.51,4.94,4.94,0,0,0-5.28.47c-3.21,2.2-6.64,3.82-9.06,7.35C107.61,222.23,104.22,224.61,99.94,223.88Z"/><path class="cls-1" d="M209.18,191.31c.55-3.83,2.61-6.28,6.46-7.12,25.11,0,50.23-.05,75.34,0,4.17,1.24,6,3.62,6,7.6-.24,1.73-1.65,1.41-2.72,1.46-11.59.49-23.14,1.58-34.69,2.55-12.52,1.07-25.06,2-37.53,3.77-4,.57-8.11,1.48-12.26.8C208.85,197.42,209.91,194.31,209.18,191.31Z"/><path class="cls-4" d="M214.93,134.44c2.22-2.28,5.16-3.51,7.83-5.08,10-5.94,20.19-11.69,30.3-17.51a19.07,19.07,0,0,1,3.43,14.51c-1.14,6.61-4.4,12-10.22,15.54s-11.54,6.77-17.41,10a2.88,2.88,0,0,1-2.46-.69c-5.57-3.82-9.06-9.21-11.58-15.33A1.45,1.45,0,0,1,214.93,134.44Z"/><path class="cls-5" d="M214.93,134.44c2.86,7.09,6.83,13.29,13.67,17.21a26.74,26.74,0,0,1,8,3.45c-6.87,4.65-14.22,8.48-21.38,12.63q-41.13,23.85-82.34,47.57c-2,1.17-4,2.16-6.37,1-.2-.58-.65-.61-1.15-.53a5,5,0,0,0-5.53.35c-2.86,1.91-6,3.11-7.75,6.77-1.12,2.41-4.38,3.65-7.11,4.31-2.35.57-3.83-1.47-5.06-3.3a19.23,19.23,0,0,0,7.62-3.44,5.37,5.37,0,0,0,2.56-3.09c.35-1.5,1.66-2.15,2.82-2.87,1.68-1,3.47-1.9,5.07-3,2.1-1.49,4-1.94,6.49-.57s5.3.67,7.86-.79c13.9-8,27.84-15.88,41.75-23.85,12.72-7.3,25.4-14.67,38.12-22,4.59-2.64,9.26-5.14,14.46-8A16.41,16.41,0,0,1,216,147.8c-2.15-3.92-3.64-8.31-2.23-13C214.08,134.33,214.52,134.42,214.93,134.44Z"/><path class="cls-1" d="M209,216.66c0-1.36-.06-2.73,0-4.09a1.8,1.8,0,0,0-1.13-2c-3.42-1.67-4-3.33-2.88-7.36,1.25.11,1.18,1.13,1.37,2,.23,3,2.34,3.08,4.53,2.78,7-.95,13.93-1.66,20.92-2.37,12.58-1.26,25.18-2.32,37.79-3.33,9.35-.74,18.69-1.78,28.09-1.79,1,0,2.44-.81,2.84,1-.52,1.51-3.31.58-3.1,2.88a9.72,9.72,0,0,0-.17,4.12c.22,2.05-.7,2.69-2.55,3a116.87,116.87,0,0,1-11.81.67c-9.85.47-19.66,1.47-29.49,2.07-11.1.67-22.21,1.47-33.28,2.69a81.82,81.82,0,0,1-9.13.75C210.26,217.63,209.12,218.12,209,216.66Z"/><path class="cls-6" d="M236.63,155.1a16.76,16.76,0,0,1-8-3.45c4.75-3.71,10.23-6.2,15.4-9.2,7.92-4.59,12.1-11.24,12-20.46-.06-3.62-2.14-6.7-2.9-10.14q2.44-1.25,4.87-2.51c5.27,8.29,10.12,16.81,14.72,25.48-5.92,2.75-11.29,6.44-17,9.61Q246.15,149.76,236.63,155.1Z"/><path class="cls-7" d="M205.54,219.18a2.64,2.64,0,0,1,2.41-1.66c4.34-.12,8.64-.71,13-1.13,9-.9,18-1.68,27.1-2.21,10.54-.61,21-1.64,31.57-2.25,5.31-.31,10.62-.68,15.94-.94,1.81-.08,3.71.15,3.87,2.63.15,2.24-1.22,3.13-3.19,3.53-5.17,1-10.44.65-15.66,1.06-13.29,1.06-26.59,1.94-39.89,2.88-10.55.74-21.07,1.73-31.58,2.76a4.44,4.44,0,0,1-3.15-.52C204.47,222.06,205.06,220.62,205.54,219.18Z"/><path class="cls-7" d="M205.55,205c-.05-.64.1-1.33-.56-1.77.71-1.12,1.15-2.58,2.95-2.32q18.12-2.37,36.34-4,14.4-1.26,28.81-2.43c7.56-.61,15.11-1.15,22.69-1.43,2.15-.08,3.59.48,3.75,2.67s-1.3,3.29-3.29,3.44c-4,.32-8.08.43-12.11.7-8.57.58-17.12,1.22-25.67,2-11.69,1.06-23.38,2.14-35.06,3.4-4.41.47-8.81,1.08-13.23,1.53C208.29,207,206.59,206.81,205.55,205Z"/><path class="cls-8" d="M205.55,205a7.56,7.56,0,0,0,5.32.81c6.3-.93,12.67-1.35,19-2,6.92-.72,13.83-1.55,20.76-2.24,5.17-.51,10.36-1,15.55-1.29,10-.6,20-1.85,30-1.83,1.75,0,2.89-1,2.7-2.76s-1.35-2-3.17-2.07c-6.13-.12-12.21.46-18.3.79-8,.44-16,1.72-24,2.13-7.27.38-14.46,1.42-21.69,2s-14.61,1.68-21.9,2.6c-.69.09-1.32.45-1.88-.22l1-.7c.25-.3.5-.29.73,0,11.29-1.14,22.55-2.58,33.85-3.69,12.48-1.21,25-1.89,37.46-3.25a123.28,123.28,0,0,1,12.93-.77c1,0,2.2.41,3-.65,3.16,1.24,5.59,3,5,6.94-.18,1.06-.3,2.13-1.38,2.72-3.86,0-7.78-.46-11.56.09s-7.44.53-11.14.88c-11.41,1.1-22.84,2-34.26,3-8.79.76-17.54,1.84-26.34,2.53-2.23.18-4.43.75-6.66,1.1C207.09,209.59,205.61,208.36,205.55,205Z"/><path class="cls-9" d="M206.14,222.76a4.23,4.23,0,0,0,2.53.29c7.12-.78,14.25-1.45,21.38-2.07q14.38-1.24,28.77-2.33c6.57-.49,13.16-.68,19.71-1.29,5.88-.54,11.8-.21,17.66-1.08,1.66-.24,2.56-.66,2.53-2.47s-1.28-2.3-2.77-2.32c-5.61-.08-11.18.57-16.76,1-4,.33-8.05.46-12.08.73-11.86.79-23.73,1.5-35.58,2.44-7.23.57-14.43,1.52-21.65,2.28a2,2,0,0,1-1.93-.46l1.08-.86c3.81.71,7.53-.47,11.31-.62,6-.25,11.91-1,17.86-1.59,10-.92,20-1.13,29.95-2.28,4-.46,8.05-.44,12.07-.7,4.9-.31,9.78-.8,14.68-.95,2-.06,2.12-.88,2.07-2.45,0-1.23-.47-2.57.46-3.71,0,.87.13,1.74.11,2.61,0,1.83-.29,3.6,2.27,4.18a2.59,2.59,0,0,1,1.83,2.71,1.64,1.64,0,0,0-.55,1.6c.29,2.79-1.28,3.61-3.72,3.75-9.51.56-19,1.09-28.53,1.79-8.52.64-17.07,1.08-25.55,1.91-11.42,1.1-22.94,1.19-34.25,3.31a2.89,2.89,0,0,1-2.89-1.11C205.2,224.33,204.7,223.55,206.14,222.76Z"/><path class="cls-10" d="M194.17,146.15a1.91,1.91,0,0,1,1.3,1.87c.15,1.72-1.38,2-2.39,2.63-8,4.87-16.22,9.38-24.3,14.12q-18.39,10.77-36.92,21.29c-2.4,1.36-4.48,3.62-7.61,3.46a2.84,2.84,0,0,1-2.34-1.67q24.19-14.06,48.41-28.09C178.25,155.18,186.22,150.69,194.17,146.15Z"/><path class="cls-3" d="M102.73,240.6c2.22,4.06,4.49,8.1,6.66,12.19a14.23,14.23,0,0,1,2,7.34c-.22,5.84-4.53,10.21-9.92,10a10.08,10.08,0,0,1-9.67-11.17,7.27,7.27,0,0,1,.92-3.66c1.4-.14,1.19,1,1.37,1.79a4.07,4.07,0,0,0,4.51,3.38,5,5,0,0,0,5.1-4.07,17.55,17.55,0,0,0-.2-7.32c-.45-1.91-1-3.8-1.38-5.73C101.91,242.39,101.2,241.19,102.73,240.6Z"/><path class="cls-11" d="M102.73,240.6c-.72,2.33.6,4.35,1.12,6.45a28.57,28.57,0,0,1,.83,8.16c-.14,3.67-2.3,5.91-5.82,6.11-3.71.2-5.09-1.13-5.66-5.4,0-.23-.35-.43-.53-.64.72-3.15,2.61-5.72,4.14-8.47s3.11-5.62,4.69-8.46C102.45,238.84,102.46,239.79,102.73,240.6Z"/><path class="cls-12" d="M131.41,311.16c.93.9.54,2,.54,3.09q0,56.82,0,113.65c0,1,.36,2.18-.51,3.1a29.23,29.23,0,0,1-.49-6.47q0-53.29,0-106.59C131,315.68,131.26,313.42,131.41,311.16Z"/><path class="cls-13" d="M197.25,471.9c.91-.89,2.06-.52,3.1-.52q52.67,0,105.32,0c1.05,0,2.2-.38,3.11.52-2.75.2-5.5.58-8.25.58q-48.1,0-96.22,0C202,472.45,199.6,472.09,197.25,471.9Z"/><path class="cls-14" d="M291,184.22c-.89.91-2,.54-3.08.54q-34.6,0-69.19,0c-1,0-2.19.39-3.07-.57,1.18-.71,2.49-.49,3.76-.49h67.82A7.23,7.23,0,0,1,291,184.22Z"/><path d="M375.2,428.64c-.91-.91-.53-2.06-.53-3.1q0-54.45,0-108.91c0-1-.38-2.19.54-3.09.06,1,.17,2,.17,2.94q0,54.61,0,109.21C375.38,426.67,375.26,427.65,375.2,428.64Z"/><path class="cls-15" d="M206.14,222.76c-.87.79.16,1.57,0,2.35l-.67.73a5.32,5.32,0,0,1,.06-6.66C205.71,220.38,205.1,221.7,206.14,222.76Z"/><path class="cls-16" d="M209.69,200.18l-.73,0c.07-2.95.15-5.9.22-8.85C210.31,194.21,209.42,197.23,209.69,200.18Z"/><path class="cls-17" d="M125.39,215.75c.26-.52.64-.74,1.16-.38s.44.61,0,.91A1.19,1.19,0,0,1,125.39,215.75Z"/><path class="cls-18" d="M238.11,266.66c16.42,0,32.84.23,49.24-.06,17.76-.32,29.88,8.65,39.24,22.63,4.23,6.31,6.71,13.41,8.64,20.64a48.08,48.08,0,0,1,1.38,12.27q.17,45.67,0,91.36c0,10.71-4.67,19.31-13.11,25.88-8.83,6.87-19.06,10.44-29.76,13.08A189.21,189.21,0,0,1,273,456.65a164.52,164.52,0,0,1-16.4,1.58c-8.89.26-17.82.5-26.69,0-12.25-.73-24.54-1-36.73-2.74-8.89-1.3-17.67-2.81-26.08-6-10.39-3.9-19-10.09-24-20.28a36,36,0,0,1-3.33-15.77c-.12-32.24-.27-64.47,0-96.71.14-14.92,5.16-28.2,16.52-38.46a41.73,41.73,0,0,1,23.74-11c12-1.32,24.08-.33,36.11-.56C223.48,266.55,230.8,266.66,238.11,266.66Z"/><path class="cls-18" d="M253,259c-17.09,0-34.19,0-51.28,0-2.41,0-3.69-.13-3.41-3.25.5-5.67.25-5.7,5.93-5.7,33.4,0,66.8,0,100.2-.06,2.9,0,4,.56,3.83,3.71-.28,5.25-.07,5.26-5.46,5.26Z"/><path class="cls-18" d="M245.6,246.48q-24.48,0-48.95,0c-3.22,0-3.27-.33-2.54-3.45,1.06-4.53,7.06-9.07,12.23-9.05,25.81.09,51.62,0,77.43.05,5.45,0,11.43,4.67,13.22,9.88.68,2,.31,2.63-1.85,2.6-7.51-.08-15,0-22.54,0Z"/><path class="cls-18" d="M276.19,124.34c-1.34.26-1.18-.6-1.44-1-1.91-3.22-3.77-6.47-5.7-9.68-.93-1.56-.47-2.45,1-3.31,7.1-4.06,14.14-8.22,21.23-12.31,8.27-4.76,16.63-9.39,24.81-14.31,2.06-1.24,2.92-.78,3.89,1a92.1,92.1,0,0,0,4.65,8.23c1.75,2.59.3,3.54-1.69,4.65q-8.39,4.69-16.69,9.52Q292.14,115.33,278,123.6A11.92,11.92,0,0,1,276.19,124.34Z"/><path class="cls-18" d="M314.54,75.43c0,1-.84,1.22-1.51,1.61L287.52,91.87c-6.9,4-13.8,8-20.64,12.13-1.78,1.06-2.86,1-3.93-.94-1.56-2.85-3.38-5.55-5.1-8.31-.83-1.33-.72-2.17.81-3,13.08-7.45,26.11-15,39.15-22.51,2.46-1.41,4.91-2.85,7.38-4.26,1-.57,2-1,2.83.28q3.14,4.84,6.25,9.69C314.37,75.07,314.45,75.25,314.54,75.43Z"/><path class="cls-18" d="M336,114.19c-.13,1.31-1.2,1.66-2,2.12-7.74,4.53-15.51,9-23.26,13.47-7.25,4.19-14.51,8.35-21.7,12.63-2,1.17-3.12,1.39-4.2-1.13a58.08,58.08,0,0,0-4.35-7.71c-1.16-1.86-.75-3,1.1-4q22.92-13.17,45.78-26.44c1.76-1,2.83-.84,3.71,1.09,1.36,3,2.89,5.84,4.34,8.76C335.68,113.36,335.86,113.82,336,114.19Z"/><path class="cls-18" d="M303.33,56.5c.1,1.17-.68,1.36-1.25,1.69q-15.72,9.07-31.45,18.15c-5,2.91-10.09,5.78-15,8.87-2.22,1.39-3.46,1.1-4.67-1.2s-2.75-4.55-4.21-6.77c-1.07-1.63-1-2.72.89-3.8,7.85-4.49,15.61-9.14,23.43-13.68,7.4-4.3,14.84-8.51,22.22-12.85,1.72-1,2.86-1.29,4.07.77,1.58,2.71,3.52,5.21,5.31,7.8C302.93,55.88,303.19,56.29,303.33,56.5Z"/><path class="cls-18" d="M346.1,132.71c.14,1.47-.82,1.73-1.57,2.16q-23,13.33-46,26.69c-1.64,1-2.68.85-3.58-.88-1.4-2.72-2.77-5.45-4.36-8.06-1.12-1.84-.5-2.85,1.1-3.76,6.09-3.44,12.19-6.87,18.25-10.36,9.21-5.31,18.43-10.61,27.58-16,2.13-1.27,3.3-1.63,4.33,1.23,1,2.65,2.79,4.95,3.72,7.66C345.76,131.89,346,132.43,346.1,132.71Z"/><path class="cls-3" d="M323.68,63.62c-.42-3.34,1-5.42,3.71-7.18A391.07,391.07,0,0,1,369.09,33c10.05-4.92,19.8-3.5,28.82,2.45a20.38,20.38,0,0,1,8.7,13.93c1.16,6.72-3.48,10.89-9.46,13.1-4,1.46-8.24,1.68-12.48,1.87a90.54,90.54,0,0,0-21.1,3.81c-8.5,2.48-16.85,5.51-25.35,8-5.54,1.63-9.36,0-12.12-5C324.81,68.83,322.9,66.54,323.68,63.62Z"/><path class="cls-11" d="M124.25,189.52q17-9.74,34-19.48Q176,159.8,193.68,149.48c.68-.4,1.45-.66,1.79-1.46,4-1.06,6.94-4.08,10.65-5.69,2.88-1.25,4.69-1.06,5.63.91,1.12,2.36.26,4.31-2.33,5.8q-18.28,10.54-36.54,21.15-20.06,11.58-40.15,23.11c-3.07,1.77-6.1,3.6-9.15,5.41-2.46,1.46-4.87,1.22-6-.82-1.28-2.39-.22-4.12,1.91-5.41C121.11,191.51,122.68,190.51,124.25,189.52Z"/><path class="cls-19" d="M102.29,206.67a2.59,2.59,0,0,1,2.82,1.77,2.91,2.91,0,0,1-1,3.48,41.48,41.48,0,0,1-4.85,2.79,2.9,2.9,0,0,1-3.5-4.38A11.3,11.3,0,0,1,102.29,206.67Z"/><path class="cls-20" d="M110.44,209.17c-1.34-.22-2.38-.37-2.69-1.5a2.18,2.18,0,0,1,1.1-2.74c1.37-.76,2.67-1.63,4-2.47a2.13,2.13,0,0,1,3.28.72c.77,1.29.82,2.74-.78,3.5S112.11,208.89,110.44,209.17Z"/><path class="cls-21" d="M252.4,362.34c.64,11.17-.33,22.31-.73,33.45-.39,10.57-.66,21.26-2.92,31.65s-8.29,17-19.49,19.48c-7.74,1.7-15.64.67-23.5-.25a199.73,199.73,0,0,1-23.23-3.8,42.13,42.13,0,0,1-16.87-8.32c-5.28-4.28-7.37-10.61-8.71-17.05-1.9-9.16-2.55-18.45-3.13-27.79-.93-14.91-.74-29.84-.3-44.72.36-12.24,1.23-24.51,2.54-36.74.83-7.68,2.85-14.35,7.9-20.14,5.49-6.31,12.28-10.79,20.52-11.82a135.44,135.44,0,0,1,36.59.08c11.28,1.67,20.77,7.25,26.42,17.86,2,3.86,2,8.18,2.5,12.35,1.26,11.35,1.62,22.76,2,34.17C252.28,348,252.05,355.15,252.4,362.34Z"/><path class="cls-22" d="M239.07,244.7q-18.84,0-37.67,0c-1.22,0-2.63.43-3.47-1-1-1.65.5-2.65,1.18-3.64,2.22-3.21,5.71-4.16,9.33-4.18q30.7-.12,61.4,0a12,12,0,0,1,10.72,5.69c1.21,1.91.31,2.73-1.45,3.11a11.7,11.7,0,0,1-2.37,0Z"/><path class="cls-23" d="M382.24,32.85c7.7,1.09,15.59,4.4,20.05,13.22,2.12,4.18.47,7.28-4.07,8.21A44.82,44.82,0,0,1,370.08,51a12.71,12.71,0,0,1-6.14-5.74c-1.51-2.92-.65-6.14,2.93-8.26C371.07,34.48,375.59,32.5,382.24,32.85Z"/></svg>