<svg id="Layer_1" data-name="Layer 1" xmlns="http://www.w3.org/2000/svg" viewBox="0 0 500 500"><defs><style>.cls-1{fill:#c7abab;}.cls-2{fill:#9e301d;}.cls-3{fill:#802717;}.cls-4{fill:#6b1f11;}.cls-5{fill:#852617;}.cls-6{fill:#fbc700;}.cls-7{fill:#771808;}.cls-8{fill:#fdf9e8;}.cls-9{fill:#7b3c30;}</style></defs><title>Artboard 3</title><path class="cls-1" d="M475.62,160.1a.62.62,0,0,1,.38,0v3.13a2.82,2.82,0,0,0-.41,0A2.23,2.23,0,0,1,475.62,160.1Z"/><path class="cls-2" d="M105.53,394.42a33.28,33.28,0,0,1-12.19,2.17c-4.92-.08-9.79.13-14.45-2-7-3.21-12-8.49-15.6-15.11-4.94-8.94-7-18.72-8.48-28.72s-.35-20.24-.8-30.34a77.66,77.66,0,0,0-8.21-32.18A177.28,177.28,0,0,1,27.86,232.4c-6.46-46,14.08-87.26,55-109.89,18.17-10.05,37.72-15.65,58.28-17.89,40-4.37,78.07,3.37,114.84,18.85a3.73,3.73,0,0,1,.57.34,2,2,0,0,1-1.31,1.41c-7.37,3.41-12.4,9.36-16.87,15.81a55.54,55.54,0,0,0-9.85,27.39,36.2,36.2,0,0,0,3.91,19.66,5.47,5.47,0,0,1,1.07,2.65,3.2,3.2,0,0,1-.31,1A165.26,165.26,0,0,1,211,217.07a91.48,91.48,0,0,1-19.15,13.78c-14.16,7.41-28.85,9.42-44.29,4.61a62.82,62.82,0,0,1-9.8-3.69,3.08,3.08,0,0,0-4,.55c-6,5.63-13.28,8.36-21.34,9.2a6.41,6.41,0,0,0-4.24,2.1c-8.5,8.9-15.19,19.08-21.07,29.82-5.27,9.61-10.3,19.34-13.78,29.76A140.48,140.48,0,0,0,67,335.09a80.29,80.29,0,0,0,1.42,24.17c2.37,11.14,7.3,20.77,16.93,27.43a43.64,43.64,0,0,0,18,7C104.08,393.8,105,393.61,105.53,394.42Z"/><path class="cls-3" d="M105.53,394.42C91.9,393,81,387,73.78,375.05a52.45,52.45,0,0,1-6.86-21.15c-.34-2.93-.77-5.87-.85-8.82-.28-10,1.32-19.75,3.3-29.5,2.95-14.5,9.35-27.58,16.23-40.5a164.39,164.39,0,0,1,16.14-25c2.26-2.84,4.8-5.46,7.22-8.16a3.41,3.41,0,0,1,2.43-.93c8.78-.7,16.57-3.64,22.91-9.95a1.91,1.91,0,0,1,2.56-.39c9.81,4.85,20.16,7.41,31.14,6.72a58.93,58.93,0,0,0,23.07-6.74,81.21,81.21,0,0,0,16.35-11.1,137.07,137.07,0,0,0,15.28-15.48c3.48-4.14,6.89-8.33,10.07-12.69,1.55.41,1.33,1.78,1.43,2.86a74.25,74.25,0,0,0,4.69,19.46,52.32,52.32,0,0,0,16.67,22.47c.73.59,2,.9,1.75,2.28-5.41,1-9.52,4.4-13.51,7.83-8,6.88-10,15.82-8.43,25.88a104.52,104.52,0,0,0,2.16,10.5,14.92,14.92,0,0,1,.49,2.18c.08.64.27,1.44-.54,1.72-.65.23-1.12-.34-1.46-.81-1.46-2.07-3-4.06-4.66-6a26.43,26.43,0,0,0-2-2.14c-4.26-4.08-7.21-4.36-12.12-1.14-1.62,1.06-3.16,2.24-4.87,3.15-1.12.6-2.38,1.23-3.55.26s-.83-2.29-.67-3.55a3.17,3.17,0,0,1,.27-.84c1.5-3.55,1.46-3.69-2.47-4.39a134,134,0,0,0-15.1-1.33,116,116,0,0,1-19-2.5c-5.09-1.19-9.15-4.14-13-7.48-7.54-6.49-16.52-9.22-26.3-9.7-5-.24-9.94.2-14.59,2.45-8.6,4.17-13.29,11.14-15.07,20.33a26.21,26.21,0,0,0,2,16.35c3.55,7.69,9.73,11.81,18,12.83,6.89.85,13.46-.55,19.88-2.93A85.52,85.52,0,0,0,158,291.58a6,6,0,0,1,3.79-1c12.51,1,24.32-1.15,35-8.15,4.19-2.76,4.19-2.75,5,2.09.4,2.3,1,4.49,2.69,6.25a6.77,6.77,0,0,0,7.32,1.94c4.46-1.33,7.8-4.26,10.92-7.5,2.24-2.31,2.62-2.43,5-.13,4.34,4.15,7.05,9.36,9.16,14.91a1.26,1.26,0,0,1-.17,1.45c-2.88,5.11-5.42,10.41-8.61,15.35-3.75,5.79-8,11.14-14,14.71a25,25,0,0,1-12.2,3.77,20.72,20.72,0,0,0-6.24,0c-2.61-.69-3.85.76-5.16,2.81-5.5,8.69-12.52,16-21.75,20.64-14.72,7.38-28.51,16.18-42,25.55A71.44,71.44,0,0,1,105.53,394.42Z"/><path class="cls-4" d="M257.32,238.37c-5.45-4.26-10.43-9-14.15-14.88-5.19-8.2-7.95-17.25-9.27-26.8-.24-1.79.1-3.73-1.13-5.31l.43-.45c.4-.74,1.09-.68,1.76-.64,7.13.38,14.24.9,21.37,1.29a92,92,0,0,0,13.59-.43,116.21,116.21,0,0,0,30.17-6.92A195.66,195.66,0,0,0,336.34,166a31.31,31.31,0,0,0,4.11-2.7c3.56-3.16,8.06-3.16,12.38-3.7,8.51-1.07,16.46-3.92,24.28-7.33,10.93-4.76,21-11.18,32.05-15.76,7.88-3.28,16-5.7,24.65-5.64a53.42,53.42,0,0,1,24.77,6.65c1.77.94,3.43,2.09,5.27,2.92,4.26,4,8.1,8.32,9.46,14.26l0,3.19a10.58,10.58,0,0,1-9.42,7.73c-13.38,1.49-26.78,2.8-40,5.19-11.44,2.06-22.75,4.58-33.36,9.52A38.1,38.1,0,0,0,377,190a9.71,9.71,0,0,0-2.43,8.53,40.37,40.37,0,0,1-1.19,19.21c-3.05,9.58-9.67,16-18.31,20.66-9.57,5.13-20,7.55-30.58,9.25-1.47.24-2.95.36-4.43.53-.76.35-1.62-.08-2.37.33l-8.06.88c-.63.07-1.34-.12-1.82.5a108.77,108.77,0,0,1-25.22-1.48,86.52,86.52,0,0,1-21.85-7.33C259.45,240.39,257.92,240,257.32,238.37Z"/><path class="cls-5" d="M463.85,140.43c-1.52.5-2.53-.61-3.62-1.25A56.17,56.17,0,0,0,439,131.85c-10.55-1.36-20.27,1.37-29.78,5.31-9,3.71-17.31,8.75-26,13s-17.67,8-27.32,9.65a40.29,40.29,0,0,1-7.89,1.05c-3-.1-5.08,1.56-7.23,3a203.1,203.1,0,0,1-35.6,19.08,120.48,120.48,0,0,1-30.75,8.39,92.72,92.72,0,0,1-17.3,1c-7.69-.47-15.36-1-23-1.51a3,3,0,0,0-.86.18,70.93,70.93,0,0,1-3.7-8.52c-2.48-8.23-2-16.36.33-24.48a60.4,60.4,0,0,1,13.35-24.08,38.43,38.43,0,0,1,13.37-10,23.49,23.49,0,0,1,8.71-1.7c9.85-.36,19.66.49,29.47,1.09,19.27,1.17,38.53,2,57.78-.25,5.55-.64,11-1.6,16.52-2.72,9.15-1.88,18.47-2.27,27.77-2.38,14.31-.18,28.41,1.29,41.9,6.47C448.19,128,456.75,133.06,463.85,140.43Z"/><path class="cls-6" d="M257.32,238.37l3.11,2.2c1.85.91,2.38,2.55,2.37,4.44s-1.44,2.59-2.91,3.25a32.49,32.49,0,0,0-9.83,6.44,21.92,21.92,0,0,0-6.4,15.23c-.3,6.76,1.08,13.3,2.56,19.84.64,2.8,1.66,5.57,1.29,8.54,1,6.29,2,12.57,2.84,18.87.65,4.69,1.12,9.41,1.67,14.11.68,1.18-.17,2.5.36,3.68.76,13.67,1.54,27.33,1.44,41,0,3.27-.08,6.55,0,9.82,0,1.41-.46,1.78-1.79,1.76-2.83-.05-5.66,0-8.48.13-1.52.08-1.89-.45-1.85-1.88.29-10.41.58-20.83.76-31.24.25-14,0-28-2.58-41.8a51.93,51.93,0,0,0-3.14-11.33,37.51,37.51,0,0,0-10.44-16.88c-1-.93-1.54-.88-2.43.18a31.08,31.08,0,0,1-7.53,6.61c-8.11,5-14.64,1.56-15.29-8-.06-.89,0-1.77,0-3-2.3,1.45-4.3,2.81-6.39,4-10.06,5.89-21,7.56-32.48,6.8a6.35,6.35,0,0,0-4,.91c-8,4.87-16.38,8.76-25.72,10.37-13.74,2.37-25.31-3.77-29.23-15.73a28.35,28.35,0,0,1,1.09-20.92c4.62-10.35,12.8-15.92,24.06-16.4,12-.51,23.07,2.59,32.1,11,5.77,5.34,12.84,6.88,20.22,7.84,8.35,1.08,16.79,1,25.13,2.18a17.84,17.84,0,0,1,2.17.47c2.81.79,3.11,1.66,1.35,4a3.26,3.26,0,0,0-.73,1.83c0,1-.43,2.18.64,2.88s1.92.05,2.72-.43c1.78-1.07,3.48-2.28,5.22-3.43,4.7-3.14,7.84-2.9,12,.94a55.09,55.09,0,0,1,6.77,8,4.79,4.79,0,0,0,1.72,1.6c-.68-3-1.4-6.06-2-9.11-1.17-5.48-2-11-1-16.61,1.32-7.4,5.72-12.8,11.6-17.13,1.91-1.41,4-2.58,5.95-3.95A6.38,6.38,0,0,1,257.32,238.37Z"/><path class="cls-3" d="M247.51,298.31c-1.76-8.2-4-16.31-4.49-24.75-.69-12.07,4.69-20.37,15.53-25.39,4.61-2.14,4.88-3.4,1.88-7.6,3.13.47,5.69,2.37,8.59,3.46a99,99,0,0,0,37.42,5.27c.61,0,.9.45,1.37.63-4.13,15.18-13.05,26.83-26.19,35.29C271.17,291.94,259.62,295.86,247.51,298.31Z"/><path class="cls-7" d="M195.67,335.27a10.3,10.3,0,0,1,6.24,0A20.72,20.72,0,0,1,195.67,335.27Z"/><path class="cls-8" d="M252.38,335a8.49,8.49,0,0,1-.36-3.68C253.39,332.4,252.22,333.75,252.38,335Z"/><path class="cls-9" d="M317.69,248.55c.72-.64,1.55-.41,2.37-.33A4.29,4.29,0,0,1,317.69,248.55Z"/></svg>