<svg id="Layer_1" data-name="Layer 1" xmlns="http://www.w3.org/2000/svg" viewBox="0 0 500 500"><defs><style>.cls-1{fill:#fed6bd;}.cls-2{fill:#f987a5;}.cls-3{fill:#eab599;}.cls-4{fill:#f0b89d;}.cls-5{fill:#8b689b;}.cls-6{fill:#febe98;}.cls-7{fill:#d3cd46;}.cls-8{fill:#8c689b;}.cls-9{fill:#ede779;}.cls-10{fill:#fdbe97;}.cls-11{fill:#fcbe98;}.cls-12{fill:#98ab43;}.cls-13{fill:#fdbe98;}.cls-14{fill:#fba068;}.cls-15{fill:#fa5128;}.cls-16{fill:#fa957d;}.cls-17{fill:#f59c66;}.cls-18{fill:#4b541f;}.cls-19{fill:#fcc19f;}.cls-20{fill:#fbc2a0;}.cls-21{fill:#fcc2a1;}.cls-22{fill:#fcc09d;}.cls-23{fill:#fcc3a1;}.cls-24{fill:#fbc7a8;}.cls-25{fill:#fcc39f;}.cls-26{fill:#fac19f;}.cls-27{fill:#fbc5a6;}.cls-28{fill:#fbcaaf;}.cls-29{fill:#edba9a;}.cls-30{fill:#fbc4a2;}.cls-31{fill:#4a5a1c;}.cls-32{fill:#fb9e64;}.cls-33{fill:#fbbf9d;}.cls-34{fill:#fcc8ad;}.cls-35{fill:#f0caad;}.cls-36{fill:#49591c;}.cls-37{fill:#4a581b;}.cls-38{fill:#4d5a1c;}.cls-39{fill:#fca068;}.cls-40{fill:#fca16c;}.cls-41{fill:#5d6527;}.cls-42{fill:#fbc5a5;}.cls-43{fill:#fec6a3;}.cls-44{fill:#fca775;}.cls-45{fill:#fdc9aa;}.cls-46{fill:#fca978;}.cls-47{fill:#6e6e6e;}.cls-48{fill:#323232;}.cls-49{fill:#fca875;}.cls-50{fill:#ede77a;}.cls-51{fill:#536023;}.cls-52{fill:#4e5c21;}</style></defs><title>Artboard 4</title><path class="cls-1" d="M257.37,259.71c-2.71-.09-4.27-2.21-6.23-3.59-4.31-3-6.72-7.46-8.59-12.24,2.71-3.67,6.43-4.12,10.5-3.16a36.48,36.48,0,0,1,4.33,1.62c.28.84-.42,1.19-.87,1.6-3.33,2.95-3.44,7.08-1.79,10.82C255.48,256.48,256.9,257.84,257.37,259.71Z"/><path class="cls-2" d="M250.43,244.1c2.46,1.92,4.9,3.85,6.42,6.67a22.43,22.43,0,0,1,1.13,2.44c.47,1.25.94,2.78-.05,3.74s-2.17-.49-3.26-.83A27.77,27.77,0,0,1,252,255a20.64,20.64,0,0,1-2.64-1.37,15.06,15.06,0,0,0-3.06-2c-2.51-1.86-5.08-3.68-4.74-7.37a4.36,4.36,0,0,1,.4-1.11C244.88,242.4,247.75,242.41,250.43,244.1Z"/><path class="cls-1" d="M248.55,250.78a2,2,0,0,0,0-.49,8.07,8.07,0,0,1,2.85-1.07C251.08,250.86,249.55,250.31,248.55,250.78Z"/><path class="cls-3" d="M249.07,249.11a3.66,3.66,0,0,1,2.47,1.46l0,.48a8.76,8.76,0,0,1-3-1.88C248.64,248.9,248.84,248.88,249.07,249.11Z"/><path class="cls-4" d="M251.62,250.93,251,251a7.52,7.52,0,0,1-2.63-2A4.8,4.8,0,0,1,251.62,250.93Z"/><path class="cls-1" d="M249.62,251.27c.1-.89-.25-1.88.7-2.54-.17.86.56,2-.7,2.53Z"/><path class="cls-5" d="M459.82,254.24c0,.66.06,1.32.06,2V447.5c0,.41,0,.83-.05,1.24-.87.29-1.41-.3-1.95-.78-5.69-5.16-11.32-10.38-17-15.52q-9.85-8.85-19.62-17.82-6.59-6-13.19-12c-8.56-7.76-17.09-15.57-25.66-23.33-6.61-6-13.17-12-19.75-18.07q-12.06-11-24.23-22-6.54-5.87-13-11.85C315.28,318,305,308.82,294.82,299.5q-10.5-9.63-21.05-19.22c-8.49-7.72-17-15.39-25.49-23.16-7.18-6.59-14.48-13.05-21.56-19.75-.58-.55-1.6-1.1-.79-2.22a2.21,2.21,0,0,1,1.69-.1c11.76,3.56,22.94,1.13,33.69-3.75,16.43-7.46,29.71-18.67,39.05-34.25a42.76,42.76,0,0,0,6.32-19.63,20,20,0,0,0-3.07-12.29c-.59-.9-1.72-1.7-1-3.06,9.05,5.28,18.12,10.52,27.15,15.83q64.37,37.88,128.71,75.78A12.36,12.36,0,0,0,459.82,254.24Z"/><path class="cls-1" d="M90.84,218.11a8.64,8.64,0,0,1,14.51-1.06,19,19,0,0,1,3.31,7.13c3.71,13.37,7.81,26.58,13.88,39.13a98.83,98.83,0,0,0,14,20.94c1.8,2.11,2.57-.63,3.9-.74,1.25-2.13,3.52-2.55,6-3.42-3.17-.68-4.48-2.74-5.61-5.25-2-4.37-2.63-9-3.35-13.66a100.74,100.74,0,0,0-4.91-17.6,63.75,63.75,0,0,1-3.29-15.44c-.1-2.39,1.45-3.31,3.43-3.81,2.69-.69,5.43-1.22,7.24-1.93-2.27,1-5.62,1.31-8.74,2.42-1.57.56-2.2-.64-2.79-1.77-1.67-4.93-4.31-9.43-6.27-14.23a24.81,24.81,0,0,1-1.5-13.53,6.85,6.85,0,0,1,5-3c.39,1.13-.95,2.8,1.19,3.41a4.81,4.81,0,0,0,5.41-2.1,1.47,1.47,0,0,1,1.36-.46c2.61,1.43,3.93,4,5.3,6.39a55.85,55.85,0,0,1,4.19,10c2.27,7,4.84,13.88,7,20.91.61,3.61,2.55,6.75,3.76,10.14,1.55,4.33,2.25,9,4.29,13.08a91.39,91.39,0,0,1,7.24,21.7,7.94,7.94,0,0,1,1.06,3.26c0,.52.48.68.91.5.65-.28.22-.64,0-.92a9.24,9.24,0,0,1-1.91-2.87,114.79,114.79,0,0,0-7.81-23.11c-2-4.54-3-9.52-4.72-14.25-.93-2.62-2.65-5-2.8-7.88,1.82-3.54,7-4.18,10.41-1.17a67.33,67.33,0,0,1,9.94,11.36,132.87,132.87,0,0,1,12.25,21.2c7.23,15.45,16.28,29.88,25.64,44.12a274.33,274.33,0,0,1,14.92,24.86A114.29,114.29,0,0,1,232.37,354a32.5,32.5,0,0,1,1,11.06c-1.68,5.23-6.14,8.29-12.35,8.58-4.23.2-8.41-.41-12.61-.62-12.71-.61-25,1-35.89,8a22.9,22.9,0,0,1-15.07,3.46,125.57,125.57,0,0,1-26-5c-11.26-3.46-20.54-9.94-29.28-17.58-5.53-4.84-9.91-10.58-14.24-16.42A68.15,68.15,0,0,0,76.1,333.51a114.29,114.29,0,0,1-10.68-9.6c-3.45-3.62-5.73-8.07-8.48-12.18a33.37,33.37,0,0,0-5.39-6.1,5.72,5.72,0,0,0-3-1.59c-2.3-.93-4.6-1.74-7.15-1-.46.12-1.21.33-1.25-.63,1.28-3.89,4.26-5.68,8.07-5.79,10.06-.3,19.47,2.17,26.28,9.82,7.73,8.68,16.88,15.47,26.16,22.21a20,20,0,0,0,2.14,1.16c2.1,0,2.29-.17,1.46-2.15a48.07,48.07,0,0,0-9.66-14.87,43.89,43.89,0,0,1-11-20.46,4.67,4.67,0,0,1,.4-3.57,62.53,62.53,0,0,1,4.55-7.36,8.69,8.69,0,0,1,5-3.28,9,9,0,0,0-5.17,3.33,26,26,0,0,0-2.87,4c-.59,1-.91,2.66-2.38,2.51s-1.54-1.78-2-2.88c-2.33-5.64-4.83-11.23-5.88-17.3-.88-3,.66-4.75,3.13-6.11s4.71-3.22,6.16-3.69c-1.76.6-4.35,2.5-7,4.28-1.56,1.05-2.65,1.1-3.77-.41a52.13,52.13,0,0,1-7.12-19.54A12.7,12.7,0,0,1,67,238c2.52-6.61,8.93-7.86,13.63-2.64,3.35,3.71,4.83,8.43,6.7,12.9,2.29,5.47,4.14,11.13,6.29,16.66a61.46,61.46,0,0,0,8.16,14.39,9.85,9.85,0,0,0,1.42,1.31,4.26,4.26,0,0,1,1.91,1.17c.68.7,1.38,1.38,2.09,2.06a10.18,10.18,0,0,1,2,3.14,13.75,13.75,0,0,0,4.2,6.68c-.14-1.3-.14-1.3-1.92-3a2.53,2.53,0,0,1-.29-.65c-1.72-3.46-4.06-6.62-5-10.46a14.63,14.63,0,0,1-.55-1.9c-.76-8-4.13-15.27-6.94-22.67-1-2.48-1.49-5.07-2.24-7.61-.57-1.91.09-2.94,2-3.5,2.67-.8,5.25-1.93,7.32-2.14a37.3,37.3,0,0,0-7.7,2.26,2,2,0,0,1-2.89-1.44c-1.72-5.94-4.33-11.63-5.06-17.85A20.52,20.52,0,0,1,90.84,218.11Z"/><path class="cls-6" d="M48.63,303.36c3.48.67,5.41,3.42,7.32,5.9,2.72,3.52,4.88,7.45,7.49,11.05,3.27,4.51,7.54,8.05,11.88,11.48A80.78,80.78,0,0,1,92,349.55c4.73,6.88,11.15,12,17.51,17.28,12,9.93,26.29,13.87,41.33,16a58.84,58.84,0,0,0,15.23.49c2.2-.26,3.57-1.67,5.19-2.67,8.7-5.41,18.21-7.63,28.34-8.47,7.23-.6,14.27,1.06,21.42.64,5.2-.31,10.2-2.84,11.68-7.91,1.56.1,1.6,1.51,2,2.49a170.49,170.49,0,0,1,8.19,29.06c.53,2.84,1.07,5.68,1.44,8.55.7,3.81,1.11,7.68,1.86,11.48,1.65,8.44-1.75,14.66-8.41,19.4-7.61,5.42-16.37,7.83-25.52,8.56-9.79.78-19.47-.08-28.73-3.74A40.07,40.07,0,0,1,173.12,435c-4.44-3.54-7.45-7.88-8-13.71a68.6,68.6,0,0,0-1.51-10.77,4.84,4.84,0,0,1,.1-2c-1.5-5.93-4.31-11-9.4-14.67-5.74-4.14-12.16-6.94-18.65-9.64-9.3-3.87-18.54-7.89-27.87-11.68a40.94,40.94,0,0,1-16.3-11.77c-6.92-8.23-14.41-15.95-21.87-23.68-4-4.18-7.79-8.61-10.22-13.93-1.93-4.23-5.37-6.55-9.3-8.45a.41.41,0,0,1,.08-.59c1.25-.5,2.18.37,3.22.76.66.24,1.34.93,2,.27s.34-1.4.13-2.1a15.84,15.84,0,0,0-5.17-7.32C49.67,305.09,48.48,304.71,48.63,303.36Z"/><path class="cls-1" d="M206.29,74.25c5.2.43,9.16,3.25,13,6.45a36.23,36.23,0,0,0,13.33,6.88c5.48,1.54,8.65,4.89,9.9,10.49a129.36,129.36,0,0,1,2.88,16.3c.58,6.24,2.78,12,4.61,17.9,1.81,3.79.25,7.3-1.11,10.71-1.69,4.28-4.85,7.66-7.66,11.22-1.58,2-3.25,4-4.9,5.91a40.09,40.09,0,0,0-8.56,16.59A28.13,28.13,0,0,1,219.9,191c-2.45,2.33-5.17,3.82-8.67,3.42-12.79-3.6-25.89-6.08-38.29-11-5.69-2.28-10.93-5.44-16.22-8.5a2.76,2.76,0,0,1-1.59-1.79,1.59,1.59,0,0,1,1.33-1.28c3.33-.79,6.07-2.81,9-4.32a86.2,86.2,0,0,0,13-6.57c5.34-3.39,8.72-8.43,11.23-14.13.59-1.33.82-2.88,2.1-3.85,1.24-.47,1.78.54,2.43,1.21,2.64,2.68,5.06,5.58,7.92,8,.39.71,1.14,1,1.71,1.55-.4-.39-.9-.66-1.32-1-2.47-2.51-5-4.91-7.33-7.59-1.34-1.56-2.8-3-2.93-5.27,1-4.94,2.78-9.63,4.21-14.43,1.69-5.67,3.4-11.35,5.25-17a4.41,4.41,0,0,1,1.34-2.57c1.77-.4,2.28,1,2.85,2.13a19.46,19.46,0,0,0,12.46,10.19c1.13.33,2.27.32,3.39.57,5.65,1,13.17-2.21,15.71-6.86-5.55-1-9.16-4.55-12.27-8.88A13,13,0,0,0,217.85,98a11.65,11.65,0,0,1-4.27-1.89A19.87,19.87,0,0,0,202.89,92c-10.1-.94-15.41-11.59-15.11-18.87a6.33,6.33,0,0,1,2-4.87A8.49,8.49,0,0,1,200.08,71a1.08,1.08,0,0,1,0,.75,1,1,0,0,1-.9.3c-1.63-.57-2,.24-2,1.67a23.7,23.7,0,0,1-1.39,5.77,7.42,7.42,0,0,0,4.91,9,3,3,0,0,0,4-1.87c1.58-3.49.9-6.74-1.1-9.87-.62-1-1.88-1.79-1.07-3.25A3.69,3.69,0,0,1,206.29,74.25Z"/><path class="cls-7" d="M165.76,168a28.27,28.27,0,0,1-10.59,5,3.48,3.48,0,0,1-2.88,1.18,31.67,31.67,0,0,1-10.57-.93c-2.05-.57-3.67-1.5-4.06-3.8a2.35,2.35,0,0,0-.81-1.21,48.61,48.61,0,0,0-7.8-4.77c-1.1-1.19-1.85-.38-2.58.47-3.71-2.41-6.39-5.86-9.16-9.21-.58-.69-1.14-1.4-1.7-2.11-3.43-2.47-4.62-6.43-6.64-9.85a63.65,63.65,0,0,1-5.47-14.17,2.71,2.71,0,0,1,.12-2.37c-1.22-4.69-1.55-9.52-2.36-14.28-1-1.66-.8-3.47-.69-5.29.19-3.2,1-6.34.9-9.57,0-1.35.39-2.66.53-4,0-.68.31-1.32.36-2-.08-3.2.76-6.3,1-9.46,0-2.09.48-4.15.68-6.22a6.29,6.29,0,0,0,.42-2.43c0-2.67.62-5.28.83-7.94.47-4.72,1-9.43,1.58-14.14a5.76,5.76,0,0,1,1.24-3.15,47.12,47.12,0,0,1,2.06-7.06c2.35-5.77,6.64-9.41,12.35-11.57,5.29-1.13,9.91.63,14.26,3.41,12.94,8.25,25.72,16.73,38.69,24.94a42.26,42.26,0,0,1,9.36,8.39c.76,1.34,2.07,2.36,2.42,4a1.75,1.75,0,0,1-.46,1c-2.16,2-2.37,4.75-3,7.35-.16.72-.11,1.48-.68,2-.73.28-1.26-.15-1.81-.52-18.16-12.23-36.7-23.89-55.08-35.8-3.23-2.09-5-1.47-6,2.26-1.15,4.14-1.81,8.4-2.69,12.6-2.28,10.84-4.5,21.69-6.73,32.54-1.15,5.55.12,8.26,4.82,11.27Q139.9,118.1,164,133.8a49.59,49.59,0,0,0,4.65,2.86c2.25,1.15,3.77.58,4.78-1.75a17.66,17.66,0,0,0,1-3.58c2.51-12.48,5.15-24.93,7.73-37.39.32-1.55.19-3.36,1.71-4.5a1.59,1.59,0,0,1,1.4,1.2,24.89,24.89,0,0,0,6.93,9.66,1.84,1.84,0,0,1,.67,1.28c-.36,3.31-1.67,6.38-2.64,9.52q-5.83,19-11.61,37.92a46.36,46.36,0,0,1-6.5,13.56A16.23,16.23,0,0,1,165.76,168Z"/><path class="cls-6" d="M211.28,193.82c7.78-.11,10.92-5.9,13.86-11.63,2-3.95,2.41-8.54,4.24-12.61,2.66-6,7.07-10.65,11.08-15.64s8.17-9.5,9.3-16a54,54,0,0,0,.28-5.66c7.27,5.44,13.42,12.07,19.64,18.63,1.64,1.73,3.21,3.52,4.81,5.28,2.47.76,3.67,3,5.33,4.66,1,1,1.89,2.3,3,3.31,4.58,4.19,5.77,9.51,4.94,15.37-1.35,9.52-6.18,17.33-12.37,24.42a60.83,60.83,0,0,1-16.66,13.53c-5.72,3.14-11.75,5.35-18.37,5.31-6.43,0-11.46-2.57-14.66-8.43-2.3-4.2-5-8.15-7.68-12.14-1.78-2.31-3.4-4.76-5.76-6.57C211.67,195.2,211.09,194.69,211.28,193.82Z"/><path class="cls-8" d="M148.44,478a3.47,3.47,0,0,0-.13-.46c0-.46.05-.93.08-1.4.48-4.66,1-9.32,1.42-14,.91-10,1.76-20,2.65-30.06a6.6,6.6,0,0,1,.35-1.18c1.26,0,1.41,1,1.67,1.82,2.31,6.81,7.26,11.36,13.08,15,9.66,6.1,20.44,8.6,31.69,9.69a88.92,88.92,0,0,0,24.17-1.13A61.78,61.78,0,0,0,249,446a32.16,32.16,0,0,0,6.72-6.56,18.28,18.28,0,0,0,4-11c0-1-.29-2.22,1.18-2.58.92.69.89,1.71,1,2.7,1.06,13.32,2.5,26.61,3.8,39.92.24,2.46.53,4.92.6,7.39a3.44,3.44,0,0,1-.85,2.11H149.67C149.26,478,148.85,478,148.44,478Z"/><path class="cls-9" d="M184.63,66.37C174.53,56,161.45,49.92,149.72,41.89c-4.42-3-8.94-5.92-13.45-8.79-3.53-2.25-7.26-3.94-11.62-3.57a2.48,2.48,0,0,1-2.12-.4c3.83-1.93,7.59-4,11.5-5.76,5.83-2.6,11.34-1.26,16.47,2q20.42,13.14,40.77,26.39a22.35,22.35,0,0,1,7.22,7,3.12,3.12,0,0,1-1.74,1.63c-3.27,1.71-6.38,3.68-9.63,5.41C186.36,66.24,185.61,66.92,184.63,66.37Z"/><path class="cls-1" d="M103.62,126.24a84.61,84.61,0,0,0,6.06,16.43c-.35,1.26-.47,1.38-1.56.89-1.57-.71-2.93-1.79-4.43-2.63-.78-.45-1.55-.92-2.37-1.3-3.21-1.51-3.21-1.51-2.54-4.83a6.59,6.59,0,0,0,.46-1.86c0-.93,0-1.86,0-2.34a18.39,18.39,0,0,1,0,2.35A22,22,0,0,1,98,137.46c-.57,1.38-1.58,2.31-3,1.84s-1.3-1.87-1-3.14a8.89,8.89,0,0,0,.3-1.45,25,25,0,0,1,1.39-4.36,17.79,17.79,0,0,0-1,2.75c-.52,1.4-.65,2.89-1.08,4.32a2.2,2.2,0,0,1-3,1.7,19,19,0,0,1-5-2c-2.67-1.49-5-3.52-7.72-4.93a2.1,2.1,0,0,1-1.14-2.71c.23-.75.2-1.53.43-2.77-.52,3.85-1.48,4.68-4.8,4.86a27.12,27.12,0,0,1-19.41-6.75c-2.91-2.42-4.74-5.47-4.29-9.48,2.61-2.65,5.84-2.78,9.2-2.18a44.24,44.24,0,0,1,10.06,3.42C79.28,121.66,91.49,123.77,103.62,126.24Z"/><path class="cls-1" d="M104.9,75.08l-.78,6.58c-.33,1.82-1.71,1.83-3.05,1.63-4.42-.65-8.46-2.14-11.51-5.64a10.24,10.24,0,0,0-1.8-2c-1.29-1.93.13-4-.43-5.57,0,.51.06,1.5,0,2.48-.24,3.16-1.23,4.26-4.25,5.3-5.23,1.8-10.48,3-16,1.18a8,8,0,0,1-2.92-1.26c-1.3-1.22-1.66-3.54-4.08-3.49-.21,0-.43-.26-.51-.5a7.68,7.68,0,0,1,.57-6.69,5.12,5.12,0,0,1,5.38-2.66c1.29.24,2.51.84,3.82.47.38,0,0-.38.14-.07,0,.06-.06.08-.22.1-2.13.26-4.12-.77-6.22-.72-.09,0-.09-.27,0-.44,6.18-3.27,12.63-2.81,19.16-1.38a29.64,29.64,0,0,0,3.66.35c1.15-.32,2.31.2,3.45-.05l.6-.09c1.08.25,1.07,1.15,1.1,2a6.8,6.8,0,0,0,.82,2.57,4.6,4.6,0,0,0,1.6,2.26c2.81,2.19,6.13,3.16,9.51,4C103.89,73.65,105,73.62,104.9,75.08Z"/><path class="cls-6" d="M48.6,115.33a16.14,16.14,0,0,0,7.31,10.9,28.58,28.58,0,0,0,17.58,4.55,3,3,0,0,0,2.78-2.37c.34-1,.53-2,.83-3.18,1.08,2.14-1.07,4.79,1,6.18,1.8,1.24,3.7,2.4,5.55,3.61a24.4,24.4,0,0,0,7.08,3.41c1.32.36,2,.2,2.25-1.27a40.94,40.94,0,0,1,1.33-4.43c1.16.16.73.87.52,1.51-.09.81-.12,1.64-.27,2.44s-.6,1.83.46,2.1a1.8,1.8,0,0,0,2.29-1.35c.46-1.57,1-3.12,1.48-4.69,1.32.38.69,1.24.5,2-.72,2.3.1,3.44,2.43,4.3s4.22,2.47,6.35,3.68c.46.26,1.14,1.4,1.65,0a99,99,0,0,0,5.93,10c-17-5.94-34.88-9.33-51.37-16.87A74.2,74.2,0,0,1,52,128.85c-2.67-1.9-5-4.15-5.49-7.6C46.13,118.92,46.57,116.83,48.6,115.33Z"/><path class="cls-6" d="M102.2,97q-.48,7.47-.94,14.94c-2.89-1.41-5.9-2.61-8.64-4.25C81.79,101.2,70.51,95.56,59.17,90a73.66,73.66,0,0,1-14.5-9,9.68,9.68,0,0,1-1.45-14.22c1.48.5,1.64,1.94,2.19,3.1A24.34,24.34,0,0,0,58.52,82.26a35.13,35.13,0,0,0,9.9,3.12.87.87,0,0,1,.2.67c-.51.56-1.26.14-2,.44,4.55-.56,8.39-.15,11.78,3.54a31.8,31.8,0,0,0,13.51,8.4c1.52.51,2.48.23,3.23-1.21a9.12,9.12,0,0,1,3-3.59c.49-.32,1.07-.56,1.59-.09s.31,1.07,0,1.58c-.54.93-1.32,1.68-1.88,2.6-.41.67-1.19,1.46-.17,2.12a1.77,1.77,0,0,0,2.58-.58C100.83,98.46,100.79,97.1,102.2,97Z"/><path class="cls-10" d="M75.92,267.67c1.38,7,4.39,13.42,7.24,20.47,2.94-5.34,5.52-10.69,12.58-10.34-6.76,1.06-8.33,7.09-11.39,11.7-.65,1-.18,1.87,0,2.84,1.87,8.47,6.42,15.36,12.23,21.66a43,43,0,0,1,8.67,14.3c.33.89,1,2-.14,2.66s-1.83-.26-2.37-1.17c0-.91-.6-1.51-1-2.2-4.78-7.52-9.48-15.09-14.4-22.52a79.87,79.87,0,0,1-9.72-20.77c-3.54-11.51-8-22.72-10.81-34.45-.93-3.92-1.58-7.95.16-11.89.27,7.64,2.8,14.62,6.25,21.32.42.81.81,1.62,1.22,2.43C76,263.44,75,265.8,75.92,267.67Z"/><path class="cls-11" d="M120.58,195.29a4.26,4.26,0,0,1,.46,2.88c-.61,5.16,1.39,9.7,3.41,14.21C126,215.9,128,219.23,129,223c.86,1.55.6,3.32,1,5a50.74,50.74,0,0,0,2.83,14,124.07,124.07,0,0,1,6.59,26c.47,3.15,1.89,5.94,3.05,8.84a3.59,3.59,0,0,0,2.11,1.95c1.27.56,2.61.86,4,1.34a54.42,54.42,0,0,0-8.21,3.49c.05-.24.24-.55.15-.71-3.57-6.5-3.26-13.9-4.89-20.84-4.34-18.47-9.32-36.77-15.3-54.78-.62-1.87-1.12-3.78-1.67-5.68-.35-1.45-1-2.93.43-4.2Z"/><path class="cls-1" d="M108.12,47.76l-2,17.54A2,2,0,0,1,104,67c-4.41.13-8.28-1-11.12-4.66a4.79,4.79,0,0,1-1.16-4.11,8.71,8.71,0,0,1,3.73-4.69,36.13,36.13,0,0,0,4.31-3.23A9.19,9.19,0,0,1,108.12,47.76Z"/><path class="cls-11" d="M90.84,218.11c.52,2.25-.19,4.51.12,6.81.66,5,2.62,9.5,4,14.23.09.32.22.62.32.93,1.24,3.79,1.2,3.7,5,2.34a28.78,28.78,0,0,1,8.86-1.53c.2.76-.24.88-.62.92-3.58.33-6.75,2.07-10.18,2.9-1.63.39-1.33,1.1-1.06,2.28,1.58,6.85,4.48,13.24,7,19.77,1.72,4.49,1.53,9.4,3.25,13.9a31.75,31.75,0,0,0,4,7.86,1.52,1.52,0,0,1,.17,2c-1.78-.43-2.1-2.11-2.88-3.39l-2-3c-.51-.86-1.28-1.53-1.81-2.38-.63-.61-.42-1.47-.66-2.2-3-6-4-12.59-5.57-19-2.45-10.36-6.14-20.36-8.66-30.69C89,225.83,88.39,221.85,90.84,218.11Z"/><path class="cls-12" d="M184.63,66.37c4.69-2.39,9-5.41,13.86-7.57,4.06,4.42,6.22,9.78,7.8,15.45l-3.92-.49a1,1,0,0,1-.92-.28,6.82,6.82,0,0,1-1.52-2.17c-2.85-2.66-6.09-3.76-9.92-2.55-.94.5-1.65,1.63-3,1.08A8.42,8.42,0,0,1,184.63,66.37Z"/><path class="cls-13" d="M91.76,58.25c1.61,5.77,6.6,8.06,12,8a2.58,2.58,0,0,0,2.35-1q-.49,3.93-1,7.88c-3.82.73-7.07-1-10.32-2.52a10.58,10.58,0,0,1-1.6-1.1A16,16,0,0,1,91.42,67a9.12,9.12,0,0,1-.65-6.23A3.76,3.76,0,0,1,91.76,58.25Z"/><path class="cls-1" d="M63,63.8c2.61-.26,5,1.94,7.73.41-1.68,1.24-1.76,1.26-4.83.81-3.44-.49-6.83,3.11-6.19,6.56.29,1.55.64,2.91,2.71,2.4.3-.08.85-.21.69.24-.43,1.25,1.08,1.82.88,2.93A7.3,7.3,0,0,1,57.33,72a2.22,2.22,0,0,0,.59-1c-.25.25-.16.8-.7.8-1.24-.63-1.33-1.76-1.3-2.94.31-1.64,1.63-2.42,2.83-3.29,1.07-.4,2.26-.52,3.1-1.41A1.35,1.35,0,0,1,63,63.8Z"/><path class="cls-14" d="M59,65.73l-2.42,3c-3.08,7.4,1,12.75,7.13,14.56,1.42.41,2.87.67,4.31,1,.78.17,1.68.13,2.1,1-.39.87-1,.73-1.64.36-3.81.21-7.17-1.17-10.4-3-5.88-5.21-5.88-12.43,0-17.38l1,0C59.33,65.44,59.32,65.6,59,65.73Z"/><path class="cls-15" d="M130,193.26l2.34.59c.4,1.69-.71,2.14-2,2.46-2,.48-4,.68-5.54-.83-1.09-1.1.21-2.22.83-3.23l1.27-.33C127.5,193.36,128.84,193.1,130,193.26Z"/><path class="cls-16" d="M130,193.26a2.48,2.48,0,0,1-3.11.35c-.78-.43-.25-1.12,0-1.69l.66-.27c.48.17,1,.91,1.45,0a.83.83,0,0,1,1.08.13Z"/><path class="cls-17" d="M90.77,60.78a15.09,15.09,0,0,0,1.08,6.44c.12.5-.09.66-.56.54-1.23-1.5-.72-3.47-1.39-5.13Z"/><path class="cls-18" d="M129.09,162.83c-.17.88-.34,1.76-.5,2.64.13-1.68-.64-2.1-2.12-1.52C126.62,161.9,127.36,161.22,129.09,162.83Z"/><path class="cls-13" d="M112.49,315.7c1.12-1.76,2.67-1.92,4.25-1.89a55.93,55.93,0,0,1,18.69,4,63.6,63.6,0,0,1,18.11,10.9,10.79,10.79,0,0,1,.82,1.15A158.5,158.5,0,0,0,112.49,315.7Z"/><path class="cls-13" d="M183.91,300.62a30.71,30.71,0,0,1-10.66,6c-8.6,2.71-17.18,2.33-25.73-.13a15.44,15.44,0,0,1-7.44-4.67c-.53-.6-1.91-1.1-1.2-2.06.54-.75,1.49.2,2.18.54a48.85,48.85,0,0,0,11,4.45,42.1,42.1,0,0,0,28.59-3A6.19,6.19,0,0,1,183.91,300.62Z"/><path class="cls-19" d="M149.81,230.41l.53-.41c2,5.23,4.59,10.32,5.72,15.73,1.44,6.91,5.65,12.59,7.34,19.29.88,3.5,1.56,7.05,2.34,10.58a.33.33,0,0,1-.53,0,3.53,3.53,0,0,1-.8-2.28c-1.33-7.09-4.43-13.55-6.95-20.22-1.9-5.06-3.49-10.24-5.27-15.35-.48-1.39-1.15-2.72-1.73-4.08C150,232.64,149.35,231.64,149.81,230.41Z"/><path class="cls-20" d="M130,228a15,15,0,0,1-1-5c.59,1.09,1.14,1.59,2.65,1,3.53-1.4,7.47-1.44,11.33-3.73a4,4,0,0,1-3.14,2.65c-2.56.86-5.17,1.6-7.8,2.26C130.51,225.59,129.78,226.39,130,228Z"/><path class="cls-21" d="M75.92,267.67c-1.36-1.77-.67-4.05-1.48-6,.81,1.13,1.5.93,2.64.2,3.06-2,6-4.34,9.82-5.14-.06,1-.79,1.1-1.29,1.33-2.48,1.14-4.67,2.75-7,4.09S75.1,265,75.92,267.67Z"/><path class="cls-22" d="M164.93,259.66c2.79-2.35,5.71-4.41,9.6-4.37.58,0,1.26.13,1.3.83s-.64.57-1.1.64C171.35,257.32,168.25,258.8,164.93,259.66Z"/><path class="cls-23" d="M149.44,248.36c-4.53.37-7.57,3.54-11.3,6C139.15,250.94,144.74,248,149.44,248.36Z"/><path class="cls-24" d="M116.92,264.6a25.86,25.86,0,0,0-9.06,5.06c-.32.3-.77.48-1,0a1,1,0,0,1,.49-1.25c2.38-1.43,4.6-3.19,7.42-3.7C115.36,264.59,115.93,264,116.92,264.6Z"/><path class="cls-19" d="M167.6,262.72c2.89-1.87,6.29-2.19,9.87-3.81C175,261.22,169.91,263.17,167.6,262.72Z"/><path class="cls-25" d="M165.21,275.61h.52c1.47.91,2,2.72,4.31,3.53l-4.63,1.38A10.69,10.69,0,0,0,165.21,275.61Z"/><path class="cls-26" d="M158.65,246.71c1.48-2.64,5.84-4.39,9.12-3.71A27.08,27.08,0,0,0,158.65,246.71Z"/><path class="cls-27" d="M115.76,269c-2.24,1.58-5,2.08-7.22,3.76C110,269.82,112.79,269.23,115.76,269Z"/><path class="cls-28" d="M145.86,255.76l7-3.71c-1.51,2.55-4.18,3.12-6.55,4.2C146.22,256.06,145.88,256.07,145.86,255.76Z"/><path class="cls-29" d="M113.65,294.47c0-1.7-1.55-2.54-2-4,1.86.26,2.49,1.78,3.07,3.21C115.1,294.75,114.45,294.83,113.65,294.47Z"/><path class="cls-30" d="M145.86,255.76l.5.49c-1.67.24-3.17,1.51-5.3.68A10.85,10.85,0,0,1,145.86,255.76Z"/><path class="cls-6" d="M187,69.84a8.23,8.23,0,0,1,3-1.08,8.44,8.44,0,0,0-1.35,7.57c1.63,6.43,4.47,12.19,11.52,14.3a54.12,54.12,0,0,0,6.54,1.13,2.92,2.92,0,0,1,1.19.32c6.28,4.55,15,5.12,19.62,12.53,2.28,3.64,5.8,6.31,10.58,6.36.88,0,1.1.55.73,1.36-2.05,4.5-12.18,8.67-17.08,7a33.34,33.34,0,0,1-10.55-5.17,18.15,18.15,0,0,1-5.26-6.14,8.4,8.4,0,0,0-6.53-5c-5.6-1-9.73-4.48-12.45-9.39a25.35,25.35,0,0,1-1.82-20.83,6.23,6.23,0,0,1,1.43-2.57Z"/><path class="cls-31" d="M165.76,168a34.8,34.8,0,0,0,11.38-17.25c5-16.15,10-32.32,14.92-48.49a7.67,7.67,0,0,1,.38-.89,1.33,1.33,0,0,1,1.39-.16,55.28,55.28,0,0,0,7.63,2.39c1.11.33,2.14.87,2,2.34Q198.2,123.06,193,140.19c-.4.95.36,2.27-.93,2.95-2.35,6.41-5.39,12.43-10.88,16.77A50.84,50.84,0,0,1,165.76,168Z"/><path class="cls-2" d="M202,73.35l.43.41c1.6,2.17,3.42,4.22,3.82,7.06a10.79,10.79,0,0,1-.39,5.35q-2,5.42-6.92,2.38c-3.81-2.34-5-5.7-3.66-9.91a18.09,18.09,0,0,0,1.28-6c0-.7-.38-1.62.35-2.06s1.33.36,1.95.7a11.23,11.23,0,0,0,1.12.5A9.06,9.06,0,0,1,202,73.35Z"/><path class="cls-32" d="M203.45,105.93c-.85-1.67-2.54-2-4.09-2.32a27.09,27.09,0,0,1-6.92-2.25c-4.23-3-6.74-7.14-8.43-11.89-2.39-2.85-2.28-6-1.08-9.25a23,23,0,0,1,1.78-7.79,3.54,3.54,0,0,1,1.87-2.14C184,77.63,183.49,85,187,92.13c2.69,5.46,6.88,9.2,13,10.36,2.57.48,4.54,1.38,5.77,4,3.21,6.77,9.37,9.88,16,12.33.15,0,.42.07.44.16.1.37-.24.33-.45.41a18.59,18.59,0,0,1-16-10.29C205.12,107.93,204.75,106.59,203.45,105.93Z"/><path class="cls-33" d="M192,143.14l.93-2.95c1,3.43,3.95,5.38,5.94,8.07a49.79,49.79,0,0,0,4,4.32.69.69,0,0,1-1,0,107.84,107.84,0,0,1-8.74-8.63C192.84,143.59,192.57,143.2,192,143.14Z"/><path class="cls-34" d="M201.93,152.58h1c1,.74,2.19,1.3,2.86,3A16,16,0,0,1,201.93,152.58Z"/><path class="cls-35" d="M202,73.35a3.32,3.32,0,0,1-2-1.57,3.68,3.68,0,0,1,0-.47C200.74,71.85,201.67,72.27,202,73.35Z"/><path class="cls-36" d="M182.93,80.22A26.81,26.81,0,0,0,184,89.47c-1.8,8.38-3.62,16.76-5.4,25.15-1.32,6.22-2.6,12.44-3.9,18.66a13.88,13.88,0,0,1-.5,1.92c-1.17,3.2-3.31,3.94-6.18,2.08q-16.14-10.41-32.25-20.85c-7.21-4.67-14.37-9.41-21.66-14a8.88,8.88,0,0,1-4.27-10c3.05-15.38,6.33-30.72,9.53-46.07a11.57,11.57,0,0,1,.38-1.43c1.15-3.31,3.36-4.08,6.31-2.18q12.6,8.13,25.18,16.28L178.93,77A14.15,14.15,0,0,1,182.93,80.22Z"/><path class="cls-6" d="M69.94,85.14c-4.42-.21-8.55-1.24-12.1-4.1s-4.32-8.92-1.3-12.32c.05,1.1.06,2.22,1,3h0c1.23,2.91,3.81,4.2,6.45,5.43,7,3.34,13.94,2,20.72-.76,1.87-.75,1.83-3,2.06-4.71a42.28,42.28,0,0,0,0-4.84c1.9,3.12.2,6.21,1.5,8.85a4.52,4.52,0,0,1,1.49,1.49,19.81,19.81,0,0,0,10.53,5.25c1.36.22,2.75.66,3.77-.77-.35,3.3-.71,6.59-1.06,9.88a1.51,1.51,0,0,1-1.82.2c-2.8-1.38-5.8-1.51-8.84-1.5a40.71,40.71,0,0,1-8.46-2.65,22.29,22.29,0,0,0-10.27-1.78C72.42,85.87,71,86.21,69.94,85.14Z"/><path class="cls-1" d="M102.2,97a31.38,31.38,0,0,0-1.35,2.88,1.53,1.53,0,0,1-1.68,1.1c-1.1,0-2.44,0-3-.84s.25-2,1-2.81c.87-1.06,1.66-2.18,2.82-3.72-2.56.7-3.39,2.46-4.19,4-.91,1.78-1.54,2.46-3.86,1.61a37.29,37.29,0,0,1-15.32-10c-2.5-2.79-5.77-1.85-8.67-2.65-.37-.11-.8,0-1.28-.46l1.86-.09c5.26-.8,10.48-1,15.55,1,2.67,1.17,5.3,2.44,8.27,2.71,2.52.35,5.08.46,7.51,1.39a6.15,6.15,0,0,1,2.85,1.85Z"/><path class="cls-37" d="M126,142.76a10.42,10.42,0,0,0,4.39-5.17c1.09-2.68,1.32-5.13-.41-7.89-3.39-5.41-6.35-11.1-9.48-16.68,1.29,0,1.75,1,2.29,2,2.84,5,5.71,10,8.55,15a9.24,9.24,0,0,1-4.75,13.27C126.12,143.47,126,143.2,126,142.76Z"/><path class="cls-38" d="M160.73,164.43c5.44-4.49,5.56-10.36,4.23-16.56a21.47,21.47,0,0,0-4.34-8.74c1-1,1.51,0,1.92.61,4.25,6.09,5.9,12.67,3.17,19.82C164.86,161.81,163.68,164.13,160.73,164.43Z"/><path class="cls-39" d="M93.32,69.22c3.52,2.53,7.67,3.24,11.81,4a2.84,2.84,0,0,1-.24,1.9c-.76-1.3-2.19-.93-3.3-1.25-3.17-.9-6.27-1.85-8.8-4.09C92.66,69.26,92.86,69.11,93.32,69.22Z"/><path class="cls-40" d="M102.69,93.07A70.31,70.31,0,0,0,92.3,90c-.17-.1-.23-.19-.18-.29s.12-.14.18-.14a21.67,21.67,0,0,1,10.76,1.94C102.94,92.05,102.82,92.56,102.69,93.07Z"/><path class="cls-41" d="M126,142.76l.59.47a2.21,2.21,0,0,1-2.7.06Z"/><path class="cls-42" d="M94.79,134.24c0-.56,0-1.14-.52-1.51A6.26,6.26,0,0,1,97,128C96.23,130.48,95.82,132.46,94.79,134.24Z"/><path class="cls-43" d="M99.25,134.73c-.07-.69.17-1.45-.5-2,.1-1.16-.31-2.43.89-3.76C99.62,131.16,100.18,133,99.25,134.73Z"/><path class="cls-44" d="M93.32,69.22l-.53.52a3.51,3.51,0,0,1-1.5-2l.56-.54A2.83,2.83,0,0,1,93.32,69.22Z"/><path class="cls-45" d="M89.82,77.18a3.12,3.12,0,0,1-1.49-1.49A1.44,1.44,0,0,1,89.82,77.18Z"/><path class="cls-46" d="M84.36,87.51c-5.14-2.12-10.55-1.18-15.85-1.43,0-.14-.05-.29-.07-.43.54-.06,1.13,0,1.5-.51,4.5.06,9.07-.55,13.37,1.39.36.16.7.39,1,.58s.26.17.2.26A.26.26,0,0,1,84.36,87.51Z"/><path class="cls-47" d="M127,48.42c1.3-.14,2.14.78,3.08,1.4q18.52,11.93,37,23.89c2.35,1.53,4.56,3.32,7,4.6,4.73,2.45,5.69,6.53,4.81,11.12-2.49,12.86-5.24,25.67-7.87,38.5a2.76,2.76,0,0,1-1.43,1.91c-1.29.43-2.23-.36-3.19-1-14.72-9.32-29.2-19-44-28.26a10.29,10.29,0,0,1-5-11.45c2.42-12.74,5.11-25.42,7.85-38.09A4.23,4.23,0,0,1,127,48.42Z"/><path class="cls-48" d="M127,48.42c-2.31,7.25-3.29,14.78-4.94,22.17-1.36,6.11-2.61,12.25-3.86,18.39a9.63,9.63,0,0,0,4.56,10.82Q145,114.19,167.3,128.52c.76.49,1.59.88,2.38,1.32-1.31,2.16-2.29,2.5-4.61,1-6-3.76-11.93-7.65-17.89-11.49q-14.24-9.18-28.47-18.35a9.32,9.32,0,0,1-4-9.25q4.1-19.83,8.39-39.61C123.54,50.15,124.6,48.51,127,48.42Z"/><path class="cls-49" d="M84.36,87.51c0-.13,0-.26,0-.4l8,2.49V90C89.32,90.25,86.9,88.69,84.36,87.51Z"/><path class="cls-50" d="M157.39,157.46c-.8,1.91-2.53,1.79-4,1.42-2.75-.71-3.74-3.13-4.34-5.57a6,6,0,0,1,1.53-6.17,3.23,3.23,0,0,1,2.21-1C157.86,147.34,160.07,152.81,157.39,157.46Z"/><path class="cls-51" d="M157.39,157.46a10.32,10.32,0,0,0-.21-7.26,7.87,7.87,0,0,0-4.35-4c2.88-.23,4.83,1.21,5.92,4.35S159.31,156.21,157.39,157.46Z"/><path class="cls-50" d="M121.11,135.21c-1,1.7-2.56,1.18-3.9.75-2.18-.72-4.13-4.27-4-7.2.13-2.55,1.06-4.67,3.9-5.31,3.38.2,4.74,2.61,5.57,5.36C123.4,131.15,123.47,133.53,121.11,135.21Z"/><path class="cls-52" d="M121.11,135.21c2.76-4.31,1.08-9.28-4-11.76,2.77-.25,4.56.93,5.78,3.81s.86,6.33-.88,7.8C121.82,135.23,121.42,135.16,121.11,135.21Z"/></svg>