<svg id="Layer_1" data-name="Layer 1" xmlns="http://www.w3.org/2000/svg" viewBox="0 0 500 500"><defs><style>.cls-1{fill:#f9b586;}.cls-2{fill:#193038;}.cls-3{fill:#521819;}.cls-4{fill:#5a4d4e;}.cls-5{fill:#b8a59f;}.cls-6{fill:#4c4142;}.cls-7{fill:#fbb07a;}.cls-8{fill:#4d4342;}.cls-9{fill:#1c2d34;}.cls-10{fill:#0d242c;}.cls-11{fill:#0e2229;}.cls-12{fill:#494041;}.cls-13{fill:#b8795b;}.cls-14{fill:#b9795b;}.cls-15{fill:#0f1f25;}.cls-16{fill:#fcb98b;}.cls-17{fill:#121f26;}.cls-18{fill:#192228;}.cls-19{fill:#fdbe8e;}.cls-20{fill:#bb7b5a;}.cls-21{fill:#122126;}.cls-22{fill:#4c0e0d;}.cls-23{fill:#d6936a;}.cls-24{fill:#490e08;}</style></defs><title>Artboard 5</title><path class="cls-1" d="M278,92.86a67.42,67.42,0,0,0,1.62,13.52c.45,2.22,1.76,4.26,2.64,6.39,4.17,10.16,6.81,20.63,6.5,31.7a24.23,24.23,0,0,1-.5,5.05c-2,8.12-.44,16.09.74,24.09.16,1.06.15,2.15.21,3.23a51.7,51.7,0,0,0,0,6.93c-.46,4.59-.91,9.19-1.4,13.79a77.13,77.13,0,0,0,.52,19.14c-.62,1.36-2,1.34-3.14,1.6-9,2-18.16,3.35-27.3,4.66-2,.29-4.05,1-6.15.47-.9-1.31.2-2.18.78-3.08a152.31,152.31,0,0,0,9.58-16.14A54.59,54.59,0,0,0,267,188.86,127,127,0,0,1,272.88,167a78,78,0,0,0,4.22-20.56,124,124,0,0,0-.35-16.81c.49,13.73.1,27.31-5.37,40.29a68.51,68.51,0,0,0-5.06,17c-1,7-4.11,13.42-7.38,19.67-3.09,5.88-6.51,11.58-10,17.26a114.35,114.35,0,0,0-5.72,10,25.7,25.7,0,0,0-2.9,8.48,14.26,14.26,0,0,1-3,7.19,9.72,9.72,0,0,0-2.12,5.52c-.42,1.88-.12,3.79-.2,5.68a10.18,10.18,0,0,1-.46,3.88,2.7,2.7,0,0,1-2.75,1.81,3.66,3.66,0,0,1-.74-.1,26.45,26.45,0,0,0-6.35-.19,2.9,2.9,0,0,1-.72,0,6.5,6.5,0,0,1-2-1.05,5.19,5.19,0,0,1-2.8-3.49c-1.15-5.57-1.85-11.18-1-16.87.7-2.79,2.92-4.58,4.83-6.36A24.76,24.76,0,0,0,230,226.59c2.23-8.1,4.42-16.21,6.09-24.45.46-2.28.65-4.58,1-6.87a29.52,29.52,0,0,1,3.55-10.7,16.61,16.61,0,0,0,1-1.84,5.53,5.53,0,0,1,1.74-4,2.62,2.62,0,0,0,.56-1c.18-9.8.05-19.59.07-29.38a4.75,4.75,0,0,0-.28-1.59,58.66,58.66,0,0,1-.18-6.36c.4-4.75.59-9.53,2.19-14.08a18.86,18.86,0,0,1,1.07-2.86,13.44,13.44,0,0,0-1,2.5,86.92,86.92,0,0,0-3.24,21.61,23.37,23.37,0,0,1-.22,3.92c-.56,3.67-.19,7.36-.21,11,0,5.28,0,10.56,0,15.84,0,1.32-.41,2.56-.52,3.85a5.58,5.58,0,0,1-1,2.19c-3.93,7-5.68,14.59-6.55,22.5A90.1,90.1,0,0,1,230,226.08a4.13,4.13,0,0,1-1.75.87c-3,.33-6.09.62-9.14.91-1.72.16-2.73.78-2.58,2.69a1.76,1.76,0,0,1-.75,1.81A18.92,18.92,0,0,0,211,223.5C207,218.76,205.52,213,205.25,207c-.51-11.63,2.64-22.6,6.46-33.41a149.79,149.79,0,0,1,6.07-14.52,2.35,2.35,0,0,0,.25-2.2c-2.75-5.85-.61-11,2.46-15.93,3.86-6.16,8.77-11.54,13.32-17.19s9.08-11.12,12.75-17.32c1-1.77.37-8-1-9.48a1.47,1.47,0,0,0-1.23-.48c-2.46.1-4.46-1.09-6.44-2.3a5,5,0,0,0-1.4-.8c-4.55-.91-5.28-4.7-6.19-8.27a58.72,58.72,0,0,1-1.93-13.7,4.84,4.84,0,0,0-2.42-4c-1.82-1.31-1.7-2.65-.48-4.27,1.49-2,2.87-4,4.34-6a13.94,13.94,0,0,0,2.68-10.94,15.13,15.13,0,0,1,1.41-9.87,2.67,2.67,0,0,0,.12-.91c1.59-.09,2.26,1.35,3.37,2,5.43,3.42,8.67,8.46,10.42,14.54a3.12,3.12,0,0,1,0,1.36c-.64,2.73-1.5,5.41-2.15,8.14-.23,1-.49,2,.53,2.68,1,.36,1.94.87,2.74-.29.57-2.65,1.15-5.26,3-7.43a7,7,0,0,1,12,1.64,12,12,0,0,1-3,13.15,3,3,0,0,0-1,4A30.29,30.29,0,0,0,276,91.72,4.33,4.33,0,0,1,278,92.86Z"/><path class="cls-2" d="M251.65,223.14c5.72-.85,11.44-1.75,17.17-2.55s11.41-1.91,17.07-3.1a20.56,20.56,0,0,0,2.41-.79c3.35,3.23,4.1,7.55,4.57,11.82a188.61,188.61,0,0,1-.1,40.45c-1.16,11-3.06,22-5,32.93a5.64,5.64,0,0,1-.33.86c-.36-.38-.44-.76-.18-1,0,1.29-.72,2.63-.37,4.11-1.16,7.69-2.91,15.26-4.4,22.88-.45,2.33-1,4.64-1.55,6.95a3.08,3.08,0,0,0-.11,2.65c-.29,3.69-.66,7.38-.87,11.07a26.22,26.22,0,0,0,.33,7.4c.29,1.25-.35,1.56-1.27,1.82-2.22,1.82-5,1.53-7.53,1.66a101.73,101.73,0,0,1-25.34-2,5.82,5.82,0,0,1-2.94-1.28c-1.83-.61-2.5-1.89-3-3.77a69.77,69.77,0,0,1-2.74-20.74c.07-3.47-1.72-7-2.78-10.45-3.62-11.86-7.66-23.6-10.18-35.78a35.69,35.69,0,0,1-1.12-6.82c.37-.46.09-1,.27-1.54-.19.23-.05.59-.36.73a43.68,43.68,0,0,1-.95-8.46.74.74,0,0,1,0-.65,6.34,6.34,0,0,0,.09-2c-.12-1.48.64-1.76,1.87-1.48v-.21a3.26,3.26,0,0,1,1.26.32c3.07,1,6,1.05,8.81-.88.95-3.46.53-7.07,1.26-10.56a8.46,8.46,0,0,1,1.94-4.13,11.52,11.52,0,0,0,2.83-7.2c.31-4.85,3-8.69,5.33-12.7.92-1.6,2-3.1,3-4.67a3.28,3.28,0,0,0,.52-2.62A1.72,1.72,0,0,1,251.65,223.14Z"/><path class="cls-3" d="M246.08,64.83c-1.45-.34-1.46-1.4-1.16-2.51.8-3,1.65-6,2.49-9,.35-.41.54-.81-.06-1.19-2-7.52-7.28-12.4-13.34-16.67-1.91-3-1.78-6.33-.86-9.61.37-1.31,1-2.48,2.8-1.2,1.27.89,2.87.52,4.29.19,6.58-1.51,13.13-3.19,19.73-4.6a43.19,43.19,0,0,1,15.42-.85A18.52,18.52,0,0,1,288.72,28c5.57,8.44,6.62,17.79,5.86,27.55-.22,2.92-.53,5.84-.72,8.77A8.31,8.31,0,0,1,292,69.22a20.66,20.66,0,0,1-3.35,3.51C281.9,77.79,279.27,85,278,92.86a3.78,3.78,0,0,1-1.13-.11C268.36,89,262,83.16,259,74.17c-.43-1.26-.57-2,1-2.89,4-2.3,5.55-9.81,3.14-13.7a6.55,6.55,0,0,0-10.8-.66c-1.84,2.24-2.12,5-2.92,7.64C248.27,64.94,247.15,64.57,246.08,64.83Z"/><path class="cls-1" d="M243.19,357a121.32,121.32,0,0,0,19.91,2.64,71.69,71.69,0,0,0,15.89-1,60.11,60.11,0,0,1,.25,14.74c-.67,9.45-1.9,18.84-3.47,28.18q-1.71,10.13-3.45,20.25c-1.75,10.33-3.43,20.66-3.52,31.18a4.57,4.57,0,0,0,.38,2.7c.11,1.52-1,2.15-2.06,2.78-2.09,1.22-4.4,1.28-6.73,1.21a28.21,28.21,0,0,1-10.5-2.47c-1.68-.72-2.88-1.84-2.4-3.93a7.88,7.88,0,0,0,.79-3.8A369.53,369.53,0,0,0,248,407.1c-.33-5.78-.6-11.56-1.05-17.33-.76-9.91-1.86-19.79-3.47-29.6C243.33,359.1,243.3,358,243.19,357Z"/><path class="cls-4" d="M247.49,453.26c.28,2.06,1.63,3.08,3.47,3.75a28.74,28.74,0,0,0,12,2c2.55-.19,4.84-.94,6.2-3.36.43.43,1,.8,1,1.5.08,1.23-.18,2.45-.07,3.68,0,.52-.36.95-.18,1.55,1.39,4.9.09,9.57-1.29,14.23a3.89,3.89,0,0,1-3.3,2.83,74.86,74.86,0,0,1-16.5,1.34,118.41,118.41,0,0,0-15.76,0,147.72,147.72,0,0,1-22.54-1.33c-1.17-.17-2.32-.4-2.47-1.91a3,3,0,0,0,0-2.29,10.6,10.6,0,0,1,8.26-8.33c4.17-.8,8.42-1.18,12.52-2.33a55.84,55.84,0,0,0,9.93-3.83C242.29,459,245.49,456.84,247.49,453.26Z"/><path class="cls-2" d="M215.75,232.36c.11-4.94.11-4.94,5.08-5.34l7.53-.64c1.2.23,1.45.91,1.1,2-1,3.14-1.79,6.37-4.71,8.47-2.3,1.66-3.7,4.33-6.34,5.62a.73.73,0,0,1-.61-.28A53.49,53.49,0,0,1,215.75,232.36Z"/><path class="cls-5" d="M217.8,242.22l.33.08c.88.5.41,1.56.92,2.22-.9,4.73-.29,9.41.34,14.11.34,2.56.7,5,3.42,6.24-.31,1.56-.09,3.17-.33,4.74l-.18.51c-.56-.85-.31-1.8-.33-2.71a2.23,2.23,0,0,0-.86-2c-2.25-1.52-2.88-3.76-3.19-6.35C217.25,253.42,216.66,247.83,217.8,242.22Z"/><path class="cls-6" d="M233.06,480.8c.61-.67,1.42-.42,2.16-.42,3.81,0,7.63,0,11.44,0,.74,0,1.55-.25,2.16.42A156.31,156.31,0,0,1,233.06,480.8Z"/><path class="cls-7" d="M289.18,183.77a11.46,11.46,0,0,1,0-6.93A18.56,18.56,0,0,1,289.18,183.77Z"/><path class="cls-8" d="M270.09,460.85a3.74,3.74,0,0,1,.07-3.68A3.9,3.9,0,0,1,270.09,460.85Z"/><path class="cls-9" d="M286.87,305.85c-1.16-1.47.31-2.76.42-4.17l.13,1.08A7.62,7.62,0,0,1,286.87,305.85Z"/><path class="cls-10" d="M280.81,338.33a3.14,3.14,0,0,1-.32-2.94c.15-.67.26.18.43.29C280.89,336.57,280.85,337.45,280.81,338.33Z"/><path class="cls-11" d="M223.25,278.58l.25-1.38c.34,1,.45,1.62-.16,2.19Z"/><path class="cls-12" d="M208,475.27a1.65,1.65,0,0,1,0,2.29A3.07,3.07,0,0,1,208,475.27Z"/><path class="cls-13" d="M251.65,223.14c-.81.22-1.7,0-2.46.5-.26.28-.54.35-.83,0,3.32-5.74,6.76-11.42,9.93-17.25,2.87-5.29,5.77-10.73,6.7-16.68,1.36-8.8,4.64-16.9,7.61-25.15a69.4,69.4,0,0,0,3.57-21.1c.17-4.71,0-9.43.07-14.15a4.33,4.33,0,0,1,.52-2.78A45.9,45.9,0,0,1,278,137.78a86.39,86.39,0,0,1-4.76,30.4,114.14,114.14,0,0,0-5.95,23.23c-1,7.37-4.71,13.83-8.46,20.16C256.49,215.47,254,219.29,251.65,223.14Z"/><path class="cls-13" d="M241.84,151.23c-.05-8.82.75-17.51,3.78-25.88.42-.13.63,0,.47.44a105.45,105.45,0,0,0-1.92,14.38c-.55,3,0,6,0,9V176.7a4.35,4.35,0,0,1-.46,2.45,6.69,6.69,0,0,0-1.93,3.7c-.13.19-.26.19-.39,0q0-10.22,0-20.43c.49-2.82.09-5.65.23-8.47A7.39,7.39,0,0,1,241.84,151.23Z"/><path class="cls-14" d="M241,184.26c-3.31,6.67-3.43,14.09-5,21.18-1.36,6.31-3.07,12.52-4.89,18.7-.28.93-.07,2-.8,2.82a1,1,0,0,1-.53-1c2.69-10,3.5-20.31,5.62-30.39a31.06,31.06,0,0,1,5.07-11.32A.28.28,0,0,1,241,184.26Z"/><path class="cls-15" d="M248.36,223.68l.83,0c1.21.07,1.67.22.76,1.58A83.85,83.85,0,0,0,242,238.66a12.88,12.88,0,0,0-1.11,4.65,10.21,10.21,0,0,1-2.66,7.16c-2.86,2.88-2.22,6.69-2.85,10.15a26.92,26.92,0,0,1-1,4.87c-.35-.22-.15-.67-.39-.94l.45-3.73c.48-2.05-.11-4.16.33-6.22a5.64,5.64,0,0,1,1.46-4.45,12.37,12.37,0,0,0,3-5.91c.85-6.71,4.19-12.33,7.48-18C247.31,225.38,247.84,224.53,248.36,223.68Z"/><path class="cls-16" d="M243.75,168.87V149c.5-.73-.07-1.65.43-2.39.66.52.47,1.26.47,1.93q0,14.07,0,28.15c0,.67.19,1.41-.44,2-.54-2.35-.1-4.73-.25-7.09C243.9,170.68,244.18,169.75,243.75,168.87Z"/><path class="cls-17" d="M229.78,226c.56.14.46.62.53,1a22.66,22.66,0,0,1-7.66,12.83c-1.48,1.27-3,2.68-3.6,4.73-1-.46-.8-1.41-.92-2.22,2.91-2.68,6-5.2,8.67-8.08,1.55-1.66,1.66-4.21,2.44-6.35.27-.74-.66-.94-.88-1.49Z"/><path class="cls-18" d="M234.06,264.55l.39.94c-.43,1.82-2.14,1.21-3.22,1.49-2,.52-4.2,1-6.07-.6,1.2-.83,2.56-.28,3.83-.44.88-.11,1.75.19,2.63.1C232.53,265.7,233.8,266,234.06,264.55Z"/><path class="cls-19" d="M229.12,266.34l-4,0-.93-.59a13.79,13.79,0,0,1,7,.09C230.59,266.43,229.77,266,229.12,266.34Z"/><path class="cls-20" d="M241.84,151.23c0,3.09,0,6.17,0,9.25,0,.67.2,1.41-.44,2C241.59,158.7,241,154.94,241.84,151.23Z"/><path class="cls-20" d="M243.75,168.87c.9,3.23.13,6.55.46,9.81l-.48.47Z"/><path class="cls-20" d="M244.18,146.65c-.14.8.21,1.68-.43,2.39.2-2.95-.54-5.95.42-8.87Q244.17,143.41,244.18,146.65Z"/><path class="cls-21" d="M222.48,269.61c.14-1.58-.67-3.23.33-4.74l1.43,1.13c-1,.25-1.67.66-1.43,1.89A1.76,1.76,0,0,1,222.48,269.61Z"/><path class="cls-2" d="M234.84,254.6c0,2.08.44,4.18-.33,6.22A22,22,0,0,1,234.84,254.6Z"/><path class="cls-22" d="M246.08,64.83a3.69,3.69,0,0,1,3.25-.27C248.33,65.69,247.2,65.15,246.08,64.83Z"/><path class="cls-23" d="M246.09,125.79l-.47-.44c.36-.69.32-1.59,1.23-2.27A4,4,0,0,1,246.09,125.79Z"/><path class="cls-24" d="M247.35,52.1c1,.4.56,1.09.37,1.73l-.31-.54Z"/><path class="cls-2" d="M229.12,266.34l2.07-.46.43.16C230.85,266.68,230,266.33,229.12,266.34Z"/><path class="cls-20" d="M241,184.26l-.5,0,.94-1.38h.39Z"/></svg>