<svg id="Layer_1" data-name="Layer 1" xmlns="http://www.w3.org/2000/svg" viewBox="0 0 500 500"><defs><style>.cls-1{fill:#f4f4f4;}.cls-2{fill:#feb778;}.cls-3{fill:#382008;}.cls-4{fill:#850000;}.cls-5{fill:#391c04;}.cls-6{fill:#e5e5e5;}.cls-7{fill:#cbcbcb;}.cls-8{fill:#b2b2b2;}.cls-9{fill:#b3b3b3;}.cls-10{fill:#ea9b57;}.cls-11{fill:#583b27;}.cls-12{fill:#e99d5a;}.cls-13{fill:#adadad;}.cls-14{fill:#2a0d01;}.cls-15{fill:#e4e5e6;}.cls-16{fill:#2b2622;}.cls-17{fill:#270d00;}.cls-18{fill:#271301;}.cls-19{fill:#7a6d5e;}.cls-20{fill:#d6d6d6;}.cls-21{fill:#261401;}.cls-22{fill:#392b23;}.cls-23{fill:#c5bab0;}.cls-24{fill:#9f8e80;}.cls-25{fill:#030007;}.cls-26{fill:#8f7256;}.cls-27{fill:#250d01;}.cls-28{fill:#beb1a6;}.cls-29{fill:#cfcfcf;}.cls-30{fill:#cecece;}.cls-31{fill:#d0d0d0;}.cls-32{fill:#dadada;}.cls-33{fill:#d7d7d7;}.cls-34{fill:#dfdfdf;}.cls-35{fill:#dedede;}.cls-36{fill:#f6ad6c;}.cls-37{fill:#670000;}.cls-38{fill:#fdfdfc;}.cls-39{fill:#fac385;}.cls-40{fill:#860d0b;}.cls-41{fill:#69a7d3;}.cls-42{fill:#583c27;}.cls-43{fill:#573b25;}.cls-44{fill:#442913;}.cls-45{fill:#563c26;}.cls-46{fill:#583d27;}.cls-47{fill:#563b25;}.cls-48{fill:#563b26;}.cls-49{fill:#573c27;}.cls-50{fill:#543924;}.cls-51{fill:#523822;}.cls-52{fill:#4f341e;}.cls-53{fill:#3e250f;}.cls-54{fill:#dfa871;}.cls-55{fill:#412611;}.cls-56{fill:#513520;}.cls-57{fill:#4e331e;}.cls-58{fill:#422711;}.cls-59{fill:#462b15;}.cls-60{fill:#493019;}.cls-61{fill:#492e19;}.cls-62{fill:#4c331b;}.cls-63{fill:#482f18;}.cls-64{fill:#49301a;}.cls-65{fill:#452d16;}.cls-66{fill:#b68557;}.cls-67{fill:#fefefe;}.cls-68{fill:#fbfbfb;}.cls-69{fill:#7e0b0a;}.cls-70{fill:#7e0909;}.cls-71{fill:#80090a;}.cls-72{fill:#800a0a;}.cls-73{fill:#800908;}.cls-74{fill:#7f0a09;}.cls-75{fill:#5e422a;}.cls-76{fill:#5d4129;}.cls-77{fill:#5e4129;}.cls-78{fill:#5d4029;}.cls-79{fill:#44270f;}.cls-80{fill:#3d2109;}.cls-81{fill:#472b13;}.cls-82{fill:#482c14;}.cls-83{fill:#553921;}.cls-84{fill:#4d3119;}.cls-85{fill:#4f331b;}.cls-86{fill:#4c3018;}.cls-87{fill:#492c14;}.cls-88{fill:#4b2f16;}.cls-89{fill:#42260e;}.cls-90{fill:#4a2e16;}.cls-91{fill:#bc895d;}.cls-92{fill:#53371f;}.cls-93{fill:#51351d;}.cls-94{fill:#4b2f17;}.cls-95{fill:#442810;}.cls-96{fill:#3f1d01;}.cls-97{fill:#50341c;}.cls-98{fill:#4d3018;}.cls-99{fill:#4e3119;}.cls-100{fill:#1f2630;}.cls-101{fill:#d5d5d5;}.cls-102{fill:#fdfdfd;}.cls-103{fill:#111821;}.cls-104{fill:#eff0f0;}.cls-105{fill:#63686d;}.cls-106{fill:#f1f1f1;}.cls-107{fill:#d1d1d1;}.cls-108{fill:#f3816b;}.cls-109{fill:#e55d46;}.cls-110{fill:#0c0806;}.cls-111{fill:#050205;}.cls-112{fill:#886441;}.cls-113{fill:#87592f;}.cls-114{fill:#fcc588;}.cls-115{fill:#3b261a;}.cls-116{fill:#a3a3a3;}.cls-117{fill:#aeaeae;}.cls-118{fill:#9c9c9c;}.cls-119{fill:#d8d1ce;}.cls-120{fill:#ecebeb;}.cls-121{fill:#cccbca;}.cls-122{fill:#fbcda0;}.cls-123{fill:#fbf9f4;}.cls-124{fill:#fbb676;}.cls-125{fill:#c77b39;}.cls-126{fill:#670100;}.cls-127{fill:#710101;}.cls-128{fill:#710100;}.cls-129{fill:#740100;}.cls-130{fill:#931f11;}.cls-131{fill:#472b16;}.cls-132{fill:#452a15;}.cls-133{fill:#391c05;}.cls-134{fill:#4e321a;}.cls-135{fill:#3c4751;}.cls-136{fill:#2b3039;}.cls-137{fill:#ececec;}.cls-138{fill:#dcdcdc;}.cls-139{fill:#d3d3d3;}.cls-140{fill:#989898;}.cls-141{fill:#b06653;}.cls-142{fill:#fcfcfc;}.cls-143{fill:#fccb9c;}.cls-144{fill:#fccb9d;}.cls-145{fill:#fcca9a;}.cls-146{fill:#cecac8;}.cls-147{fill:#fac99b;}.cls-148{fill:#fbf3e5;}.cls-149{fill:#faefdf;}.cls-150{fill:#faf1e1;}.cls-151{fill:#faebd7;}.cls-152{fill:#fcba7e;}</style></defs><title>Artboard 6</title><path class="cls-1" d="M22.5,327.05c11,.3,21.55-1.9,32.08-4.57a1.8,1.8,0,0,0,1.6-2.06c-.06-2.19,0-4.39,0-6.59,1.46.43,1,1.7,1.06,2.65.18,4.56.16,4.58,4.54,3a197.59,197.59,0,0,1,24-7.06c3.6-.77,7.26-.42,10.85-1a5.46,5.46,0,0,1,3,.85c10.31,4.84,21.23,7.59,32.39,9.55a165.35,165.35,0,0,0,31.64,2.66,66.74,66.74,0,0,0,11.28-1.2,25.25,25.25,0,0,0,10.83-4.46,44.93,44.93,0,0,1,6-3.66,18.63,18.63,0,0,1,9.55-2.51c8.12.29,16.19-.5,24.25-1.23a5.78,5.78,0,0,1,1.81,0c.55.16,1,.42.73,1.12a1.68,1.68,0,0,0,.4,1.88,83.58,83.58,0,0,0,8.53,5.67,4.15,4.15,0,0,1,.53.32c2.47,1.46,4.76,3.25,7.51,4.22a4.92,4.92,0,0,1,.6.23,34.6,34.6,0,0,0,5.83,2.53c5.42,1.57,8.94,5.45,12.07,9.85,5,7,8.72,14.71,12.81,22.22,2.57,4.73,5.14,9.45,8.1,13.94a61.09,61.09,0,0,0,8.77,10.86c.76.77,1.86,1.43,1.43,2.83-2.52,1.92-5.06,3.81-8.36,4.16-5-6.67-8.52-14.14-11.93-21.69-1.93-4.26-3.84-8.52-5.68-12.81-1.2-2.56-2.25-5.18-3.49-7.73-.21-.57-.58-1.06-1-2a13.31,13.31,0,0,0,.93,1.94c1.23,2.68,2.41,5.38,3.6,8.07,2.68,6.32,5.43,12.61,8.45,18.77A84.68,84.68,0,0,0,285.31,390a3.46,3.46,0,0,1,.73,1.63,1.8,1.8,0,0,1-2,1.07,162.36,162.36,0,0,1-11.55-19.91c-.39-.84-.87-1.65-1.27-2.49a26.14,26.14,0,0,0,1.2,2.36,171.78,171.78,0,0,0,9.81,17.46c.6.92,1.43,1.76,1.5,3-1.09,1.45-2.8,2-4.3,2.84-10.43,5.62-20.82,11.32-31.22,17a13.32,13.32,0,0,1-3.73,1.62,25.06,25.06,0,0,1-3.87.15q-106.75,0-213.52,0c-1.56,0-3.21.38-4.61-.73Z"/><path class="cls-2" d="M324.08,413.87c-8,0-15.91.07-23.86.07q-27.39,0-54.77-.07l22-12.11q8-4.42,16.1-8.82c.19-.13.27-.4.53-.44l1.8-.87c.12-.18.2-.43.49-.4,2.92-1,5.44-2.78,8.15-4.18a3.33,3.33,0,0,1,1.35-1.2c1.11-.5,2.07-1.26,3.15-1.82a13.56,13.56,0,0,0,2.94-1.78c4.2-2.11,8.39-4.22,12.65-6.22a42.37,42.37,0,0,1,10.46-3c3.94-.72,7.86-1.61,11.84-2.13a15.75,15.75,0,0,0,2-.24c2.66-.28,5.28-.82,7.9-1.36,7.05-.87,13-3.75,17.53-9.38,1.8-2.23,3.72-4.37,5.54-6.59,3.24-3.95,7.13-7.18,10.87-10.6,6.47-5.93,12.58-12.21,18.63-18.57,3.15-3.31,5.94-7.06,10-9.45a20,20,0,0,0,2.2-1c6.16-2,12.36-3.7,18.92-3.46a17.92,17.92,0,0,0,6.69,0c8.72,0,16.91,1.66,23,8.52,4.17,4.73,4.61,10.29,2.18,16.08-1.37,2.86-3.7,5-5.79,7.22a125,125,0,0,1-30.76,24.15c-13.31,7.39-26.43,15-39.08,23.51a55.55,55.55,0,0,1-17.47,7.41,118.75,118.75,0,0,0-20.46,7.31c-7.76,3.58-15.93,6.16-24,9A4.68,4.68,0,0,0,324.08,413.87Z"/><path class="cls-3" d="M83,141.45c0-10.47,7.43-20.69,16.64-22.92a16.56,16.56,0,0,1,2-.25,10.69,10.69,0,0,0,4.54,0c1.25-.43,2.76,1.14,3.59.09.7-.88.57-2.46.67-3.74.87-11.24,7.56-18.07,17.15-22.74a73.33,73.33,0,0,1,20.06-6.32,22.29,22.29,0,0,1,13.7,2,39.4,39.4,0,0,1,7.32,4.54c5.47,4.31,11.17,8.39,16.29,13.09s8.6,10.79,7.64,18.31c-.46,3.64-2,6.65-5.83,7.92-.55-.82-.63-.88-.1-1.61,1.15-1.63,1.68-3.55,2.63-5.24.83-1.49-1-3,.21-4-.81,1.23.07,3.56-2,4.57-.56-.11-.72-.54-.82-1-.06-1.57.51-3.07.48-4.64a13.13,13.13,0,0,0-1.37-5.81c-.31-.59,0-1.77-1.17-1.55s-1.48,1.34-1.46,2.47c-.3,4-1.21,7.82-4,10.67.65-.37,1.06-1.42,2-1.76a.67.67,0,0,1,.71.53c-.18,2.08-2.23,2.68-3.42,4.29,2.49-.61,3.78-2.31,5.12-4,.49-.62.61-1.81,1.87-1.54a1.68,1.68,0,0,1,.28,1.27c-1.45,5.35-5,8.92-9.67,11.64a15.28,15.28,0,0,0-1.67,1.07c-.17.14-.42.2-.42.41a9.2,9.2,0,0,1,2.13-1.45c.44-.29.85-.7,1.45-.36a.79.79,0,0,1,.18.59c-.16.6-.78.79-1,1.09.94.13,1.26-2.51,2.84-.62.12.14.62-.55,1-.72,1.05-.44,1.57-1.93,3-1.53a1,1,0,0,1,0,1.08c-4,5.45-7.36,11.43-13,15.5a12.06,12.06,0,0,1-3.6,1.85.93.93,0,0,1-1.18-.39c-.17-.38.16-.71.43-1,1.64-1.55,3.51-2.85,5.08-4.48a15.56,15.56,0,0,0,2.84-3.53.49.49,0,0,1,.25-.3c-.15,0-.24.06-.28.25a14.32,14.32,0,0,1-2.89,3.63,26.94,26.94,0,0,1-11.33,5.47,22.7,22.7,0,0,0-10,5.18c-8.38,7.8-19,7.61-28.09,1.4a60.72,60.72,0,0,1-7.34-6.06,3,3,0,0,1-1-1.5,39.25,39.25,0,0,1-3.38-11.71c-.25-.42-.52-.37-.8,0-1.87,4.32-2.75,8.94-4.09,13.42a16.73,16.73,0,0,1-1.78,4.38c-.76,1.17-1.68,2.15-3.45,1.63a19.51,19.51,0,0,0,2.82-14.8c-.9-.27-.43.62-.73.87-.91,5.93-2.26,11.65-7.66,15.92l-.23-5a13.94,13.94,0,0,0-.69-2.22c-.13-.27-.42.1-.13,0,.09,0,.13,0,.18.13a1.09,1.09,0,0,1-.12,1.21l-.48,9c-4.14-2.41-6.07-5.9-7-10.15-.89-4.07-.62-8.21-.83-12.33-1.16,2.72-.7,5.58-.78,8.39,0,1.11.71,2.32-.5,3.24a12.5,12.5,0,0,1-.92-5.89A20.9,20.9,0,0,0,83,141.45Z"/><path class="cls-4" d="M462.39,334.86c0-2.35,1-4.6.81-7a15,15,0,0,0-7.81-12.55,35.57,35.57,0,0,0-18-4.64,23.9,23.9,0,0,1-6.81,0c-6.57.07-12.84,1.67-19,3.64-.7.35-1.12.11-1.31-.62a2.18,2.18,0,0,1,.63-1.63c4-4.88,7.56-10.11,11.76-14.83a64.8,64.8,0,0,0,7.3-7.79,8.29,8.29,0,0,1,1.71-1.65c-5.87,2.9-12.95,8.43-18.85,14.76a31.08,31.08,0,0,1-3.23,3.16c-.35.28-.78.58-1.23.29s-.4-.78-.34-1.24a5.92,5.92,0,0,1,.28-1.1,16.64,16.64,0,0,0-.52-11.36c-.31,6.05-3.26,9.76-8.93,11.24a34.53,34.53,0,0,1-19.25-.14c-1.31-.49-2.59-1.07-3.95-1.44-3.18-1.16-6.09-3-9.32-4a4,4,0,0,1-.59-.28c-4.28-2.25-8.51-4.6-12.72-7a5.8,5.8,0,0,1-.52-.34,24.18,24.18,0,0,0-5.76-3.34,5.42,5.42,0,0,1-.56-.22c-1.16-.54-2.31-1.17-3.67-.75a4.81,4.81,0,0,1-2.27-.48A28.82,28.82,0,0,0,332,284a36.52,36.52,0,0,1-12.85-4c-4.32-2.41-6.46-5.95-5.71-11a18.54,18.54,0,0,1,18.78-9.18l4.93.77c7,1.34,13.83,3.76,21,4.39,6.76.59,13.52,1.15,20.23,2.26,1,.16,1.93.35,2.87.6,5.1,1,10.09,2.45,15.13,3.7,2.8.89,5.65,1.61,8.49,2.34,8,3.07,16.25,3.24,24.61,2.82,2.19.33,4.27,1.37,6.56,1a48.51,48.51,0,0,1,11.6,2.55,2.51,2.51,0,0,1,1.6,1.15c5.76,2.33,11.34,5,16,9.2,8.18,7.33,10.64,16.25,7.15,26.66A49.48,49.48,0,0,1,462.39,334.86Z"/><path class="cls-5" d="M436,278.31a9.82,9.82,0,0,1-6.23-1.23c-1.6.16-2.73-.8-3.73-1.78-6.72-6.58-10.81-14.39-11.11-24,2.26-8.37-.43-16.09-3.09-23.81-.37-1.2-.73-2.4-1.21-3.56-.75-1.71-1.43-3.47-2.23-5.13-.18.8.12,1.7-.6,2.33a1,1,0,0,1-.66-.07,4.81,4.81,0,0,1-1.23-3.55,44.68,44.68,0,0,1,0-7.93,39.54,39.54,0,0,0-.62-11,11.67,11.67,0,0,0-4-7.43,3.51,3.51,0,0,0-4.36-.44c-3.78,2.06-7.48,4.27-11.26,6.34A1,1,0,0,1,385,197c-.7-.67,0-1.56-.34-2.29.41-7.26,4.38-12.1,10.44-12.72a32,32,0,0,0,5,0c3,.16,5.88,1.05,8.81,1.63a43.86,43.86,0,0,0,7.59.64,57.53,57.53,0,0,0,10.9,0,50.46,50.46,0,0,1,22.42,4.9c8.32,4.14,12.79,11.56,16.24,19.72a51.44,51.44,0,0,1,3.59,28c0,4.86-2.34,8.83-5.1,12.56-3.54,4.79-8.09,8.57-12.8,12.15-3.62,2.74-7.17,5.57-10.7,8.43-2.32,1.88-4.28,4.08-4.51,7.3A1.5,1.5,0,0,1,436,278.31Z"/><path class="cls-6" d="M231.75,229.26c-.88-1.21-.25-2.58-.43-3.87-.13-.84.31-1.79-.47-2.51-2.73-.61-2.73-.61-2.89-3.85a3.64,3.64,0,0,0-.21-1.31,4.33,4.33,0,0,0-3.14-3.2c-7.53-.23-15.05-.06-22.58-.08a3.12,3.12,0,0,0-1.08.27c-2,.72-2.7,2.2-2.7,4.24,0,1.32.36,2.74-.61,3.93-3.41,0-4.53-1.18-4.53-4.73q0-37.62,0-75.24c0-2.82,1.42-4.35,4.2-4.63.22,0,.45,0,.68,0l102.51,0a4.23,4.23,0,0,1,1.94,3.38c0,26,.09,52,0,77.94a3.52,3.52,0,0,1-2.44,3.15c-1.76.17-2.47-.69-2.42-2.39a6.63,6.63,0,0,0-.19-2.47,4.4,4.4,0,0,0-3.17-3.36c-7.85-.23-15.7-.21-23.54,0a10.24,10.24,0,0,1-1.74.41c-.55.2-.88-.78-1.36-.38-.76.66.17,1.38.1,2.08a3.42,3.42,0,0,1-.07,1c-.39,1.62-.08,3.27-.16,4.91a1.18,1.18,0,0,1-.49.59c-1.15.51-2.39.25-3.58.35-9,.13-18,0-27,.06-4,0-4,.12-3.95,3.62a3.38,3.38,0,0,1-.39,1.75Z"/><path class="cls-7" d="M228.12,312.06c-5.18.42-10.35.95-15.54,1.23-3.85.2-7.72.13-11.58.07-3.45-.05-6.48,1.19-9.46,2.73-4.08,2.12-7.45,5.48-12,6.78-8.69,2.49-17.53,2.66-26.48,2.08-5.12-.34-10.21-.8-15.29-1.5a141.91,141.91,0,0,1-34.34-8.69,6,6,0,0,1-.82-.37c-6.89-3.9-13.9-1.82-20.85-.33-7.91,1.7-15.44,4.68-23.13,7.13-1.76.56-2,.06-2.08-1.56,0-1.93.47-3.92-.39-5.8-.26-9.69.18-19.37.56-29,.43-11.22,1.16-22.43,2.49-33.61,1-8.23,1.92-16.46,3.5-24.6,2.05-10.51,6.29-20.17,11.56-29.4a118.94,118.94,0,0,1,18.26-24.46c2.09-2.14,4.7-3.8,5.93-6.7.51-.09.69.26.87.63a5.57,5.57,0,0,1-.14,3.47,1.86,1.86,0,0,1-.59.68C91,175.28,86.79,182.61,82.69,190c-9.71,17.44-16,36.16-20,55.65a166.77,166.77,0,0,0-2.83,23,142.53,142.53,0,0,0-.32,14.31c.27,7.79.9,15.57,1.84,23.31a4.42,4.42,0,0,0,1.89,3,17.62,17.62,0,0,0,23.53-2.12,4.22,4.22,0,0,0,1-4.39A29.59,29.59,0,0,0,86,298.53c-3.24-6.68-6.69-13.28-8.8-20.44-.36-1.23-1.08-2.55.31-4.17,1.91,3.76,3.35,7.47,5,11.08s3.51,7,4.41,10.09c-1.17-2.76-1.61-6.47-2.49-10.06-1.73-7.07-3.61-14.09-5.28-21.18-2.41-10.3-4-20.68-3.6-31.29.06-1.61,0-1.62,1.15-2.87,1.18,7.86,1.21,15.86,2.71,23.69s3.5,15.67,5.73,23.25c0-15.84-.66-31.86,2.21-47.71.19-1,.23-2.13,1.09-2.92.93,0,.92.77,1.09,1.38-.48,6.57-.43,13.15-.41,19.73A160.42,160.42,0,0,0,96.73,294a99.63,99.63,0,0,0,4.81,13.23,9.07,9.07,0,0,0,5.61,5.2c6.58,2.17,13.38,3.21,20.17,4.36,10.31,1.74,20.7,2.77,31.1,3.63a59.83,59.83,0,0,0,9.08,0,13.89,13.89,0,0,0,7.09-2.83,56.93,56.93,0,0,0,9.07-7.84.8.8,0,0,1,1,.21,1.31,1.31,0,0,0,1.73.63A49.89,49.89,0,0,1,199.62,309c2.51-.06,3.84-1.38,5-3.26.58-.93.84-2.17,2.12-2.54,6.18.7,12.09,2.5,18,4.31,2.16.66,4.31,1.39,6.44,2.15a4.68,4.68,0,0,1,2.48,1.48.65.65,0,0,1-.23.69C231.69,312.23,229.94,313,228.12,312.06Z"/><path class="cls-2" d="M408.69,218.36a30.44,30.44,0,0,1,2.33,5.41,4.67,4.67,0,0,1-.06,3.11c-1.87,6-4.17,11.84-8.12,16.88a8.58,8.58,0,0,1-5.69,3.38c-5.83.91-11.73,1.3-17.57,2.2s-11.51,1.86-16.76,4.62c-1.79-.82-1.53-2.39-1.36-3.88a5.16,5.16,0,0,1,1-2.29,5.84,5.84,0,0,0,1-5.56,1.78,1.78,0,0,1,.36-2.1c2.82,1.16,5.69-.32,7.28-3.77-.78-1.87-2.4-2.29-4.18-2.45-1-.09-1.93.38-2.87-.14a1.94,1.94,0,0,1-.28-1.31,5.11,5.11,0,0,1,1.13-2.84c.7-1.23,1.9-1.35,3.14-1.4.76,0,1.62,0,2-.81s-.34-1.56-.88-2.16a12.48,12.48,0,0,0-4.25-3c-.74-.34-1.62-.46-2.09-1.26,3.28-2,7-2.94,10.47-4.58,1.68-.79,3.12-1.72,3.62-3.63.42.12.8.34,1.22.46a8.84,8.84,0,0,0,4.89-.09c1.69-.33,3.42-.35,5.1-.72a19.43,19.43,0,0,0,4.4-6.82c1-3,.89-3.43-1.89-5a5,5,0,0,0-1.52-.83,7.14,7.14,0,0,1-.81-.31l-.77-.41a2,2,0,0,0-2,.15,2.37,2.37,0,0,1-.53.31,18.24,18.24,0,0,1-1.79.5,1.37,1.37,0,0,1-1.2-.32c.35-1.18,1.57-1.49,2.3-2.29a.85.85,0,0,1,.83-.45c3.93-2.68,8.18-4.84,12.28-7.23a2.75,2.75,0,0,1,3,0c3.54,1.88,4.92,5.17,5.68,8.81,1.11,5.31.68,10.68.45,16a15.28,15.28,0,0,0,.95,6.43,3.85,3.85,0,0,1,.66,2.13c.19.57.41,1.13.43,1.3-.08-.21-.26-.86-.42-1.51a3.74,3.74,0,0,1,0-2.07C408.33,220.08,407.43,218.94,408.69,218.36Z"/><path class="cls-6" d="M201.69,256.56c9.08,0,18.16-.08,27.24,0,2.14,0,2.9-.58,2.87-2.81-.12-8.17-.05-16.34-.05-24.51l0,0c.75-1.36,2.11-1.6,3.45-1.88a32,32,0,0,1,6.49-.86c6.57,0,12.95,1.05,18.5,5a11.06,11.06,0,0,1,3.85,4.07c.52,5.05.11,10.11.24,15.16,0,1.06,0,2.12,0,3.17,0,1.26.57,2,1.94,1.93s1.58-.95,1.59-2c.06-6,0-12.08,0-18.13,0-.45,0-.9,0-1.36.19-3.56-.13-7.13.18-10.69a2,2,0,0,1,.39-.79,2.6,2.6,0,0,1,1.66-.53c8.47,0,17,0,25.42,0a5.47,5.47,0,0,1,1.61.2,1.25,1.25,0,0,1,.6.49c-.72.63-1.59.38-2.4.38-7.95,0-15.9.06-23.86,0-1.78,0-2.52.33-2.5,2.33q.15,14.33,0,28.64c0,1.79.49,2.32,2.3,2.3,10.15-.08,20.3,0,30.45-.08,2.12,0,2.9.46,2.81,2.72-.17,4.69-.06,9.39,0,14.09,0,.79-.32,1.69.44,2.35a2.25,2.25,0,0,1,.76,1.49c-.06,1.07-.49,1.8-1.7,1.78-.75-.62-.65-1.47-.62-2.31.09-5.52,0-11,0-16.55,0-1.93-.25-2.05-1.91-1.14-8.6,4.74-17.19,9.5-25.72,14.37-1.87,1.07-3.61,1.72-5.77.94a7.58,7.58,0,0,0-4,0,5.85,5.85,0,0,1-2.91,0c-1.15-.7-2.28-1.41-1.79-3.06,1.66-1.87,4-2.64,6.11-3.84,3.72-2.14,7.45-4.27,11.52-6.47H206.68a10.06,10.06,0,0,1-3.82-.33A3.44,3.44,0,0,1,201.69,256.56Z"/><path class="cls-2" d="M113.6,151.37c2.79,2.3,5.31,4.93,8.37,6.92,5.6,3.61,11.48,5.77,18.26,4.08a19.3,19.3,0,0,0,8.5-4.6A25.73,25.73,0,0,1,160,151.72a30.18,30.18,0,0,0,11.2-5.3c.47-.12.63.06.52.52a35.88,35.88,0,0,1-6,5.39c2,.06,3.2-1,4.46-1.86a33.24,33.24,0,0,0,7.81-8.15c1.95-2.68,3.84-5.42,5.75-8.14.43-1.23.95-2.34,2.56-2.18-.16,2.95-.27,5.9-.49,8.84a8.43,8.43,0,0,1-2.63,5.85,20,20,0,0,0-3.81,3.88c.19.71-.33,1.29-.35,2l-.09.79a24.55,24.55,0,0,0-.23,4.45,10.78,10.78,0,0,1-2.42,7.3c-1.1.14-1.32,1.16-1.79,1.88a109.45,109.45,0,0,1-11.34,15.25,7.48,7.48,0,0,1-7.82,2.2,33.57,33.57,0,0,1-5.81-1.85,2.37,2.37,0,0,0-3.13.72c-1.5,1.59-3.12,3.07-4.69,4.6-1,.2-1.25-.64-1.66-1.23-2-2.87-3.76-5.84-5.88-8.61a86.3,86.3,0,0,0-7.33-9.49A59,59,0,0,0,113,156.18c-.66-.43-1.5-.91-1-2A8.2,8.2,0,0,0,113.6,151.37Z"/><path class="cls-6" d="M112.07,154.2c0,.93.73,1.21,1.38,1.61a54.64,54.64,0,0,1,13.69,12.44c2.64,3.39,5.07,6.94,7.6,10.41A184.63,184.63,0,0,1,149.5,205.4c.34.75.88,1.45.54,2.35-1.33.58-1.65-.62-2.22-1.3a80.15,80.15,0,0,0-20.08-17.72c-5.67-3.86-11.76-7-17.63-10.57A103.81,103.81,0,0,1,99.44,171a1.34,1.34,0,0,1-.5-.84v-3.64c.11-1.21,1.3-1.95,1.36-3.18,2-3.15,4.72-5.67,7.17-8.43C109,153.18,110.6,154.7,112.07,154.2Z"/><path class="cls-2" d="M201.69,256.56l1.06,3.61a6,6,0,0,1,1.48,3.69c.25,1.78,1.1,2.64,3,2.56,1.15-.05,2.49-.15,2.93,1.42a1,1,0,0,1-.58.86,8.22,8.22,0,0,1-2.79.29c-1.37.76-1.44,1.51-.23,2.3.58.38,1.82.07,1.5,1.41-2.27,1.53-5,2-7.46,2.95a18.48,18.48,0,0,1-12.38-1.08,68.53,68.53,0,0,0-6.93-2.13c-2.17-.7-4.33-.34-6.49-.09a4.14,4.14,0,0,1-2.44-.06c-1.21-1.71.66-2.87.76-4.34a42.62,42.62,0,0,0,2.3-6.78c.35-1.36.67-2.73,2.25-3.24h0c.31-.52.65-1,1.36-.85,2.84-1.34,6-1.39,9-1.8a85.4,85.4,0,0,1,10.11-.68A3.42,3.42,0,0,1,201.69,256.56Z"/><path class="cls-6" d="M436,278.31c-.61-2.42.52-4.27,2-6a52.22,52.22,0,0,1,7.65-6.75c3.39-2.67,6.82-5.28,10.16-8,6.71-5.48,12-11.92,13.83-20.68l5.12.11a4.82,4.82,0,0,1,2.76,1,5.4,5.4,0,0,1-3.5.31c-1.28-.27-1.72.39-1.91,1.32-1.7,8.22-5.8,15.33-10.22,22.29-4.17,6.55-8.42,13.06-12.63,19.59A65.45,65.45,0,0,0,436,278.31Z"/><path class="cls-8" d="M197.64,222.88c0-1.35.08-2.71,0-4a4.15,4.15,0,0,1,2.75-4.62,45,45,0,0,1,7.87-.17c5.71,0,11.42-.26,17.13.16,1.66.45,2.37,1.73,2.8,3.25a16.55,16.55,0,0,1,0,5.44H226.3c-.62-.42-1.32-.22-2-.23-8.47-.05-16.93.07-25.39-.06a1.08,1.08,0,0,0-.83.27Z"/><path class="cls-9" d="M301.82,141c.11-1.17-1.45-1.51-1.32-2.69,3.8.12,5,1.3,5,5.1v73.19c0,5.58,0,5.58-5.32,6.62-.44-.21-.39-.47-.08-.76a4.25,4.25,0,0,0,1.77-2.27,6.06,6.06,0,0,0,.45-1.56q0-35.87,0-71.72c0-1.06,0-2.12,0-3.17C301.85,142.85,302.32,141.85,301.82,141Z"/><path class="cls-6" d="M305.47,277c-.54-.33-.45-.87-.47-1.37,7.39-9.71,15.38-18.92,23.1-28.35,3.19-3.9,6.28-7.89,9.55-11.72a16.89,16.89,0,0,1,13-6.3c3.84-.05,7.69-.35,11.53.36.79.15,2.06.64,2.41-.87.73,0,.75.39.45.91-.3.92-.61,1.84-.91,2.76a3.5,3.5,0,0,1-2.59.58c-3.19,0-6.37-.05-9.55,0a16.58,16.58,0,0,0-11.88,4.88c-4.89,4.88-9.07,10.37-13.55,15.61a47.39,47.39,0,0,0-3.37,4c-5.48,5.91-10.5,12.2-15.81,18.25C306.88,276.37,306.54,277.27,305.47,277Z"/><path class="cls-7" d="M177.65,257.93c-1,.85-1.29,2.1-1.8,3.23a1.88,1.88,0,0,1-.44-2.09c.7-2.75-.11-5.24-1.23-7.68a178.77,178.77,0,0,0-10.44-18.82c-4.41-7.14-8.64-14.38-12.85-21.63-.28-1-1-1.93-1-3.07a153.82,153.82,0,0,0-10.12-20c-1.83-3-3.58-6.1-5.37-9.15a.68.68,0,0,1,0-1c2.52,2.57,4.1,5.81,6.12,8.74.34.49.55,1.06,1.13,1.34.65,2.29,2.17,4.13,3.34,6.13,3.67,6.26,6.06,13.14,9.8,19.38,5.33,8.86,11.08,17.47,16,26.58,2.95,5.5,6.17,10.92,6.21,17.47C177,257.81,177.35,257.86,177.65,257.93Z"/><path class="cls-10" d="M390.47,200.13c3.8,1.85,3.75,1.83,2.4,6-.86,2.64-2.82,4.56-4.23,6.83a1,1,0,0,1-1.18-.24,15.21,15.21,0,0,0-2.19-2.85c-1-.84-2-1.8-3.41-1.09a3,3,0,0,0-1.67,3.37c-.53,1.28-2,.86-2.85,1.63-.48-.15-.44-.58-.52-.94,1.09-3.83,1.63-7.84,3.74-11.34a5.68,5.68,0,0,1,1.82-1.23,11,11,0,0,0,1.25-.46c1.6-.42,3.17-1.1,4.85-.33A16,16,0,0,1,390.47,200.13Z"/><path class="cls-11" d="M186.28,132c-1.14.39-1.62,1.56-2.56,2.18-1.81,1-3.24,2.65-5.2,3.51-.36-.73.81-.84.49-1.64-1.22.71-2.21,1.8-4.2,2.16l2.81-2.23c.78-1.48,2.44-2.1,3.33-3.46a4.7,4.7,0,0,1,1.53-1.51c1.72-1,2.49-2.87,3.7-4.33.47-.56.68-1.32,1.44-1.62,1.08-1.66,1.06-3.73,2.12-5.61.47,3.78.13,7.17-2.22,10.17-.36.47-1.28.94-.73,1.86Z"/><path class="cls-10" d="M365.06,229.68l-.45-.91c-.8-1.77-1.64-3.52-2.38-5.32-.35-.85-.91-1.88.5-2.42a13.34,13.34,0,0,1,7.1,4.14,2.43,2.43,0,0,1,.69,2.66c-.43,1.1-1.41,1-2.31.95A4.15,4.15,0,0,0,365.06,229.68Z"/><path class="cls-12" d="M176.26,165.07c1.77-3.72,1.82-7.82,2.65-11.75a20.69,20.69,0,0,0,1.65,8.31c1,2.07.42,3-1.84,3.39A18.3,18.3,0,0,1,176.26,165.07Z"/><path class="cls-13" d="M198.1,222.86c.07-.34-.13-1,.36-.91,8.4,1.13,16.84.13,25.26.49.87,0,1.83-.35,2.58.44Z"/><path class="cls-14" d="M427.37,184.23a28.16,28.16,0,0,1-10.9,0A62,62,0,0,1,427.37,184.23Z"/><path class="cls-15" d="M228.14,222.89c0-1.81,0-3.63,0-5.44.63.62.38,1.42.38,2.15,0,1.43-.42,3.15,2.07,2.68a5,5,0,0,1,.22.6Z"/><path class="cls-16" d="M179,152.53c-.84-.83,0-1.35.35-2l2.66.59A6.24,6.24,0,0,1,179,152.53Z"/><path class="cls-15" d="M300.06,222.45c0,.25.05.51.08.76l-2.36-.27-.08-.09a5.09,5.09,0,0,1,.06-5.43c.78.93.42,2.05.38,3.06C298.08,221.93,298.55,222.64,300.06,222.45Z"/><path class="cls-17" d="M400.07,182a6.32,6.32,0,0,1-5,0A9.7,9.7,0,0,1,400.07,182Z"/><path class="cls-18" d="M83,141.45a8.52,8.52,0,0,1,0,5.91A15.87,15.87,0,0,1,83,141.45Z"/><path class="cls-19" d="M84,153.25c.91-1,0-2.21.5-3.24a18.69,18.69,0,0,1,.33,5.47A2.66,2.66,0,0,1,84,153.25Z"/><path class="cls-20" d="M100.31,163.3c.38,1.42-.82,2.16-1.36,3.18l-.47-.46Z"/><path class="cls-21" d="M106.2,118.29a5.53,5.53,0,0,1-4.54,0A10.23,10.23,0,0,1,106.2,118.29Z"/><path class="cls-22" d="M382.36,200.6a2.61,2.61,0,0,1-1.8.88c0-.85.32-1.43,1.29-1.42A.65.65,0,0,1,382.36,200.6Z"/><path class="cls-23" d="M93.54,155.14a1.93,1.93,0,0,1,.14-1.52A2.61,2.61,0,0,1,94.3,156Z"/><path class="cls-7" d="M179,257.08l-1.36.85C177.68,257,177.66,255.94,179,257.08Z"/><path class="cls-24" d="M102.19,145.14c-.08-.56-.34-1.26.27-1.56.45-.22.51.31.46.69Z"/><path class="cls-25" d="M382.36,200.6l-.51-.54a2,2,0,0,1,.08-.35l1.3-.09a.33.33,0,0,1,.13.35c0,.12-.06.18-.1.18Z"/><path class="cls-26" d="M385.06,197c-.16.37-.49.42-.83.45a3.6,3.6,0,0,1,.3-2.35c.65.4,0,1.24.55,1.66A.17.17,0,0,1,385.06,197Z"/><path class="cls-27" d="M385.08,196.73c-.9-.32-.11-1.19-.55-1.66a.49.49,0,0,1,.11-.39C385.34,195.24,385,196,385.08,196.73Z"/><path class="cls-28" d="M109.42,139.64c0-.46.12-1,.55-1s.3.61.25,1Z"/><path class="cls-1" d="M228.12,312.06l5.57-.59a2.23,2.23,0,0,1,2.36,0,125.66,125.66,0,0,1,23.08,12,5.43,5.43,0,0,1,1.95,1.86c.12.82.76,1.26,1.33,1.76a108.41,108.41,0,0,1,12.75,13.23c3.18,3.93,5.13,8.54,6.74,13.31a164.44,164.44,0,0,0,6,16.19,39.55,39.55,0,0,0,11.35,14.53,11,11,0,0,1-3.33,1.82c-1.07.46-1.47-.5-2-1-3.71-3.33-6.51-7.43-9.48-11.38-5.85-9.38-10.58-19.38-16.15-28.91-2.86-4.89-5.88-9.68-10.06-13.63a18.43,18.43,0,0,0-6.33-3.43c-2.18-.85-4.33-1.78-6.49-2.68l-.38,0c-2.49-1.69-5.2-3-7.74-4.56h0c-3.09-1.9-6-4.08-9.13-5.92C226.7,313.85,227.36,313,228.12,312.06Z"/><path class="cls-29" d="M245.34,325.22c8,2.21,14.82,5.82,19.37,13.33q6,10,11.56,20.27c2.45,4.53,4.87,9.06,7.62,13.41a10.2,10.2,0,0,1,.7,1.66.29.29,0,0,1-.5,0c-4.13-6.16-7.5-12.75-11-19.27-3.64-6.8-7.31-13.55-12.06-19.67a20.28,20.28,0,0,0-10.23-7.1A16.82,16.82,0,0,1,245.34,325.22Z"/><path class="cls-30" d="M286.39,391.23l-.49.4A119.5,119.5,0,0,1,275,372.08c-2.28-4.93-4.61-9.84-6.41-15-.19-.48,0-.56.45-.46,4.93,11.28,9.51,22.74,16.44,33C285.82,390.16,286.09,390.7,286.39,391.23Z"/><path class="cls-29" d="M284.1,392.5l-.53.44c-4.18-6.57-8.34-13.16-11.33-20.4.15-.18.3-.17.45,0,3.35,6.39,6.91,12.67,10.84,18.74A12,12,0,0,1,284.1,392.5Z"/><path class="cls-31" d="M284.09,373.91l.5,0c2.43,2.09,3.63,5.14,5.89,7.37,1.74,1.73,3.07,3.91,5.41,5l-1.35.79c-1.31-2.69-3.92-4.26-5.67-6.61C287.25,378.28,285.57,376.17,284.09,373.91Z"/><path class="cls-32" d="M228.09,314.77a38.14,38.14,0,0,1,9.13,5.92A40,40,0,0,1,228.09,314.77Z"/><path class="cls-33" d="M269,356.64l-.45.46a48.47,48.47,0,0,1-3.63-8.21c.15-.18.3-.18.45,0Z"/><path class="cls-32" d="M237.22,320.68c2.73,1.26,5.61,2.26,7.74,4.56A26.86,26.86,0,0,1,237.22,320.68Z"/><path class="cls-34" d="M272.69,372.56l-.45,0a5.09,5.09,0,0,1-1.31-3.41C271.51,370.28,272.1,371.42,272.69,372.56Z"/><path class="cls-35" d="M265.41,348.9H265a5.68,5.68,0,0,1-1.37-2.73A7.12,7.12,0,0,1,265.41,348.9Z"/><path class="cls-4" d="M409.61,315.16a9.65,9.65,0,0,0-3.21,2.43c-9.77,10.24-19.29,20.72-30.11,29.89-4.06,3.44-7.34,7.65-10.6,11.81a26.16,26.16,0,0,1-18.38,10.45c-1-.69-1.07-1.79-1.25-2.83a239.56,239.56,0,0,0-5.75-24.55,161,161,0,0,0-8.9-24.76,14.31,14.31,0,0,0-1.86-4.54c1.15,1.27,1.2,3.79,2.47,5.76,2.75,6.48,4,13.32,5,20.21,1.51,9.52,1.91,19.12,2.65,28.7.1,1.26.33,2.63-1,3.47-.47.31-.94.45-1.4,0-2.16-1.92-2.41-4.67-2.73-7.21q-1-8.09-2.14-16.14c-2-12.86-5.09-25.44-11-37.13a58.85,58.85,0,0,0-33-29.66c-1.24-.45-2.71-.6-3.51-1.9.14-.59.62-.73,1.12-.85a14.66,14.66,0,0,1,6.38,1.12A20.11,20.11,0,0,0,301,280.5a31.77,31.77,0,0,1,3.38,0,13.33,13.33,0,0,1,2.57.6c.26.15,0-.11.2.09,6.46,5.52,14.29,6.06,22.24,6.1A75.78,75.78,0,0,1,344,288.43c5.45,1.08,9.57,4.34,13.61,7.82,6.25,5.38,12.36,11,20,14.37,6.86,3,14,5,21.58,4.06a26.42,26.42,0,0,1,2.95-.08,16.11,16.11,0,0,0,5.4-.45,3.73,3.73,0,0,1,.67-.09C408.9,314.2,409.64,314.21,409.61,315.16Z"/><path class="cls-36" d="M332.81,347.43a105.35,105.35,0,0,1,2.05,14.12,34.52,34.52,0,0,0,2.4,9.64c-3.14,1.42-6.61,1.54-9.89,2.09a55.94,55.94,0,0,0-15.86,4.88c-2.82,1.41-5.63,2.83-8.41,4.31a1.15,1.15,0,0,1-1.23.08c-1.12.34-1.61-.6-2.24-1.17-6.08-5.47-10.21-12.3-13.57-19.65s-6.39-15.19-11.35-21.88a2,2,0,0,1-.42-1.49c.71-1.14,1.4-.49,2,.06,5.42,4.84,10,10.28,13.05,17s8.14,11,14.93,13.41a18.16,18.16,0,0,0,19.14-4.8c4.15-4.4,6.25-9.76,7.82-15.42C331.46,347.79,331.36,346.54,332.81,347.43Z"/><path class="cls-37" d="M338.66,371.2a5,5,0,0,0,.43-3.32c-.95-9.18-1.14-18.42-2.58-27.59a116.74,116.74,0,0,0-5.12-21.88c-.2-.57-.64-1.22.45-1.36a209.76,209.76,0,0,1,12.85,40.34c.92,4.11,1.59,8.27,2.62,12.35A42.28,42.28,0,0,1,338.66,371.2Z"/><path class="cls-38" d="M274.49,338.47c5.12,7.27,8.7,15.34,12.31,23.41s8.1,15.2,15.07,20.67c-.37,1.35-1.68,1.38-2.65,1.89-2.65-.33-3.8-2.61-5.34-4.27-6.21-6.73-8.88-15.25-11.64-23.7-2.39-7.34-5.5-14.17-11.13-19.81-3.35-3.36-6.61-6.78-10.2-9.87-.4-.35-.53-.73,0-1.1.67-.27,1.18.13,1.64.48,4.09,3.09,8,6.31,11.11,10.47A5.55,5.55,0,0,1,274.49,338.47Z"/><path class="cls-39" d="M430.57,310.71a39.71,39.71,0,0,1,6.81,0A11.15,11.15,0,0,1,430.57,310.71Z"/><path class="cls-40" d="M409.61,315.16l-1.34-.84c.32-1.38,1.31-1.14,2.27-.93,0,.65.4.91,1,1Z"/><path class="cls-41" d="M111.09,119.15a8.24,8.24,0,0,1,10.19.87,8.71,8.71,0,0,1,1.91,10,8.57,8.57,0,0,1-9,4.74c-.5-.09-1.2,0-1.42-.5-.29-.69.46-1,.82-1.47,1.19-1.44,3-2.32,3.63-4.28,1.3-4.23.81-6.45-3-7.94C113.18,120.19,112.21,119.67,111.09,119.15Z"/><path class="cls-42" d="M120.76,105a7.44,7.44,0,0,1,2-2.69c.26-.25.78-.68.84-.63,2.11,1.79,3.2-.9,5.17-1.12l-2.8,3.18.2.25,4.12-3.08c.48-.16.57.06.46.47a37.83,37.83,0,0,0-4.55,4.41c.77.92,1.82-.53,2.37.77A10.26,10.26,0,0,0,123.2,111l7.52-4.5c-1.11,1.56-1.6,3.65-3.91,4,1.36.42,2.36-.76,3.6-.35-.86,1.34-2.56,1.48-3.43,2.8l2.32-.93c-1.56,2.78-4.05,3.43-5.93,1.75-.05,0,0-.16-.09-.19-2-1-2-1-2.41-2.76-1,.32-.09,4.15-2.77,1.43l-.12,1.91c-.77-.23-.74-.86-.86-1.4-1.08-.89-1.09-2.1-1-3.34,0-1.8.05-3.62,2.11-4.48C119.09,104.57,119.88,106.22,120.76,105Z"/><path class="cls-42" d="M174.44,111.88c.21-1.07.41-2.14.61-3.21l.32,0v2.63h.39v-4.45l.39,0c.19,1.24.41,2.47.56,3.71.08.6,0,1.44.69,1.5,1,.1.64-1,.85-1.54.39-1-.51-2-.08-3.07,3.67,6,1,13.29-5.09,19.44-.43.12-.58,0-.47-.47a17.83,17.83,0,0,0,3.46-8.48,31.69,31.69,0,0,0-5.73,3.54c-.24-.85.64-1.06.63-1.62-.54-.44-1.1.58-1.63,0l1-1.14c.68-1.72,2.53-2.75,2.76-4.72C173.41,113.19,173.51,112.28,174.44,111.88Z"/><path class="cls-42" d="M174.44,111.88c-.3.76-.6,1.52-.91,2.27-.88,1.67-1.58,3.48-3.64,4.09l-.9.47c-.61.42-1.22-.45-1.83,0-.35.07-.8.32-1,.19s0-.52.23-.68c3.3-2.1,3.36-5.62,3.9-8.95-1.71,2.28-1.16,6.43-5.86,6.82,2-1.77,3.73-3.14,4-5.87l-5,2.8-.12-.22,2.09-2.27c.33-1.08,1.35-1.69,1.85-2.66a5.48,5.48,0,0,1,.35-.49c.79-.76,1.18-1.92,2.32-2.33a15.92,15.92,0,0,0,1.26-3.77c1.35,3.37-1.33,6.82.42,10,1.25-1.58,1.54-3.61,1.56-6.39C173.93,107.64,173.63,109.87,174.44,111.88Z"/><path class="cls-42" d="M182.59,131.45l-1.3,1.35a29.29,29.29,0,0,1-3.67,2.69l-1.35.52c-.48.16-.56,0-.45-.46,4.28-2.88,7.89-6.31,9.55-11.39.48-.69,0-1.59.49-2.29-.23.27-.22.66-.5.9-1.38,2-2.56,4-4.67,5.4-1.43.91-1.37,1-3.3.22,1.56-1.34,3.32-2.41,4.34-4.22A48.69,48.69,0,0,0,184,113.65c1.46,1.93.62,4,1,6.28-.19-2.36.27-4.46-.33-6.5-.13-.46,0-1,.5-1.1s.87.49,1.16.92c2,3.5,1.76,7.17.92,10.91C186.6,127.19,184.62,129.33,182.59,131.45Z"/><path class="cls-43" d="M127.13,120.52c2.58,2,5.15.48,7.73,0,.51-.28.91-.33.89.45-2.36,1-4.62,2.42-7.39,1.63,3.38,2.27,6,.36,8.71-1.48,0,2.63-5.13,6.06-7.32,7,.33,1,1.6.77,2.14,1.81a9.43,9.43,0,0,1-2.54-.38c-1.33-.64-2.85-1-2-3.41.37-1-.22-3.25-2.22-4.41,2,.29,1.77-.3,1-1.14A.65.65,0,0,1,127.13,120.52Z"/><path class="cls-44" d="M186.26,113.25c-.42-.1-.7-.78-1.15-.5s-.14.81-.05,1.24c.42,1.89.59,3.78-.6,5.6v-5.44c-.53,3.49-.3,7.08-2.73,10l-.44-.45c.36-2.33,1.59-4.47,1.52-6.91,0-.73.25-1.48-.17-2.18,0-.37,0-.75,0-1.12.05-1.44,1.29-1.93,2.25-2.12C186.06,111.15,186,112.45,186.26,113.25Z"/><path class="cls-45" d="M182.64,114.63a9.88,9.88,0,0,1-1.35,9.09,7.59,7.59,0,0,1-3.82,3A17,17,0,0,0,182.64,114.63Z"/><path class="cls-46" d="M118.49,105.05c-1.21,1.1-2.14,2.32-1.82,4.1-.73,1.14-.3,2.43-.46,3.64l.29,2.16c-2-1.72-1.63-3.82-1.65-5.8.46-.36,0-1,.45-1.38.23-1.43.7-2.69,2.26-3.18.21-.29.49-.6.84-.42S118.76,104.73,118.49,105.05Z"/><path class="cls-47" d="M115.3,107.77c0,.51.09,1-.45,1.38,0-.08,0-.17,0-.22a2.47,2.47,0,0,0-.28-.28l-.73,1.82c0-3.64,0-7.27,4-10.1a46.94,46.94,0,0,0-2,4.31C115.42,105.65,114.36,106.59,115.3,107.77Z"/><path class="cls-48" d="M181.48,112.37c.58,3.87.4,7.5-3.19,10.08A41.08,41.08,0,0,0,181.48,112.37Z"/><path class="cls-49" d="M164.41,108.25c-.31-.22-1.7.46-.71-.83.49-.64,1.52-.71,1.79-1.63-.53-.49-1.12.59-1.67-.11,1-1,2.05-1.91,3.09-2.85.28-.25.67-.59.94-.17.13.2-.15.68-.24,1-.52,1.1.19,2.56-1,3.48C166,107.78,165.62,108.88,164.41,108.25Z"/><path class="cls-47" d="M125.55,127.26c2.25,2.6,4.78,4.7,8.6,4.73C131.34,134,127.21,131.72,125.55,127.26Z"/><path class="cls-50" d="M127.13,120.52h-.94c-.4-.17-1.34-.38-.18-.72a12.47,12.47,0,0,1,3.13-.2c1.92,0,3.58-.89,5.58-1.81a3.46,3.46,0,0,1-3.38,2.71C129.94,120.58,128.53,120.52,127.13,120.52Z"/><path class="cls-48" d="M127.58,116.89a1.36,1.36,0,0,1,.45,0c.67.25,1.7-.62,2,.68.12.45.26.93-.31,1.15-.83.32-1.7,1.13-2.49-.18-.12-.19-.76-.07-1.19-.1.28-.78,1.34-.75,1.53-1.56Z"/><path class="cls-42" d="M164.41,108.25c1,.09,1.23-.91,1.84-1.38.72,0,1-1.73,2-.5,0,.59-.42,1-.67,1.42h0a4.52,4.52,0,0,1-3.65,2.27c-.28,0-.67.07-.84-.09-.41-.37.17-.39.3-.56C163.74,109,164.08,108.63,164.41,108.25Z"/><path class="cls-51" d="M127.59,116.88h-2.88c1.91-1.72,3.81-1.72,5.8-2.14-.57,1.47-2.09,1.36-2.93,2.15Z"/><path class="cls-52" d="M118.49,105.05c0-.82-.44-.67-.93-.46.39-1.2,1.43-1.57,2.47-2,.56.79-.78,2.07.73,2.49l-.89,1.65C119.18,106.23,119.3,105.21,118.49,105.05Z"/><path class="cls-53" d="M182.59,131.45a37.89,37.89,0,0,0,4.59-7.29.93.93,0,0,0,.44.9C186.32,127.49,185.11,130,182.59,131.45Z"/><path class="cls-54" d="M171.73,146.94l-.52-.52,2.86-3.56c.4-.07.65,0,.43.48A9.69,9.69,0,0,1,171.73,146.94Z"/><path class="cls-55" d="M169.89,118.24c1.62-1,2.45-2.7,3.64-4.09-.24,2.09-1.62,3.39-3.17,4.56Z"/><path class="cls-56" d="M116.21,112.79a2.7,2.7,0,0,1,.46-3.64,9.58,9.58,0,0,0,.45,3.64Z"/><path class="cls-57" d="M168.08,106.42c-.78-.54-1.11.74-1.83.45,1-.81.62-2.24,1.36-3.18.1.49-.24,1.14.25,1.42.21.12.74-.33,1.12-.52C169.36,105.53,169.09,106.16,168.08,106.42Z"/><path class="cls-58" d="M177.62,135.49a8.34,8.34,0,0,1,3.67-2.69,10.51,10.51,0,0,1-3.67,3.18Z"/><path class="cls-59" d="M164,110.05a16.76,16.76,0,0,0,3.65-2.27c-.22,1.36-1.31,2-2.26,2.74C165,110,164.48,110.08,164,110.05Z"/><path class="cls-60" d="M175.82,135.55l.45.46a6.16,6.16,0,0,1-3.47,1.79A8.36,8.36,0,0,1,175.82,135.55Z"/><path class="cls-59" d="M168.08,106.42a2.51,2.51,0,0,0,.9-1.83c.61-.47.49.52.9.45-.7,1-1.1,2.17-2.26,2.75Z"/><path class="cls-61" d="M185.36,122.77c.1-.68-.3-1.53.78-2a5.3,5.3,0,0,1-.77,3.36C185.36,123.7,185.36,123.23,185.36,122.77Z"/><path class="cls-62" d="M172.61,126.43l.47.47c-.35.76-1.06,1-2.08,1.36A3.36,3.36,0,0,1,172.61,126.43Z"/><path class="cls-63" d="M130.77,101.42l-.46-.46a4,4,0,0,1,2.19-1.25A3.61,3.61,0,0,1,130.77,101.42Z"/><path class="cls-64" d="M167.16,118.7c.61-.83,1.22-.23,1.83,0C168.37,119.27,167.76,120.07,167.16,118.7Z"/><path class="cls-65" d="M135.75,121a.93.93,0,0,0-.89-.45c.41-.44,1-1,1.48-.63S136.17,120.7,135.75,121Z"/><path class="cls-66" d="M174.5,143.34l-.43-.48.6-1.21A1.19,1.19,0,0,1,174.5,143.34Z"/><path class="cls-67" d="M322.73,257.45c1.51-2.73,3.8-4.86,5.79-7.2,3.75-4.42,7.29-9,11.5-13.07a16.66,16.66,0,0,1,11.42-4.72c4.23-.14,8.47,0,12.71,0l.06,1.35a7.43,7.43,0,0,1,2,3.22,9.93,9.93,0,0,1-2.15,3.09,1.16,1.16,0,0,0-.28,1.27c1.39,2.83.27,5.15-1.27,7.53a3.9,3.9,0,0,0,.31,4.83,1,1,0,0,1,.66.05c5.21,3.38,11.18,5,16.88,7.16,2.4.93,3.62,5.12,2.15,7.29a.76.76,0,0,1-1,.22c-8-1.46-16.19-2.09-24.32-2.89-7-.68-13.59-2.83-20.34-4.49a30.09,30.09,0,0,0-7.63-3c.52.25,1.16-.12,1.65.35a.42.42,0,0,1-.17.58,2.7,2.7,0,0,1-2.41.28,3.63,3.63,0,0,0-2.8.11c-1,.42-1,.23-1.4-1.19-.05-.19-.45,0-.68-.14A1.41,1.41,0,0,1,322.73,257.45Z"/><path class="cls-37" d="M410.54,313.39c-.64.58-1.68.21-2.27.93h0c-1.91.73-4,.52-5.92.92a47,47,0,0,1-15-.68c-8.55-1.9-15.94-6-22.69-11.5-5.14-4.16-9.66-9.13-15.61-12.25a25,25,0,0,0-8.59-2.42c-6.75-.86-13.57,0-20.32-.92a24.32,24.32,0,0,1-13.4-5.93,2.34,2.34,0,0,1-.07-2.38,28.18,28.18,0,0,1,6.12-9.46,1.42,1.42,0,0,1,1-.44c-.09,3.48.5,6.65,3.55,8.92a23.88,23.88,0,0,0,7.9,3.77,27.9,27.9,0,0,0,6.59,1.44c2.84.81,5.83,1,8.66,1.82l2.27.46a16.31,16.31,0,0,1,3.64.91h0a54.72,54.72,0,0,1,6.36,3.64h0a130.3,130.3,0,0,0,13.2,7.28h0c3.22,1.49,6.43,3,9.72,4.31A18.85,18.85,0,0,1,379,303a34.66,34.66,0,0,0,11.83,1.55,27,27,0,0,0,8.39-1.58c5.92-1.71,8-6.12,8.33-11.85,2.71,4.73,2.62,9.59.91,14.72,7.6-7.36,14.87-15,24.7-19.34l.4.45-3.41,2.82c-2.33,2.67-4.92,5.1-7.28,7.74Z"/><path class="cls-10" d="M381.5,268.45a4.45,4.45,0,0,0-1.64-7.05c-4.23-1.64-8.59-2.9-12.7-4.86a13.24,13.24,0,0,1-4.34-2.81c3-2.68,6.9-3.22,10.63-4a173.47,173.47,0,0,1,21-2.77c4.09-.31,7.21-1.87,9.42-5.55A55,55,0,0,0,411,223.77a11.5,11.5,0,0,1,1.27,3.2c-5.5,13.94-11,27.86-14.39,42.53-.23,1-.36,2.14-1.54,2.62Z"/><path class="cls-2" d="M396.36,272.12c1.76-4.51,2.5-9.31,4-13.91,1.83-5.76,3.51-11.55,5.87-17.12,1.74-4.1,3.21-8.3,4.79-12.46.27-.69.35-1.52,1.31-1.66a73.36,73.36,0,0,1,4.09,15.21c.51,3.2-.29,6.27-.87,9.37a9,9,0,0,1-1.93,4.22c-3.92,5.2-7.44,10.61-9,17.07-.15.64.44,1.07.05,1.58A67.39,67.39,0,0,1,396.36,272.12Z"/><path class="cls-36" d="M404.62,274.42c-1.23-2.33.24-4.38.94-6.35,1.8-5.07,5.05-9.36,8.28-13.61.71-.93,1-2,1.67-2.91.36,8.94,4.11,16.35,10.24,22.68a11.14,11.14,0,0,0,4,2.85c-.24.15-.48.43-.73.43C420.75,277.73,412.47,277.75,404.62,274.42Z"/><path class="cls-68" d="M313.79,269.25c-3.05,3.69-6.34,7.25-7.06,12.28l-2.19-.5a11.73,11.73,0,0,0-2.9-.16c-.46,0-.95-.07-.62-.76a22.86,22.86,0,0,1,3.07-1.28,2.22,2.22,0,0,0,1.38-1.81c3.24-3.34,6.08-7,9.14-10.53,2.67-3,5.09-6.32,8.12-9,.53.39,2.07-.28,1.45,1.36,0,0,.51.32.57.26,1.78-1.72,3.8.29,5.72-.39-.48-.62-1.27,0-1.73-.49-.13-.91,6.14.54,7.14,1.66.35.38.64.81,1,1.22l-6.29-.83c-5.27-.7-9.43,1.51-13.11,5A22.49,22.49,0,0,0,313.79,269.25Z"/><path class="cls-69" d="M399.18,303c-1.69,1.54-3.95,1.47-5.94,1.65-4.92.45-9.88.46-14.55-1.65.15-.19.31-.18.47,0,2.93.11,5.69,1.29,8.64,1.39C391.68,304.45,395.41,303.57,399.18,303Z"/><path class="cls-70" d="M366,297.49c-3.48-.65-6.15-3-9.19-4.52-1.42-.72-3-1.35-4-2.76A120.1,120.1,0,0,1,366,297.49Z"/><path class="cls-70" d="M375.51,302c-3.2-1.47-6.75-2.22-9.55-4.54,3.49.65,6.41,2.63,9.55,4.09.16.1.22.2.16.3S375.57,302,375.51,302Z"/><path class="cls-71" d="M422.83,297.49a39.58,39.58,0,0,1,7.28-7.74A30.29,30.29,0,0,1,422.83,297.49Z"/><path class="cls-72" d="M340.49,285.2a26.23,26.23,0,0,1-8.66-1.82C334.76,283.78,337.8,283.65,340.49,285.2Z"/><path class="cls-70" d="M352.76,290.21c-2.46-.61-4.26-2.38-6.36-3.64A12.14,12.14,0,0,1,352.76,290.21Z"/><path class="cls-73" d="M346.4,286.57a5.18,5.18,0,0,1-3.64-.91C344.26,284.82,345.29,285.83,346.4,286.57Z"/><path class="cls-74" d="M375.51,302v-.45a5.85,5.85,0,0,1,3.65,1.36h-.47C377.5,303.12,376.64,302.1,375.51,302Z"/><path class="cls-75" d="M441.91,194.24a29.52,29.52,0,0,0-5.89-5.49c-.1-.41,0-.63.46-.46,10.38,6.39,15,15.73,13.48,26.6a20.43,20.43,0,0,1-.66-3.73c0-.94-1.29-.56-1.09-1.42-.7,0-.16.71-.51.91a.23.23,0,0,1-.2-.08,3,3,0,0,1-.12-.43c-1.08-1.33-.68-3.15-1.53-4.59-.64-1.08-1-2.31-1.74-3.36a31.75,31.75,0,0,1,2.48,5.32c.17.4.21.94-.56.79a27.4,27.4,0,0,0-10.47-11.81,3.22,3.22,0,0,0-.91-.29c.11.28.33.49.45.76a8.45,8.45,0,0,0,2.27,2.27c.12.42,0,.58-.45.46-.86.8.08,1.37.33,1.95a33.75,33.75,0,0,1,2.87,8c.14.54.67,1.21-.44,1.36l-2.31-5.88c-1-.65-1-1.88-1.54-3a22.21,22.21,0,0,1,1.08,3.41c.17.9.33,1.8.49,2.7.27.51.35.92-.45.88a30.06,30.06,0,0,0-7.31-13.6.33.33,0,0,0-.4-.09c-.24.15-.18.35-.06.54,3.29,4.67,3.67,10.1,4.09,15.52,0,.12,0,.35-.11.36-.33.07-.27-.23-.33-.41-.65-1.52-2.32-2.3-2.71-4.09a22.65,22.65,0,0,0-2.12-5.7,27,27,0,0,0-5.6-9.2,3.66,3.66,0,0,1-1.07-1.45c0-.36.1-.67.58-.49l1.56.95c-.64-2.22-2.51-2.84-4.18-4,3.86.16,5.95,3.31,9.34,4.49-.39-2.13-2.84-2.21-3.22-4.08,2.06.06,3.43,1.54,5.14,2.21.24.18.62.29.75.14s-.25-.35-.3-.59-.45-.26-.49-.43c-.17-.73.38-.46.66-.37a28.32,28.32,0,0,1,6.26,3c1.4.85,2.69,1.88,4,2.83C442,194.87,442.12,194.75,441.91,194.24Z"/><path class="cls-75" d="M416.47,217l-.57-4.47c-.28.86-.42,1.33-.6,1.89-.81-2.21-.71-4.53-1.9-6.82a36.13,36.13,0,0,0,2.75,17.5c.32.76.53,1.57.79,2.35.16.48-.05.57-.46.45-1.53-2.84-3.46-5.48-4.32-9.18-.54,2.06.49,3.27.66,4.65.19.48,0,.55-.44.43a24,24,0,0,1-1.92-8.75c-.17-4.81-.41-9.56.45-14.37.59-3.34-1.45-6.39-2.2-9.6,0-.67-.15-1.38.89-1.33.52,1.83,1.78,3.4,1.88,5.38,1.07.76.47,2.24,1.29,3,.14.32.23-.19,0,0s-.11,0-.18-.12c-.54-1.23-.41-2.57-.7-3.83l0-.9c-.15-.47.05-.57.46-.44.58,1.52,1.66,2.82,1.86,4.5.14.14.27.42.44,0l0-1.82a.3.3,0,0,1,.47,0l0,.87c1.06,1,.89,2.41,1.28,4-.13-1.35-.48-2.33-.66-3.35-.09-.5.23-1-.17-1.5.15-2.29-.85-4.43-.78-6.72,2.73,7.61,6.72,14.9,5.48,23.46a26.62,26.62,0,0,0-.64-4.37,39.86,39.86,0,0,0-1.18-4.57c-.2,4.56.11,9.14-1.1,13.59A.58.58,0,0,1,416.47,217Z"/><path class="cls-76" d="M421.46,197.4c1.33,4.68,3.16,9.24,3.25,14.23a166.71,166.71,0,0,0-7.86-20.36c.48.68,1,1.35,1.43,2A5,5,0,0,1,421.46,197.4Z"/><path class="cls-77" d="M431.46,211.51l0,.9c.12.53.69,1.21-.44,1.33-1-4.5-3.08-8.57-5-12.69a15.48,15.48,0,0,1-3.62-6.39L421,192c-.17-.48.1-.57.49-.55a31.55,31.55,0,0,1,6.76,10.5A34.32,34.32,0,0,1,431.46,211.51Z"/><path class="cls-78" d="M425.54,202v1.57L421.9,197c-1.28-.94-1.86-2.4-2.71-3.66l-.85-1.79.34-.29,3.25,3.88A11.76,11.76,0,0,1,425.54,202Z"/><path class="cls-79" d="M431.46,211.51c-1.13-3.22-1.95-6.56-3.6-9.58.16-.15.19-.43.47-.47a10.6,10.6,0,0,1,2.11,5.11c.34,2,2.26,3,2.39,4.94C432.37,212.07,431.91,211.18,431.46,211.51Z"/><path class="cls-80" d="M446,208.3c.55-1.67-.88-2.68-1.37-4-.43-1.16-1.12-2.21-1.56-3.37,3.16,2.25,3.45,5.85,4.28,9.2A2.12,2.12,0,0,1,446,208.3Z"/><path class="cls-81" d="M425.54,202a25.82,25.82,0,0,0-3.61-6.85l.45-.45a34.44,34.44,0,0,1,3.62,6.39A1,1,0,0,0,425.54,202Z"/><path class="cls-82" d="M419.19,193.31c1.26.95,1.8,2.44,2.71,3.66l-.44.43a23.81,23.81,0,0,0-3.18-4.1Z"/><path class="cls-82" d="M415.57,195.57a7.69,7.69,0,0,1,.62,4.55c-.35-1.22-.71-2.44-1.07-3.66A1,1,0,0,0,415.57,195.57Z"/><path class="cls-83" d="M439.68,211c.53-.33.41-.87.44-1.36a7.51,7.51,0,0,1,.81,4.64C440.39,212.89,440,212,439.68,211Z"/><path class="cls-84" d="M409.6,189.71l-.89,1.33c-.15-.25-.4-.48-.44-.74-.07-.6-.94-1.36,0-1.74C408.91,188.25,409.3,189.11,409.6,189.71Z"/><path class="cls-85" d="M421.45,191.5,421,192a5.1,5.1,0,0,1-1.3-2.56l2.21,1.19-.45.42c.14.12.19.23.14.34S421.49,191.5,421.45,191.5Z"/><path class="cls-86" d="M431,213.74c.54-.32.39-.86.44-1.33.73,1.24.48,2.68,1,4.26C431.14,215.87,431.65,214.54,431,213.74Z"/><path class="cls-87" d="M436.92,199.69l.45-.46a6.3,6.3,0,0,1,2.38,2.59C438.42,201.17,437.46,200.72,436.92,199.69Z"/><path class="cls-88" d="M411.91,194.22c.82,1.25.3,2.75.89,4.05-1-.88-.76-2.17-1.32-3.18A.9.9,0,0,0,411.91,194.22Z"/><path class="cls-89" d="M436.91,205.61a7,7,0,0,1-1-3.74l1.48,3.27Z"/><path class="cls-90" d="M437,209.19c.37-.18.42-.53.45-.88a7,7,0,0,1,.86,3C437.13,210.83,437.4,209.81,437,209.19Z"/><path class="cls-91" d="M408.69,218.36c-.86.8-.12,1.89-.48,2.78l-.29-.12v-3.63C408.5,217.53,408.61,217.94,408.69,218.36Z"/><path class="cls-92" d="M416.47,217h.88c-.17.91-.35,1.82-.53,2.74l-.35,0Z"/><path class="cls-93" d="M436.48,188.29l-.46.46c-.66-.52-1.54-.77-2.13-1.72C435.17,186.92,435.75,187.77,436.48,188.29Z"/><path class="cls-94" d="M412.34,192.88l-.46.44c-.68-.68-.37-1.61-1-2.7A2.64,2.64,0,0,1,412.34,192.88Z"/><path class="cls-95" d="M435.1,197a4.19,4.19,0,0,1-1.91-2.37l2.37,1.9Z"/><path class="cls-96" d="M407.92,221a1.78,1.78,0,0,1,.29.12c.05.73.09,1.46.14,2.2a.31.31,0,0,1-.48,0c-.16-.75-.33-1.49-.49-2.24Z"/><path class="cls-97" d="M416.48,227.86l.46-.45a2.45,2.45,0,0,1,.83,2C416.82,229.19,416.8,228.41,416.48,227.86Z"/><path class="cls-90" d="M431,189.68l1.66,1.38a2.48,2.48,0,0,1-2.11-.93Z"/><path class="cls-98" d="M415.08,195.59h-.47c-.58-.52-.47-1.15-.21-2.26C414.7,194.34,414.89,195,415.08,195.59Z"/><path class="cls-99" d="M412.38,223.76l.44-.43a3.23,3.23,0,0,1,.79,2C412.74,225.05,412.7,224.31,412.38,223.76Z"/><path class="cls-94" d="M429.18,196a1.71,1.71,0,0,1-.73-1.47c.72,0,.92.56,1.19,1Z"/><path class="cls-95" d="M441.91,194.24c.43.24,1.13.54.64,1s-.8-.22-1.09-.6Z"/><path class="cls-97" d="M414.64,197.4c.38.31.71.83.13,1s-.55-.56-.57-1Z"/><path class="cls-100" d="M202.26,147.83l-.11-.47c.06-1.53,1.15-1.83,2.37-2,29.13-.07,58.25,0,87.38,0a6,6,0,0,1,2.24.25,1.27,1.27,0,0,1,.64.61,12.91,12.91,0,0,1,.4,3.82q0,25.1,0,50.19c0,1.52-.24,3-.25,4.53a2.28,2.28,0,0,1-.32.83c.05,1-.88,1-1.46,1.34a8.85,8.85,0,0,1-2.71.21H205.39c-2.84,0-3-.17-3-2.93q0-27,0-53.9A6.69,6.69,0,0,0,202.26,147.83Z"/><path class="cls-8" d="M297.76,217.42l-.06,5.43-1.35,0c-.93-.53-1.92-.16-2.88-.17-7.08,0-14.16,0-21.25,0a4.65,4.65,0,0,0-2.22.19l-1.31.06a1.06,1.06,0,0,1-1.22.19l-.24-.23,0-.45a14.3,14.3,0,0,1,0-5l.08-.88c.14-.85.4-1.62,1.39-1.83l1.32-.53a79.63,79.63,0,0,1,10.13-.16c4.95,0,9.91-.25,14.86.16A4.3,4.3,0,0,1,297.76,217.42Z"/><path class="cls-68" d="M203.83,145.93c-1,0-1.17.9-1.68,1.43-.75.77-.43,1.73-.43,2.6q0,27.16,0,54.32v2.46a4.43,4.43,0,0,1-1.34-3.47q0-27.74,0-55.46c0-2.79.89-3.64,3.66-3.64h87.28c1.53,0,3.07,0,3.62,1.86l-.21.17-.2-.17,0,0a2.68,2.68,0,0,0-1.76-.24q-43.68,0-87.35,0A3.64,3.64,0,0,0,203.83,145.93Z"/><path class="cls-101" d="M263.59,235.17a24.56,24.56,0,0,0-14.59-7.5c-5.84-1-11.65-.89-17.22,1.55,0-1.51.06-3,0-4.53s.42-1.84,1.81-1.83c10,.06,20.08.06,30.11.08.71.82.56,1.82.57,2.78q0,3.57,0,7.16A2.78,2.78,0,0,1,263.59,235.17Z"/><path class="cls-15" d="M291.81,207.87a3.37,3.37,0,0,0,.69,2.12,18.69,18.69,0,0,0-4.72-.3q-40.47,0-80.94,0c-1,0-3.11.75-1.92-1.79.79-.81,1.83-.64,2.79-.64H289C290,207.23,291,207.06,291.81,207.87Z"/><path class="cls-8" d="M263.59,235.17q0-6.12.08-12.23l3.56-.08,0,.06c0,.16,0,.39-.1.41-2.86.63-2.51,2.84-2.48,4.94a51.69,51.69,0,0,1-.11,5.69c-.15.19.23.14.24.12.54-1.65,1.81-1.32,3-1.09.55.22.44.83.7,1.22,0,6.81,0,13.61.1,20.42,0,2-1.1,1.88-2.43,1.9-1.49,0-2.65,0-2.63-2.08C263.68,248,263.61,241.6,263.59,235.17Z"/><path class="cls-102" d="M259.06,212c1.67.55.85,1.92.8,2.89s-1.14.74-1.84.75q-10.33,0-20.67,0c-.7,0-1.79.31-1.84-.74s-.87-2.34.8-2.89c.77-.53,1.62-.2,2.42-.2q9.06,0,18.11,0A4.21,4.21,0,0,1,259.06,212Z"/><path class="cls-103" d="M202.26,147.83c.69.79.37,1.75.37,2.62,0,17.82.05,35.64,0,53.45,0,2.11.58,2.65,2.66,2.65q42.65-.11,85.3,0c.87,0,1.83-.35,2.6.41l0,0c-.71.62-1.58.42-2.39.42H205.35a6,6,0,0,1-3.09-.5c0-.45-.13-.9-.13-1.35V149A8.74,8.74,0,0,1,202.26,147.83Z"/><path class="cls-104" d="M291.81,207.87H204.92c-.62-.06-1.3.19-1.81-.39.51-.48,1.15-.28,1.73-.28H292a4.75,4.75,0,0,1,1.13.09C293.17,208.56,292.47,208.16,291.81,207.87Z"/><path class="cls-105" d="M293.13,207.28c-1,0-2,.13-2.95.13H205.6c-.83,0-1.66.05-2.49.07-.33-.12-.74-.12-.85-.57l58.88.05,32.05,0Z"/><path class="cls-15" d="M302.28,219.24l-.45.94q0-39.6,0-79.19c.71.65.29,1.52.45,2.28a3.52,3.52,0,0,1,.22,2q0,36.33,0,72.66A2.2,2.2,0,0,1,302.28,219.24Z"/><path class="cls-15" d="M299.67,216.82V145.13h.23v71.76Z"/><path class="cls-106" d="M294.62,205.59a1.23,1.23,0,0,1-.07-.42,4.86,4.86,0,0,0,.21-2.45q0-27.08,0-54.15a7.93,7.93,0,0,1,.13-2.48l0-.06c.62.27.48.84.51,1.33a3,3,0,0,1,.21,1.77q0,26,0,52a3,3,0,0,1-.21,1.77C295.18,203.77,296.12,205.05,294.62,205.59Z"/><path class="cls-15" d="M295.45,202.86v-55.5c.74.67.44,1.56.44,2.36q0,25.4,0,50.79C295.89,201.3,296.19,202.19,295.45,202.86Z"/><path class="cls-15" d="M295,214.2H270c.47-.55,1.11-.42,1.7-.42h21.59C293.87,213.78,294.51,213.65,295,214.2Z"/><path class="cls-15" d="M225.38,214.2h-25c.46-.55,1.09-.43,1.68-.43H223.7C224.29,213.78,224.92,213.66,225.38,214.2Z"/><path class="cls-15" d="M259.06,212H236.31c-.05-.32-.38-.91.22-.84,7.09.87,14.21.14,21.31.39A1.4,1.4,0,0,1,259.06,212Z"/><path class="cls-15" d="M258.45,216.45H237.83v-.23h20.72Z"/><path class="cls-15" d="M268.67,214.73l-1.39,1.83c-.16-.81-1.42-1.52-.51-2.39C267.41,213.57,268.13,214.2,268.67,214.73Z"/><path class="cls-15" d="M267.2,217.44c0,1.66,0,3.31,0,5A6.4,6.4,0,0,1,267.2,217.44Z"/><path class="cls-15" d="M262,212.8a1.47,1.47,0,0,1,0,1.54A1.29,1.29,0,0,1,262,212.8Z"/><path class="cls-15" d="M227.74,214.79c.33-.26.48-.42.51-.4a2.06,2.06,0,0,1,.61.56c.12.22,0,.45-.33.3A8.4,8.4,0,0,1,227.74,214.79Z"/><path class="cls-15" d="M260.6,214.93c-.18-.77-.34-1.22.08-1.65A1.57,1.57,0,0,1,260.6,214.93Z"/><path class="cls-15" d="M301.18,218.09c.18.77.35,1.22-.08,1.65A1.57,1.57,0,0,1,301.18,218.09Z"/><path class="cls-6" d="M151.24,210.6l11.23,18.82c3.29,5.49,6.7,10.9,9.67,16.58,2.48,4.76,5.2,9.44,3.71,15.16a18.75,18.75,0,0,1-2.3,6.77c-.8,1.34-2.2,1.78-3.53,2.29a49.23,49.23,0,0,1-8.26,2.34,14.12,14.12,0,0,0-3.11.28,7.59,7.59,0,0,1-1.34.19c-.32,0-.64,0-.95,0s-1.06-.35-1.32.37a14.86,14.86,0,0,0,8.22.74A123.25,123.25,0,0,1,177.32,272a9.66,9.66,0,0,1,6.77,2c.95.74,1.81,1.6,2.8,2.29,2.43,1.7,4.91,2.33,7.88,1.15s5.83-2.5,9.12-2c.3.09.06-.49.05-.19h-.11c-.49.07-1.05.32-1.26-.43.34-.51.92-.45,1.41-.56,3.9-.88,4.92-.27,6,3.48,1.21,5.7.74,11.39-.21,17.06a42.1,42.1,0,0,1-1.58,6.35c-.36.84-.64,1.73-1.56,2.16-1.81,5.25-5.73,6.8-10.91,6.4-3.44-.26-6.71.86-10,1.61-1,.23-2,.49-1.24-1.17,1.32-3.57,3.38-6.85,4.18-10.64.36-1.68.77-3.35,1.17-5,.33-3.29.75-6.58.82-8.46,0,1.58-.51,4.54-.73,7.53A45.16,45.16,0,0,1,185.32,308c-.35.66-.57,1.42-1.32,1.78a30.31,30.31,0,0,1-13.93,10.75c-3.93,1.43-8.12.65-12.17.51-4.5-.15-9-.75-13.47-1.27a315.64,315.64,0,0,1-35.59-5.94c-5.71-1.33-7.89-5.51-9.64-10.32A184.69,184.69,0,0,1,90.88,273a159.2,159.2,0,0,1-2.07-17.47c-.46-6.89-.15-13.76-.34-20.63-.06-2.49.73-4.94.46-7.44.47-1.36-.29-2.79.21-3.74a3.74,3.74,0,0,1-.67,2.37c-3.45,17.44-2.74,35.11-3,52.76a167.17,167.17,0,0,1-9.34-48.56v5.6c0,1.9-.1,3.8,0,5.69A141.93,141.93,0,0,0,79.6,263c2.52,10.86,5.58,21.59,7.82,32.51a4.48,4.48,0,0,1,0,1.59c-3.32-7.49-7.1-14.75-10.17-22.35a40.8,40.8,0,0,0,3.62,11.57c2,4.57,4.3,9,6.48,13.5,2.93,6,1.83,6.69-2.79,10.21-6.56,5-15.41,4.52-21.94-.44a4.23,4.23,0,0,1-1.88-3c-1.07-11.2-2.31-22.4-1.77-33.66a199.58,199.58,0,0,1,2.43-23.35,213.49,213.49,0,0,1,5.35-22.65,170.36,170.36,0,0,1,9.17-24.83c3.47-7.56,7.15-15,12-21.81,3-4.12,6.14-8.06,11-10.14l.44.43c7.33,7.58,16.81,11.8,26,16.53a12.16,12.16,0,0,1,2.3,1.44A79.94,79.94,0,0,1,151.24,210.6Z"/><path class="cls-2" d="M274.49,338.47a58.36,58.36,0,0,0-13.6-12.78c-7.91-6.14-16.88-10.32-26.08-14.06a4.52,4.52,0,0,0-1.12-.16,2.33,2.33,0,0,1-.08-.36,2.93,2.93,0,0,1,2.11-.61c9.84-.87,19.65-1.95,29.14-4.9a16.87,16.87,0,0,0,4.51-2.05,6.32,6.32,0,0,1,2.06-.89c5.89-1.74,7.63-4.77,6.26-10.92-.59-4.27-1.48-8.48-2.33-12.69-.45-2.21.08-2.76,2.34-2.34a28.2,28.2,0,0,1,2.85.7c.78.26,1.55.56,2.34.78a3.26,3.26,0,0,1,2.12,1c12.11,3.92,22.46,10.4,30.27,20.62,6.4,8.36,10.43,17.86,13.31,27.88a119.35,119.35,0,0,1,4.22,19.7c-.27.33-.85-.18-1.05.8-1.36,6.78-4.08,13-9.4,17.59s-11.68,5.77-18.4,3.45c-7.6-2.61-12.66-7.82-15.92-15.23a38.92,38.92,0,0,0-10.42-13.54,9.78,9.78,0,0,1-1.57-1.58C275.72,338.47,275.31,337.56,274.49,338.47Z"/><path class="cls-10" d="M270,303.76c-2.33,2.32-5.54,2.79-8.45,3.5a130,130,0,0,1-27.91,3.85,151.1,151.1,0,0,0-26.44-7.35c-.2,0-.37-.24-.55-.37l.9-1.91c7.46-.31,14.84-1.66,22.33-1.49,3.12.07,6.09,1,9.15,1.39,1.89.52,4,0,5.76,1.18,2.29,3.32,5.6,3.83,9.24,3.21,4.17-.71,8.31-1.56,12.48-2.27C267.65,303.3,268.86,302.93,270,303.76Z"/><path class="cls-107" d="M189.91,294.76a37.09,37.09,0,0,1-5.45,15.47l-.46-.46a44.63,44.63,0,0,0,5.46-15.92C190.31,293.8,190.18,294.24,189.91,294.76Z"/><path class="cls-101" d="M88.47,226.07l.59-3.21c.16,1.56.75,3.11-.13,4.58C88.89,226.94,89,226.4,88.47,226.07Z"/><path class="cls-108" d="M364.06,240.1c.05-1.43,1.06-2.26,2-3.14,1.86-1,3.83-.77,5.79-.46a9.28,9.28,0,0,1-5.84,4.81C364.79,241.68,364.11,241.46,364.06,240.1Z"/><path class="cls-109" d="M371.83,236.5c-1.89.58-3.86.32-5.79.46-.8-.94-1.86-1.74-1.83-3.17C367.48,232.57,370.75,233.73,371.83,236.5Z"/><path class="cls-110" d="M377.34,213.76c.31-1.56,2-.95,2.77-1.77,2.67-1.8,5.21-1.21,7.69.44l.84.51C384.87,213.14,381.22,215.06,377.34,213.76Z"/><path class="cls-111" d="M383.26,200.15l0-.53c.45-.68,1.21-.24,1.78-.48a3.74,3.74,0,0,1,3.28,0l.82.18c.07.42-.06.6-.5.42A16,16,0,0,0,383.26,200.15Z"/><path class="cls-112" d="M388.29,199.16l-3.28,0,.06-.35a3.73,3.73,0,0,1,2.71,0Z"/><path class="cls-113" d="M407.87,223.3l.48,0c.64.62.34,1.33,0,2.06C408.22,224.7,408.05,224,407.87,223.3Z"/><path class="cls-114" d="M387.78,198.74l-2.71,0A2,2,0,0,1,387.78,198.74Z"/><path class="cls-115" d="M388.61,199.76l.5-.42c.53.14,1.19,0,1.36.79A2.18,2.18,0,0,1,388.61,199.76Z"/><path class="cls-2" d="M244.51,302.93c-1.75-.78-3.69-.32-5.47-.9-5.27-.93-7.67-7.38-6.76-11.68,1.19-5.58,1.75-11.34,4.66-16.45,1.73-3,1.22-6.66,2.38-9.86,1.8-1.52,3.93-1,5.82-.59a50.28,50.28,0,0,1,13.66,5.34,4.11,4.11,0,0,1,2.46,2.79,7.7,7.7,0,0,0,1.93,2.25,9.28,9.28,0,0,1,1.65,1.2,19.35,19.35,0,0,1,1.94,2.3c1.82,2,3.55,4,5.22,6.07a3.2,3.2,0,0,1,1.06,2.14,1.31,1.31,0,0,1-.23.56c-1.17.38-1.39-1.37-2.5-1.12-1.73,1.23-1.84,2.1-.52,3.56.65.72,1.78.9,2.1,2-.3.64-1.1.91-1.23,1.67a.73.73,0,0,1-.75.44,11.93,11.93,0,0,1-2.71-2c-1.13-.88-1.79-.18-2.35.73a1.71,1.71,0,0,0,.32,2.42,8.6,8.6,0,0,0,2.06,1.37c1.36.6,1.13,1.19,0,1.77-1.78.66-3.28-1-5-.58-1.21-.07-1.95-1-2.94-1.52-1-.33-1.39.35-1.68,1.06s.1,1.41.62,2,1.91.75,1.83,2.05c-1,1.41-2.43.42-3.65.59-1.19,0-2-1.35-3.36-.87-1,1.17-.44,1.8.69,2.43.6.34,2.09,0,1.51,1.55a2.91,2.91,0,0,1-2.16.45C250.23,303.51,247.24,304.2,244.51,302.93Z"/><path class="cls-7" d="M261.26,271.58a34.4,34.4,0,0,0-19.68-7.79,2.78,2.78,0,0,0-2.16.42,2.82,2.82,0,0,1-1.7,1c-8.34,3-16.27,6.92-24.37,10.47a44.8,44.8,0,0,0-3.95,2.21c-1.05-3.4-2.78-4.1-6.78-2.75a1.46,1.46,0,0,1-1.8,0,60.63,60.63,0,0,1,7.28-2.72c1.84-1,3-2.28,1.83-4.52-.93-1.53-2.44-.91-3.71-.91s-2.09-.31-2.3-1.8c-.24-1.7-.77-3.37-1.17-5.05h77.7l.17.48Z"/><path class="cls-7" d="M256.33,300.26c1.09-1.11,2.57.63,3.66-.48.55-.75,1.94-.54,2.05-1.78.11-.56-.28-1.19.23-1.69,0-1.29.84-.69,1.36-.54,1.19.33,2.32.93,3.62.74,3.13-1.27,3.19-1.35,3.18-4.47-.68-1.6.64-1.2,1.37-1.38.32-.76,1.22-1.09,1.39-2a2.43,2.43,0,0,1,.33-.56.87.87,0,0,1,.88-.3c1,.9.63,2.25,1.19,3.32a61.68,61.68,0,0,0-2.13-11.44,6.14,6.14,0,0,0-6.75-4.22,3.2,3.2,0,0,1-3.52-1.68c3.05-.07,6.09-1.1,9.15.32.84.39,1.8-.6,2.65-1.07l27.61-15.55c1.68-.95,1.49.3,1.49,1.29V277c-.91,1.07-1.52,2.39-2.72,3.22.88,1,2.3-.17,3.17.82a32.45,32.45,0,0,0-7.43.37,3.63,3.63,0,0,1-2.17-.44,30.13,30.13,0,0,0-9-2.17c-.9-.33-1.85.07-2.75-.23a16.83,16.83,0,0,0-2.35-.59l-4-.84c-1.13-.24-1.44,0-1.13,1.26a78.56,78.56,0,0,1,2.38,13.53,7.44,7.44,0,0,1-6.3,7.38c-4.71,1-9.46,1.91-14.24,2.55a1.77,1.77,0,0,1-.72-.07A1.19,1.19,0,0,1,256.33,300.26Z"/><path class="cls-116" d="M268.15,233.35c-1.52-.12-3-.1-4.09,2,0-3.51.07-6.38,0-9.24-.06-1.81.1-3.18,2.46-2.79.23,0,.52-.24.78-.37l1.42,0c0,.15-.07.3-.11.45-.46,2.44-.07,4.91-.21,7.36C268.32,231.59,268.6,232.5,268.15,233.35Z"/><path class="cls-117" d="M270,222.84c.69-.7,1.57-.39,2.37-.41,7.76-.19,15.54.35,23.3-.29.52,0,.6.31.68.69Z"/><path class="cls-6" d="M301.37,280.21a5.7,5.7,0,0,1,2.72-3.22c-.42.61,0,1.23,0,1.84A2.39,2.39,0,0,1,301.37,280.21Z"/><path class="cls-118" d="M268.15,233.35c0-2.63,0-5.25,0-7.88,0-.72-.25-1.52.41-2.12,0,3.62,0,7.24,0,10.86A.9.9,0,0,1,268.15,233.35Z"/><path class="cls-119" d="M134.43,177.79l0,1a107.86,107.86,0,0,1-7.26-10.51A47,47,0,0,1,134.43,177.79Z"/><path class="cls-7" d="M127.58,188.77c-7.43-3.84-15.16-7.15-22-12.13-2.35-1.72-4.79-3.42-6.25-6.09,3.33,1.74,6.1,4.3,9.38,6.14,5.69,3.2,11.26,6.62,16.87,10,.84.5,1.61,1.1,2.41,1.65C128.15,188.71,128.06,188.94,127.58,188.77Z"/><path class="cls-107" d="M127.58,188.77l.46-.47a77.23,77.23,0,0,1,20.43,18.16,4.25,4.25,0,0,0,1.42,1.41,5.09,5.09,0,0,1,1.35,2.73c-1.87-1.44-3-3.49-4.52-5.26A85.55,85.55,0,0,0,127.58,188.77Z"/><path class="cls-120" d="M200.82,275.17h3.56c-3.77.65-7.23,2.13-10.79,3.35-3.15,1.07-5.74-.45-8-2.46s-4.39-3.74-7.29-3.51a69.81,69.81,0,0,0-9.58,1.18c-3.82.84-7.71,2.1-11.74,1-1.28-.36-2.67-.53-3.46-1.83a1.87,1.87,0,0,1,1.5-.08,38.46,38.46,0,0,0,8.51-.36c2.89,0,5.73-1.07,8.65-.45,6.83-1.67,13.05.7,19.24,3C194.58,276.22,197.69,275.27,200.82,275.17Z"/><path class="cls-121" d="M172.19,272a32.74,32.74,0,0,1-8.65.93c-.8.08-2,.94-1.84-.92a45.57,45.57,0,0,0,11.85-4.08C173.61,269.46,172.33,270.53,172.19,272Z"/><path class="cls-122" d="M209.93,267.93c2,2.53,1.39,4-1.83,4.52-1-.76-3.09-.17-3.08-2.45,0-1,.24-1.55,1.27-1.62a4.47,4.47,0,0,0,3.14,0Z"/><path class="cls-123" d="M209.43,268.4c.1.25.27.76,0,.73a13.69,13.69,0,0,0-3.32-.14c0-.2.09-.41.13-.61Z"/><path class="cls-117" d="M302.28,219.24q0-38,0-76c.79.74.44,1.71.44,2.58q0,35,0,70.09C302.67,217,303.62,218.3,302.28,219.24Z"/><path class="cls-124" d="M387.8,212.43a15.09,15.09,0,0,0-7.69-.44c-1.28-1.16-.13-2.07.41-2.93a2.32,2.32,0,0,1,3.15-1A8.54,8.54,0,0,1,387.8,212.43Z"/><path class="cls-125" d="M368.13,226.86c-1.07-.21-1.11-1.56-2.76-1C367.43,224.58,367.59,224.67,368.13,226.86Z"/><path class="cls-126" d="M334.58,297.48c3.35,1.85,6.73,3.6,9.92,5.78a59.28,59.28,0,0,1,14.56,14.05,51.41,51.41,0,0,1,6.32,11.89c.12.3.08.59-.38.92-1.55-2.07-3.21-4.08-4.64-6.25a87.69,87.69,0,0,0-10.43-12.77,80.41,80.41,0,0,0-13.23-11.26,8.36,8.36,0,0,0-1.22-.54,6.74,6.74,0,0,0-2.27-1.36h0C333.35,296.84,334,297.29,334.58,297.48Z"/><path class="cls-126" d="M342.76,308.86a176.61,176.61,0,0,0-15.67-8.77l-9.35-4.87c-.31-.21-.64-.5-.45-.85s.58-.35.9-.07c3.32,1.36,6.71,2.52,10,4a75.11,75.11,0,0,1,14.05,8.48,2.8,2.8,0,0,1,.53.72c.4.36,1.1.58.87,1.28C343.51,309.15,343.09,309.12,342.76,308.86Z"/><path class="cls-127" d="M318.19,294.3c-.81,0-.67.43-.45.92a46.76,46.76,0,0,1-9.29-4.61l.25-.57Z"/><path class="cls-128" d="M334.58,297.48c-.5,0-1-.08-1.37.46l-6.56-3.14.22-.52A29.81,29.81,0,0,1,334.58,297.48Z"/><path class="cls-129" d="M331.84,317.05c-.54.33-.43.86-.45,1.36-1.31-2.31-1.8-5-3.05-7.33C329.8,312.92,331.34,314.68,331.84,317.05Z"/><path class="cls-128" d="M342.76,308.86c1.4-.46-.16-.92,0-1.37,2,.77,3.29,2.37,5.27,4.09C345.43,311.36,344.32,309.69,342.76,308.86Z"/><path class="cls-72" d="M402.35,315.23a24.19,24.19,0,0,1,5.92-.92C406.43,315.46,404.37,315.2,402.35,315.23Z"/><path class="cls-130" d="M283.22,278.28a6.54,6.54,0,0,1,2.76.51l-1,.44-2.23-.49C282.66,278.33,282.77,278.14,283.22,278.28Z"/><path class="cls-128" d="M333.21,297.94a2.17,2.17,0,0,1,2.27,1.36A4.11,4.11,0,0,1,333.21,297.94Z"/><path class="cls-131" d="M121.69,107.59a4.79,4.79,0,0,1,2.62-3.87Z"/><path class="cls-132" d="M122.79,109.58c-.26-1.26.21-1.86,1.09-2.7A5.08,5.08,0,0,1,122.79,109.58Z"/><path class="cls-68" d="M337.8,257.77c-1.1,1.09-1.88,1.09-3.34.93Z"/><path class="cls-133" d="M421.45,191.5V191c3.5,2.69,5.41,6.42,6.87,10.46-.16.16-.32.31-.47.47C426.24,198.14,423.8,194.84,421.45,191.5Z"/><path class="cls-89" d="M436,192.4a15.2,15.2,0,0,1,4.58,4.09.28.28,0,0,1-.49,0l-4.53-3.66C435.47,192.43,435.54,192.21,436,192.4Z"/><path class="cls-134" d="M440.11,196.5h.49a3.23,3.23,0,0,1,1.56,1.79A3.76,3.76,0,0,1,440.11,196.5Z"/><path class="cls-94" d="M436,192.4l-.44.44a2,2,0,0,1-1.14-1.13C435.19,191.53,435.6,192,436,192.4Z"/><path class="cls-135" d="M234,176.19c1.89-2.88,4.5-3.92,7.3-4.53.77-.16,1.38.46,1.39,1.42a11.91,11.91,0,0,1-.39,3.14c-.38,1.56.27,2.26,1.92,2.1,1-.1,1.51-.49.86-1.42-1.19-1.7,0-2.94.63-4.5a1.63,1.63,0,0,1,.41,2.13c-.29.78-.86,1.51.37,2a7.68,7.68,0,0,0,3.74.33,2.37,2.37,0,0,0,.1-1.24A8.48,8.48,0,0,1,250,173c.16-3.92,3.11-5.66,7.83-4.56a4.4,4.4,0,0,1,3.73,3.51,5,5,0,0,1-2.1,5.38,30.84,30.84,0,0,0-7.14,6.1c-3.07,3.35-10.3,3.62-14.24,1.23a2,2,0,0,1-.86-3.06c.78-1.47,1.51-3,2.24-4.47.32-.67.9-1.45.27-2.1s-1.56-.36-2.36-.14C236.3,175.14,235.62,176.32,234,176.19Z"/><path class="cls-136" d="M203.83,145.93c.76-.53,1.62-.27,2.43-.27q43.07,0,86.13,0c.7,0,1.52-.36,2.12.35H207C206,146,204.89,146,203.83,145.93Z"/><path class="cls-136" d="M294.91,146.09q0,28.24,0,56.49c0,.86.36,1.81-.34,2.59l0-59.14Z"/><path class="cls-7" d="M120.77,214.2c2.84,2.17,5,5,7.25,7.72,2.55,3.07,4.87,6.34,7.86,9.05,2.06,1.87,3.34,1.77,5.09-.36a12.38,12.38,0,0,0,2.43-6.49c1.28-10-2-18.17-10-24.56a120.46,120.46,0,0,0-15.4-9.87.33.33,0,0,1-.11-.34c0-.1.08-.16.12-.16,6.56,2.16,12.21,5.91,17.56,10.12a47.74,47.74,0,0,1,8.65,8.91c4,5.28,4.79,11.06,3.61,17.34a101.34,101.34,0,0,1-4.16,13.86,31.51,31.51,0,0,0-2,10.62,13.26,13.26,0,0,1-1.49,5.2c-1.64,3.91-.59,5.19,3.39,6.78,2.63,1.05,5.22,2,7.14,4.2a7.15,7.15,0,0,1,1.42,2.29c1.17,3.33.75,4-2.76,3.93-4.53-.09-9.07-.49-13.59-.34a37.09,37.09,0,0,0-8.52.83c-5.15,1.41-8.9,4.66-11.88,8.93-.51.73-1,1.47-1.74,2.58.17-2.76,1.72-4.44,2.73-6.29a59.5,59.5,0,0,1,9.73-13.59,2.92,2.92,0,0,1,3.42-.81c3.81,1.21,7.7,2.16,11.53,3.32a15.85,15.85,0,0,0,4.49.39c.59,0,1.3.15,1.52-.64a1.49,1.49,0,0,0-.8-1.74,35.61,35.61,0,0,0-3.45-1.7,19.47,19.47,0,0,0-2.57-.88c-2.32-.64-4.19-1.3-4.75-4.35-.66-3.57-4.07-4.27-7.15-4.27-4.69,0-9.36-.42-14-.54-1.42,0-3.5,0-3.57-1.57,0-1.22,2.1-1.34,3.41-1.58,5.33-.94,10.82-.94,16-2.77,4.82-1.71,5.65-2.56,4.25-8.64-1-4.51-3.28-8.6-5.65-12.57a79.11,79.11,0,0,0-8-11.52c-.14-.11-.19-.22-.14-.32S120.72,214.2,120.77,214.2Z"/><path class="cls-36" d="M209.4,277.93a1.56,1.56,0,0,1,1-1.38c9.42-4.34,18.72-9,28.58-12.29a2.22,2.22,0,0,1,.45-.05,26,26,0,0,1-2.9,12.24A24.77,24.77,0,0,0,234,285a33.31,33.31,0,0,1-.9,4.17c-1.27,4.54.31,8.23,3.42,11.42A10.71,10.71,0,0,0,239,302c-3.35-.38-6.61-1.37-10-1.4-6.11-.05-12.13,1-18.19,1.35a4.91,4.91,0,0,1-3.3-.5,57.75,57.75,0,0,0,2.44-18.2A24,24,0,0,0,209.4,277.93Z"/><path class="cls-137" d="M130.37,235.89c-.36,3-2.4,4.4-4.58,5-5.19,1.49-10.5,2.6-15.76,3.82-.44.11-1,.68-1.39,0s.16-1.2.57-1.61c1.65-1.65,3.27-3.34,5-4.86,1.92-1.68,3.13-3.5,2.93-6.23-.21-2.94,0-5.9,0-8.85a5.59,5.59,0,0,1,.15-1.79c.41-1.17.8-2.22,2.16-.54,3.15,3.9,6.86,7.35,9.37,11.75A35.22,35.22,0,0,1,130.37,235.89Z"/><path class="cls-137" d="M123.37,256.53a15.82,15.82,0,0,1,8.7,2.71c.36.26.9.43.72,1s-.76.37-1.18.4a2.23,2.23,0,0,1-1.13-.06c-2.92-1.61-4.87.45-6.77,2-4.14,3.31-7.72,7.24-11.49,11-.8.79-1.67,1.51-2.5,2.27a1,1,0,0,1-1,.27c-.68-.26-.26-.79-.16-1.14a36.9,36.9,0,0,1,3.49-7.83c1.09-2,.13-2.51-1.39-2.69a47.77,47.77,0,0,0-5.22-.09,15.4,15.4,0,0,1-2,0c-.74-.1-1.68-.25-1.83-1.07s.82-.75,1.3-1.07c4-2.62,8.74-3,13.23-4.13C118.46,257.37,120.8,256.34,123.37,256.53Z"/><path class="cls-138" d="M189.91,294.76a.93.93,0,0,0-.45-.91c.36-3.18.73-6.36,1.09-9.54A30.59,30.59,0,0,1,189.91,294.76Z"/><path class="cls-7" d="M161.7,272c.16,1.23,1.13.81,1.84.92a17.79,17.79,0,0,1-8.67,0c.36-.43,1,0,1.38-.46h.9c1,.5,2.12.13,3.18.15.3-.13-.1-.39,0-.12,0,.09,0,.15-.16.15-.57,0-1.16.2-1.7-.18C159.48,271.62,160.64,272.17,161.7,272Z"/><path class="cls-101" d="M120.77,214.2v.49a11.9,11.9,0,0,1-3.42-3.71C118.59,212,120.37,212.34,120.77,214.2Z"/><path class="cls-139" d="M118,189.19c0,.17,0,.33,0,.5a7.66,7.66,0,0,1-3.14-1.64A4.79,4.79,0,0,1,118,189.19Z"/><path class="cls-121" d="M158.5,272.46h1.74c-1,.33-2.1.83-3.09,0Z"/><path class="cls-121" d="M156.25,272.46c-.33.54-.88.44-1.38.46l-1.34,0C154.33,272.09,155.34,272.59,156.25,272.46Z"/><path class="cls-140" d="M257.18,301.57c4.25-.82,8.49-1.83,12.77-2.43,4.45-.63,7.1-3,8.22-7.22,1.87,5.23-.54,9.8-5.85,11.1-.8.2-1.57.49-2.35.74-5.28.43-10.42,1.68-15.61,2.66-4.76.89-7.89-.15-9.85-3.49a75,75,0,0,1,8.34.4c.85.08,1.82.32,2.6-.37C255.78,302.2,256.59,302,257.18,301.57Z"/><path class="cls-141" d="M283.22,278.28l-.44.46a3.7,3.7,0,0,1-1.9-.77A3.63,3.63,0,0,1,283.22,278.28Z"/><path class="cls-142" d="M264.53,275.2c5.59-.51,8.38.59,9.47,4.18a71.37,71.37,0,0,1,1.83,8.57c.3,1.71.9,3.51-.43,5.39-.81-1.84-.48-3.78-1.32-5.41a1.78,1.78,0,0,1-.6-1.19c-.4-4.62-2.9-7.62-7.14-9.29Z"/><path class="cls-143" d="M270.43,292c1.4,3,.66,4-3.18,4.47-.05-.29,1.1-.63.11-.79-1.24-.21-1.95-1.11-2.81-1.76-1.48-1.12-.65-2.47.16-3.55s1.9-1.5,3-.17c-.11.17-.52.32-.39.41.89.64,1.56,1.63,2.75,1.8Z"/><path class="cls-144" d="M262.7,297.9c.05,2-1.45,1.77-2.71,1.87a26.21,26.21,0,0,1-2.66-2,1.83,1.83,0,0,1-.13-2.65c.56-.65,1.09-1.86,2.33-.84C260.29,295.74,262,296.39,262.7,297.9Z"/><path class="cls-145" d="M273.64,288.82c.22,1.44-1.06,1.39-1.84,1.84a20.79,20.79,0,0,1-2.34-1.69c-2.06-1.93-1.7-3.53,1-4.66A12.1,12.1,0,0,1,273.64,288.82Z"/><path class="cls-146" d="M266.34,277.45c4.7.78,6.48,2.92,7.64,9.16-.78.19-.91-.54-1.29-.91-1-2.74-3.48-4.4-5.09-6.7C267.22,278.46,266.76,278,266.34,277.45Z"/><path class="cls-147" d="M257.18,301.57a2,2,0,0,1-1.73,1.39c-.58-.13-1.18-.21-1.74-.39-2.35-.76-2.54-1.5-1-3.7,1.54.6,3.15,1.08,4,2.65Z"/><path class="cls-148" d="M270,292.45l.31,1c-1.41-1-2.73-2-4.16-2.94.48-.62,1-.23,1.49-.3Z"/><path class="cls-149" d="M273.64,288.82a17.4,17.4,0,0,1-3.19-4.51c1.17,0,1.48,1.17,2.26,1.7a2.1,2.1,0,0,1,1,2.33Z"/><path class="cls-150" d="M262.7,297.9c-1.22-1-2.49-1.94-3.64-3-.48-.45.15-.52.47-.62l2.74,2.05C262.41,296.84,262.55,297.37,262.7,297.9Z"/><path class="cls-151" d="M256.76,301.52c-1.11-1.24-2.95-1.37-4-2.65,1.49-.27,2.52.62,3.61,1.39C256.47,300.68,256.61,301.1,256.76,301.52Z"/><path class="cls-152" d="M273.68,288.34c-.32-.78-.65-1.55-1-2.33,0-.11,0-.21,0-.31l1.29.91c0,.44.06.88.1,1.32Z"/></svg>