<svg id="Layer_1" data-name="Layer 1" xmlns="http://www.w3.org/2000/svg" viewBox="0 0 500 500"><defs><style>.cls-1{fill:#2e3f58;}.cls-2{fill:#fee8d4;}.cls-3{fill:#b1e0fa;}.cls-4{fill:#94d4f1;}.cls-5{fill:#febea6;}.cls-6{fill:#704c5e;}.cls-7{fill:#b83b2d;}.cls-8{fill:#e7e3e1;}.cls-9{fill:#cecac8;}.cls-10{fill:#805a57;}.cls-11{fill:#402826;}.cls-12{fill:#27b8c3;}.cls-13{fill:#624452;}.cls-14{fill:#e79684;}.cls-15{fill:#523844;}.cls-16{fill:#a8a5a2;}.cls-17{fill:#fdbea5;}.cls-18{fill:#624352;}.cls-19{fill:#fcbda5;}.cls-20{fill:#c8c5c2;}.cls-21{fill:#21b9c4;}.cls-22{fill:#5abdc1;}.cls-23{fill:#21b5c3;}.cls-24{fill:#c9c6c3;}.cls-25{fill:#97d3ef;}.cls-26{fill:#1fb8c3;}.cls-27{fill:#614351;}.cls-28{fill:#644452;}.cls-29{fill:#213550;}.cls-30{fill:#634152;}.cls-31{fill:#583746;}.cls-32{fill:#d7cac8;}.cls-33{fill:#fdf2e9;}.cls-34{fill:#cecac7;}.cls-35{fill:#33b2bb;}.cls-36{fill:#203854;}.cls-37{fill:#253549;}.cls-38{fill:#9e938d;}.cls-39{fill:#fcf4ec;}.cls-40{fill:#fbbfa4;}.cls-41{fill:#e6766e;}.cls-42{fill:#431f35;}.cls-43{fill:#432035;}.cls-44{fill:#634352;}.cls-45{fill:#cac6c4;}.cls-46{fill:#6f4c5e;}.cls-47{fill:#94d4f0;}.cls-48{fill:#94d3ef;}.cls-49{fill:#b73b2e;}.cls-50{fill:#95d3ee;}.cls-51{fill:#afdef7;}.cls-52{fill:#e9e8e9;}.cls-53{fill:#361d16;}.cls-54{fill:#cec8cc;}.cls-55{fill:#8a6458;}.cls-56{fill:#fef4eb;}.cls-57{fill:#60444f;}.cls-58{fill:#b1dff7;}.cls-59{fill:#b73224;}.cls-60{fill:#e7776f;}.cls-61{fill:#724f5f;}.cls-62{fill:#fdbda5;}.cls-63{fill:#795765;}.cls-64{fill:#432036;}.cls-65{fill:#401d34;}</style></defs><title>Artboard 9</title><path class="cls-1" d="M387.36,261.28A147.94,147.94,0,0,1,384,286.67c.07,4.67-2.73,8-5.55,11.19-3,3.42-6.4,6.53-9.65,9.75a16,16,0,0,1-1.47,1.26,11.62,11.62,0,0,0-1.23.89,77.28,77.28,0,0,0-8.15,9.46c-.29.27-.68.39-1,.63a17.07,17.07,0,0,0-3.39,9.64c-1.56,25.95-1.52,51.93-1.77,77.91a64.05,64.05,0,0,0,0,7.59c.33,3.09-.65,5.25-3.38,6.65-1.25,1.75-3.05,1.95-5,1.77a13.17,13.17,0,0,0-6.21,0c-3.09.45-5.81-1-8.66-1.72-3.8-.86-5.52-3.1-6.23-7.11-5.23-29.39-10.81-58.72-14.93-88.29-.3-2.13-.64-4.25-.76-6.4-.07-3.17-.2-6.34.65-9.44.42-1.32.71-2.69,1.21-4.13-1.56,1.27-3.18,2.16-4.65,3.29-3.79,3-7.54,6-8.86,11-.65,5.31.64,10.44,1.6,15.57,4.63,24.67,10.8,49,16.9,73.33.54,2.14,1.15,4.27-1.36,5.68-5,2.5-10.26,2.58-15.63,2.22a2.56,2.56,0,0,1-1.49-.72c-2.57-.08-3.73-1.74-4.85-3.84-13-24.4-25.26-49.1-34.39-75.25-2-5.83-3.45-11.83-5.11-17.77-1.29-1.71-1.31-3.7-1.24-5.71.27-1.47.82-2.89.91-4,.07.11,0,.55-.44.93-.92-.18-1-.93-1.12-1.65.38-8.64,4.13-15.93,9.15-22.69,10.9-13.45,24.31-23.95,38.85-33.13a4.9,4.9,0,0,1,3.09-1.14c2.78.51,5.37,1.67,8.12,2.27,8.25,1.78,16.57,1.48,24.91,1,9.25-.51,18.43-2,27.73-1.94a17.09,17.09,0,0,1,3.64.22,3.36,3.36,0,0,1,1.64.87c.7,1.24-.16,2.15-.72,3.07-3.18,5.2-6.42,10.34-10,15.27a13.69,13.69,0,0,1-6.87,4.64c-2.73,1-5.53,1.79-8.25,2.8-6.57,2.43-11.4,6.52-12.4,13.87-.46,3.41-1.11,6.78-.6,10.31.38,2.66,1.75,3.64,4.05,3.61a18.06,18.06,0,0,0,12.59-4.66c3.81-3.51,6.91-7.63,10.33-11.48,5-5.61,10.73-10.45,16.24-15.5,4.83-4.44,9.35-9.18,14.11-13.68C385.22,262.26,385.88,261.05,387.36,261.28Z"/><path class="cls-2" d="M364.82,254.63c-10.14-.55-20.15,1.06-30.22,1.78-12.1.87-24.1,1.07-35.62-3.61-3.82-1.07-5.11-3.58-3.74-7.16,3.14-8.19,3.87-16.62,3.19-25.35a202.07,202.07,0,0,0-4.94-31.55,20.31,20.31,0,0,0-1.12-2.79c-.74-2.69-2.73-4.42-4.8-6-6-4.63-13.08-6.65-20.23-8.55-1.2-.32-2.12.59-3.24.44.07-1.06.1-2-1.4-2.13s-1.67-1.36-1.28-2.5c3-8.92,5.61-18,10-26.4,2-3.87,5.45-6.11,9.33-7.64a104.15,104.15,0,0,1,15.44-5c1.54-.34,3-.86,4.54-1.3,7.37,4.52,15.17,7.9,24,7.56a60.37,60.37,0,0,0,19.38-4.28A69.61,69.61,0,0,0,356,123.91c.89-.56,1.46-1.07.88-2.15,3.73-.28,7.11,1.17,10.55,2.21,7.12,2.14,14,4.87,19.91,9.56a5.22,5.22,0,0,1,1.68,1.69c5.08,6.57,8.66,13.94,11.83,21.56,1.43,3.45,2.8,6.92,4,10.45a2.92,2.92,0,0,1-.11,2.92,5,5,0,0,0-4.72-.33c-5.92,2.35-12,4.32-17.24,8.12-2.5,1.81-3.47,3.85-2.65,7,2.18,8.35,4,16.78,5.58,25.27.39,2.12.62,4.26,1,6.38a10.68,10.68,0,0,1-1.4,7.56c-5.74,10-11.27,20.13-17.83,29.64C366.77,254.46,366,255.11,364.82,254.63Z"/><path class="cls-3" d="M140.86,361.5c-1.32.87-2.7,1.67-3.94,2.64-1,.79-1.58.71-2.07-.5-5.9-14.61-15.93-26.49-25.67-38.55-1.35-1.67-2.57-3.44-3.85-5.16-3.43-2.94-4.76-7.13-6.6-11a83.56,83.56,0,0,1-3.87-19.54c-.07-.92-.38-1.87.35-2.68-.31-6.71-1-13.43-.81-20.12.27-8.14-.07-16.27.31-24.39,1.85.4,2.15,2.18,2.93,3.45,4.41,7.2,9.21,14.06,15.39,19.89a96.63,96.63,0,0,0,21.43,15.19,7.11,7.11,0,0,0,5.45.34,23.32,23.32,0,0,0,8.93-4.52,4.85,4.85,0,0,1,2.65-1.48c1.44.18,2.27,1.27,3.13,2.22a28.73,28.73,0,0,0,8.84,6.31,5.88,5.88,0,0,1,2.87,2.54c1.89,3.68,4.5,6.4,8.9,6.83a2.59,2.59,0,0,1,1.45.81c8,12.27,14.23,25.25,16.19,40,.32,2.37-.51,3.4-2.72,4a144.88,144.88,0,0,0-46.1,22.1A6.78,6.78,0,0,1,140.86,361.5Z"/><path class="cls-4" d="M151.65,275.36c-3.53,2.61-7,5.25-11.41,6.35a8.79,8.79,0,0,1-6.74-.66A95.33,95.33,0,0,1,109,262.49c-5.46-5.84-9.66-12.57-13.68-19.41-.19-.32-.44-.6-.65-.9-.82-3.59-2.9-6.67-4.11-10.11a136,136,0,0,1-7.33-36.71c-1-15.43,0-30.64,4.11-45.55a63.68,63.68,0,0,1,10-21.24,7.92,7.92,0,0,1,5.15-3.53c3.49-.32,5.24,1.95,6.77,4.54,3.59,6.09,5,12.9,6.4,19.69,3.31,16,5.3,32.15,7.82,48.25,2.61,16.61,8.56,31.57,20,44.12a105.24,105.24,0,0,0,17.26,15.61,3.14,3.14,0,0,1,1.35,4.51c-2.44,3.29-4.13,7.08-6.76,10.25C154.25,273.3,153.26,274.67,151.65,275.36Z"/><path class="cls-5" d="M367.19,253.43c1.15-3,3.38-5.25,4.92-8,4.12-7.31,8.33-14.59,12.73-21.74,2.35-3.82,1.13-7.61.51-11.4-1.6-9.74-3.92-19.34-6.25-28.92a4.13,4.13,0,0,1,1.41-4.48c4.78-4.3,10.68-6.41,16.5-8.7,1.47-.58,3.07-.86,4.47-1.55,1.87-.92,2.82-.35,3.31,1.5,3.53,13.84,6.89,27.72,8.92,41.87a70.16,70.16,0,0,1,.7,13.44c-.23,4.62-3.07,7.92-5.62,11.36-6.21,8.35-13.55,15.71-20.59,23.34a13.62,13.62,0,0,0-.84,1.12C381.91,266.53,376.6,271.93,371,277c-8.48,7.67-16.76,15.52-24,24.4-3.84,4.72-8.74,7.59-15,7.68-4.62.07-5.34-.58-5.68-5.07a36.3,36.3,0,0,1,1-11.42,15.72,15.72,0,0,1,8.35-10.71A69.07,69.07,0,0,1,348,277.17a12.62,12.62,0,0,0,7.48-5.53c3.49-5.55,7.09-11,10.64-16.52A5.93,5.93,0,0,1,367.19,253.43Z"/><path class="cls-6" d="M116.1,118.33a189.85,189.85,0,0,1-5-29.59C111,87,111,85.19,111,83.42a48.8,48.8,0,0,0,0-10.67c.68-15.76,4.27-30.45,16.58-41.47a43.73,43.73,0,0,1,24.48-10.83c2.8.35,5.6-.16,8.41,0,9.13.73,16.29,5.25,21.84,12.17,6.58,8.2,9.46,17.86,9.68,28.33a36.35,36.35,0,0,0,0,9.55,105.29,105.29,0,0,1-7.71,33.92c-1.79-.81-1.44-2.49-1.44-3.91a49.14,49.14,0,0,0-1.68-14.18,6.78,6.78,0,0,0-1.59-3.23,1.81,1.81,0,0,1-.27-1.26c2.69-3.39,3.14-7.93,5.78-11.38.93-1.21.17-2.13-1.15-2.48s-2.79-.37-3.95-1.29c-1.9-4.46-2.05-9.27-2.74-14a9.41,9.41,0,0,1,0-1.68c0-2-.52-2.66-2.66-1.81-8.63,3.42-17.36,6.58-26.08,9.86.47.52,1.17.51,1.69.85a2.31,2.31,0,0,1,1.14,2.88,2.17,2.17,0,0,1-2.72,1.43c-2.3-.47-4.68-.55-6.92-1-3.06-.68-5.72.11-8.48,1-2.05.45-2.93,1.41-1.51,3.4a3.2,3.2,0,0,1,.59,2.57c-.34,1.12-.1,2.38-.88,3.38-6.57,3.35-7.11,9.87-8.24,16-1.34,7.27-.46,14.54.34,21.8.17,1.56.67,3.13.13,4.72C121.22,117.21,119.22,119.58,116.1,118.33Z"/><path class="cls-5" d="M219.68,360.29c-1.32,0-1.88.9-2.39,2q-13.38,28.28-26.82,56.52c-1.56,3.29-3.15,6.57-4.73,9.85-3.21,1.34-6.32.31-9.44-.4-1-.22-2.08-.88-2.06,1l0,1.13c-.07,4.06-.06,4-4,3.29-3.23-.55-6.24.36-9.21,1.67-1.56.69-1,2.85-2.65,3.29-.2-5.34-2.56-10.11-4-15.1-4.88-16.57-9.09-33.28-11.21-50.46-.3-2.4.63-5.11-1.67-7,1.14-1,2.6-1,4-1.19,7.93-1.27,15.89-2.29,23.86-3.32,1.48-.19,3-.45,4.33.51.79,1.45,1,2.85-.32,4.13-1.55-.15-.71,1-.71,1.52,0,9.71.16,19.42-.1,29.13-.16,5.75-.07,11.48,0,17.22a13.58,13.58,0,0,0,.81,4.63c-.32.17,0,0,.09.24.11.57.08-.08.17-.06,1.14-7.41,2.41-14.81,3.59-22.21,1.73-10.84,3.28-21.71,6-32.35.35-1.35.51-2.8,1.74-3.76,4.18-1.67,8.63-1.11,12.95-1.41,6-.42,12.09-.15,18.14-.08C217.36,359,218.93,358.6,219.68,360.29Z"/><path class="cls-5" d="M351.33,69.4c4.69,1.75,4.72,6.06,4.89,9.86a12.47,12.47,0,0,1-3,8.85c-1.63,1.85-3.48,3.28-6.11,2.46-1.37-.43-1.38.53-1.62,1.26-1.23,3.6-3.23,6.93-3.6,10.81-.37.12-.19-1.59-1-.21a27.69,27.69,0,0,1-9.4,9.39c-6.13,3.82-12.42,4-18.92,1.11a5.62,5.62,0,0,1-2.34-1.91A35.25,35.25,0,0,1,297.5,97.85a2.34,2.34,0,0,0-1.89-1.43c-7.05-.7-10.64-12.41-8.29-17.69.71-1.59,2.23-2.19,3.36-3.25,1.5-2,1-4.49,1.26-6.72.47-3.69,1.74-6.41,5.18-8.35,4.14-2.34,7.46-5.93,11.58-8.38,6-3.53,12.54-3.91,19-2.69,6.23,1.18,9.93,6,13,11.23a47.71,47.71,0,0,1,4.57,12c.3,1.16.4,2.69,2,2.7,1.39,0,1.83-1.41,2.37-2.48S350.07,70.19,351.33,69.4Z"/><path class="cls-7" d="M219.68,360.29a149.93,149.93,0,0,0-24.62-.16c-3.44.19-6.93,0-10.33.83a21.42,21.42,0,0,1-11.29,1.12c-9.62.61-19.11,2.29-28.64,3.67-1.1.16-2.22.16-3.34.23-.2-1.49.2-3.07-.6-4.48,3.55-3.38,7.81-5.78,11.95-8.3a137.48,137.48,0,0,1,37.46-16.27c1.75-.45,2.19-1.05,2-2.84-1.66-12.78-6.8-24.25-13.13-35.28-1-1.7-2.07-3.34-3.11-5,.27-.94,1.08-1.21,1.86-1.51,5.79-2.23,7.52-4.85,7.19-10.85a13,13,0,0,1-.18-2.5,3.35,3.35,0,0,1,1.51-2.56c1.42.13,1.68,1.36,2.12,2.34q4.41,9.9,8.13,20.08c3.49,9.62,7.65,19,13.48,27.45,1.79,2.61,1.74,2.56,4.17.53a41.32,41.32,0,0,1,21.21-9,1.82,1.82,0,0,1,1.81.48,1.15,1.15,0,0,1-.36,1.57c-3.44,11.78-7.18,23.45-11.71,34.87a17.69,17.69,0,0,0-1.09,2.88C223.6,360.11,222.08,360.88,219.68,360.29Z"/><path class="cls-8" d="M349.17,434.12c3.14,6.3,6.19,12.64,7.47,19.64a27,27,0,0,1,.89,6.87,3.57,3.57,0,0,1-2.68,1.35c-8.57,1.56-16.54,4.85-24.35,8.53-11.37,5.37-23,6.51-34.95,2.44-.36-.13-.68-.32-1-.48,0-2.65,2.38-4.32,2.77-6.8.45-2.06,2.39-2.45,3.86-3.24,4.12-2.21,8.39-4.15,11.93-7.31a5.77,5.77,0,0,0,1.51-1.5,134.61,134.61,0,0,0-20.17,7.87A45.38,45.38,0,0,1,263,464.34c-1.27-.33-2.58-.59-3.29-1.9.71-4.29,3.22-7.1,7-9.1,4-2.13,8.32-3.85,11.62-7.14,6.07-6.06,12.09-12.18,18.16-18.25a3,3,0,0,0,.88-2.27c.73-.17,1.25.3,1.81.61a18.21,18.21,0,0,0,16,1.44c1.53.1,1.79,1.45,2.35,2.46,2.51,4.52,3.62,9.53,5,14.92,3.53-3,6.7-5.77,8.24-10,3,4.61,8,4.45,12.54,4.89,3.21.31,4.43-1,5.13-4.22C348.51,435.19,348.55,434.52,349.17,434.12Z"/><path class="cls-9" d="M357.27,319.25a45.09,45.09,0,0,1,8.83-10.11,4.08,4.08,0,0,1,2-.34c8.44.33,16.89.11,25.33.12,8.25,0,16.51.15,24.76-.08a3.39,3.39,0,0,1,1-.13c1.39.38,3,0,4.19,1a4.79,4.79,0,0,1,2.94,5.92c-.72,3.18-2.24,4.48-5.62,4.2-3.16-.26-3.62,1-3.61,3.81q.12,69,.05,138c0,3.93-1.56,6.34-4.59,7.13s-5.87-1-6.66-4.25c.61-1.05.3-2.21.3-3.3q0-68.4,0-136.79c0-1,0-2.05,0-2.43.05.28,0,1.21,0,2.14q0,68.67,0,137.34c0,1,.27,2.07-.27,3-.93-1.06-.5-2.34-.5-3.51q-.06-70.56-.05-141.14c-.94-.67-2-.32-3-.32q-19.5,0-39,0A44.46,44.46,0,0,1,357.27,319.25Z"/><path class="cls-9" d="M99.19,309.12q3.07,5.4,6.14,10.8c-2.62,0-5.25.12-7.87,0-2.15-.13-3,.46-2.91,2.79.2,3.08,0,6.18,0,9.28q0,64.55,0,129.09c0,1.17.45,2.45-.5,3.5a5.2,5.2,0,0,1-.26-2.76q0-68.77,0-137.54a8.23,8.23,0,0,1,0-2.14c0,.51,0,1.51,0,2.5q0,68.07,0,136.14A17.24,17.24,0,0,1,93,466.8c-1.39,2.07-3.35,2.54-5.65,2a5.73,5.73,0,0,1-4.39-4.92,14.61,14.61,0,0,1-.07-2.81q0-68.66,0-137.32c0-3.8,0-3.8-3.75-3.8-1.69,0-3.39-.11-5.07,0-3,.22-5.08-1-6-3.91s.38-4.67,2.54-6.2a3.05,3.05,0,0,0,.51-.66c1-1,2.25-.77,3.44-.78,7.28-.06,14.56,0,21.84-.06A3.68,3.68,0,0,1,99.19,309.12Z"/><path class="cls-3" d="M116.1,118.33c2.72.24,4.61-2.22,7.24-2.24a1.71,1.71,0,0,1,.46,1.7c-.83,1.67-2.15,3-3,4.74a21.69,21.69,0,0,0-1.11,15.35c3.69,13.59,9.64,26.35,15,39.32,6.55,15.82,13.8,31.36,19.08,47.69,2,10.19,4.46,20.29,7,30.38.22.89.5,1.84-.24,2.67a93.16,93.16,0,0,1-18.17-16.52,86.42,86.42,0,0,1-10.9-15.55,73.86,73.86,0,0,1-7.54-22.41Q122,192.75,120.3,182c-1.29-8.08-2.26-16.21-3.77-24.24-1.67-8.95-3-18-7.11-26.35-1.54-3.15-3.52-5.45-6.93-6.39,3.72-2.32,8-3.47,11.86-5.47C115,119.23,115.74,119.07,116.1,118.33Z"/><path class="cls-10" d="M351.33,69.4c-.51,1.78-.7,3.69-1.82,5.26-.64.91-1.25,2.07-2.56,1.87s-1.86-1.45-2.21-2.65c-.57-2-1-4-1.65-5.93a34,34,0,0,0-8-13.7c-5.3-5.37-11.88-5.32-18.61-4.3-4.86.73-8.89,3.28-12.64,6.34-2.75,2.24-5.44,4.6-8.68,6.16a3.35,3.35,0,0,0-1.81,2.63A46.76,46.76,0,0,0,292.3,74c0,1,.16,2.34-1.62,1.5a49.77,49.77,0,0,1-.86-9.51c.05-1.38-.49-1.79-1.83-1.68a21.32,21.32,0,0,1-7.24-.65c-.95-.26-1.83-.54-1.47-1.87,3.54-13.13,9.38-24.91,22.62-30.45,13.73-5.74,27.22-3.66,39.06,5.26,8.83,6.67,10.82,16.69,10.71,27.2C351.65,65.66,351.45,67.53,351.33,69.4Z"/><path class="cls-11" d="M123.43,117.64l-.09-1.55c-1.64-10.73-2.81-21.49,0-32.2,1-3.76,1.92-7.69,5.7-9.94a3.16,3.16,0,0,1,2.08-.63c1,1,.83,2.15.49,3.33-5,5.56-5.29,12.6-5.76,19.48-.44,6.54.8,13,1.3,19.53,1.53,6.33,2.73,12.76,5.41,18.76,2.06,4.6,4.23,9.13,8,12.64,5.34,5.86,11.75,8.82,19.8,7.18a15,15,0,0,0,8.66-5.36c5-5.89,6.91-13.1,8.62-20.39.23-1,.39-2,.58-3,.08-1.3.48-2.56.59-3.86a11,11,0,0,1,.25-2.22,11.27,11.27,0,0,0,.26-4.09A103.47,103.47,0,0,0,178,87.14c-.11-1.7.21-3.23,1.75-4.26,1.56-.64,1.38.78,1.64,1.49,1.79,4.78,2.19,9.77,2.28,14.82,0,1.75-.41,3.58.64,5.2L183,122.87a18.86,18.86,0,0,1-.5,6.52c-1.67,7.93-4.18,15.5-9.14,22.07A14.35,14.35,0,0,1,170,154.8,21.24,21.24,0,0,1,164.7,158c-1.64.6-1.78,1.63-1.3,3.11a62.3,62.3,0,0,0,38.07,40.68,82.91,82.91,0,0,0,16,4.14,75.41,75.41,0,0,0,17.8,1c-5-5.95-7.13-12.74-8.07-20a15.44,15.44,0,0,1-.31-6.66,21.31,21.31,0,0,0,0-8.53c-.62-2.94.31-5.79.45-8.69a100.5,100.5,0,0,1,4.1-16,6.6,6.6,0,0,1,1.54-2.95c1.75-.53,2.78.29,3.44,1.82a5.38,5.38,0,0,1-.4,3,75.6,75.6,0,0,0-3.18,12.39c-.19,1.11-.85,2-1,3.13a36.18,36.18,0,0,1-.92,11.36,54.31,54.31,0,0,0,4.52,23.7c3,7,4.7,8,12.18,7.67,3.24,1.23,7,.86,9.91,3,.72,2.22-1,2.76-2.43,3.37a177.86,177.86,0,0,0-24.41,12.63,174.21,174.21,0,0,0-40,33.74,30.75,30.75,0,0,0-3.32,3.79c-1.25,1.24-2.15,2.85-3.81,3.66a3.16,3.16,0,0,1-3.07-1.88,2.27,2.27,0,0,1,.36-1.6c3.89-4.5,7.95-8.85,11.83-13.37,2.56-3,5.83-5.2,8.51-8.05a31.87,31.87,0,0,1,3.58-3.09,176.39,176.39,0,0,1,33.3-22.92c3-1.6,5.84-3.4,9.1-4.29-.38,0-.69.2-1.05.19-5.1-.67-10.22-.22-15.33-.25a87,87,0,0,1-28.35-4.75c-9.66-3.63-18.58-8.47-25.89-15.93A72,72,0,0,1,158.74,162c-.48-1.53-1.16-2.38-2.88-2.46a26.71,26.71,0,0,1-14.13-4.81c-8.75-6.56-13.06-15.93-16.17-26C124.45,125.2,123,121.57,123.43,117.64Z"/><path class="cls-12" d="M368.07,307.42c2.57-2.56,5.08-5.18,7.72-7.67a29.52,29.52,0,0,0,8.2-13.08q24.61,0,49.23,0c1.28,0,2.63-.32,3.83.45-.94.65-2,.32-3,.32-15.48,0-31,0-46,0a9.34,9.34,0,0,1,2.23,0q22.07,0,44.14,0a6.29,6.29,0,0,0,3-.25,11,11,0,0,1,0,21.34c-21.52.32-43,.28-64.54.24C371.22,308.82,369.31,309.22,368.07,307.42Z"/><path class="cls-1" d="M257.45,210.8c-1.16-1.31-2.88-1.39-4.36-1.56a9.26,9.26,0,0,1-5.49-2.09c1.2-.49,1-1.63,1.26-2.61A84.23,84.23,0,0,1,261,177.37c2.07-1,4.38-.44,6.53-.94,9.46.38,18,3.26,25.2,9.55l1.26,2.2a14.3,14.3,0,0,1-.67,5.2,93.83,93.83,0,0,1-12,26.08,3.21,3.21,0,0,1-1.82,1.63c-2.36-.32-3.77-2.26-5.65-3.39A74.94,74.94,0,0,0,257.45,210.8Z"/><path class="cls-4" d="M227.48,180.26a32.16,32.16,0,0,0,.45,6.65,79.09,79.09,0,0,1-8.68,17.41,7.08,7.08,0,0,1-2,2.31A60.79,60.79,0,0,1,201,202.28c.75-5.14-.05-10.28-.32-15.38A280.57,280.57,0,0,0,197,154.35c-1.11-6.45-2.58-12.82-4.3-19.13-.24-.88-1.25-2.09.41-2.78a99.09,99.09,0,0,1,15.27,32c2.66-2.38,5.06-4.49,7.43-6.63.76-.69,1.41-1.61,2.59-.72a110.28,110.28,0,0,1,9.71,5.77c0,3-1,5.91-.61,8.92A26.55,26.55,0,0,1,227.48,180.26Z"/><path class="cls-13" d="M158.37,438.59c1-4.12,6.1-6.73,11.65-5.87a35.61,35.61,0,0,1,3.51,1v-4.59c1.91.82,1.09,2.53,1.18,3.87a48.45,48.45,0,0,0,6.69,21.81c1.88,3.13,4.87,4.94,8,6.44a47.52,47.52,0,0,1,11.22,7.34c-.56.49-1.88.11-1.37,1.77.69,2.26-.68,3.92-2.5,5.1a15.55,15.55,0,0,1-8.66,2.57,16.79,16.79,0,0,0-6.16,0c-9.15.06-15.75-3.85-19-13.05l-.66.64c0,2-.06,4,0,6.06.06,1.38-.41,1.66-1.79,1.58-7.13-.41-7.13-.37-7.77-7.58-.67-7.5-.25-14.79,3.57-21.57A17.06,17.06,0,0,0,158.37,438.59Z"/><path class="cls-3" d="M193.12,132.44c-.55,1.81.48,3.41.95,4.95,3.5,11.48,4.91,23.33,6.27,35.16a156.53,156.53,0,0,1,1.32,20.67c0,2.39.55,4.78.44,7.2,0,.94,0,1.7-1.14,1.86a57.1,57.1,0,0,1-23.57-15.82c-.6-1.39-.24-2.76.05-4.13,2.14-10,4.29-19.94,5.53-30.07a45.52,45.52,0,0,0-.71-17.28,11.07,11.07,0,0,1-.42-5.51l1.11-6.61a2.49,2.49,0,0,0,1.77,1.94A17.39,17.39,0,0,1,193.12,132.44Z"/><path class="cls-14" d="M310.19,111c11.95,6.69,21.69,2.21,29.12-7.51.78-1,1.46-2.11,2.34-3.38.08,1,.14,1.74.2,2.51a22.79,22.79,0,0,0,1.51,9.92c2.49,6,7.21,8.83,13.56,9.2l2.22.85a67.43,67.43,0,0,1-26.31,11.57c-11.06,2.43-21.08-.05-30.64-5.53-.72-.41-1.61-.69-1.44-1.81,5.87-1.28,9.08-5.53,9.41-12.47C310.22,113.26,310.18,112.14,310.19,111Z"/><path class="cls-12" d="M99.19,309.12,71,309.17c-2.67-.36-5.41.47-8-.51,1-.63,2-.3,3-.31q14,0,28.09,0c-8.57,0-17.15,0-25.72,0-1.94,0-3.9-.38-5.81.24a11,11,0,0,1-8.35-11.71,11.17,11.17,0,0,1,10.92-10.15c10-.1,20.05,0,30.08,0,1,7.18,1.59,14.45,4.1,21.36C99.42,308.35,99.24,308.76,99.19,309.12Z"/><path class="cls-15" d="M200.6,468.55c-.64-.09-1.6.06-1.88-.31-3.22-4.26-8.41-5.47-12.67-8.05-4.73-2.87-6.89-7.23-8.64-11.92-2.08-5.56-3.85-11.26-3.4-17.35a2,2,0,0,0-.48-1.83c0-.83-.09-1.65-.15-2.79,4.05,2,8.18,2.33,12.36,2.35,1,3.5,2,7,3.13,10.49a22.19,22.19,0,0,0,13.06,14.21,22.53,22.53,0,0,1,6.08,3.47c4,3.49,3.51,7.72-1.23,10.07A13.71,13.71,0,0,1,200.6,468.55Z"/><path class="cls-16" d="M294.53,472.47c.7-.6,1.42-.21,2.11,0a43.57,43.57,0,0,0,32.64-2.28c9.06-4.23,18.31-7.93,28.25-9.57,1.33,4.48.89,5.44-3.42,6.12-6.87,1.07-12.87,4.37-19.08,7.15-8.52,3.82-17.16,6.86-26.75,5.93a75.46,75.46,0,0,1-9.89-1.82C295.3,477.28,293.88,475.67,294.53,472.47Z"/><path class="cls-5" d="M349.17,434.12c-.2,5.7-2.92,7.8-8.66,6.62-1.73-.36-3.4-1-5.13-1.28-2.58-.38-4.47-1.37-4.83-4.22a25.36,25.36,0,0,1-1.7-14.06c2.84.42,5.48,1.84,8.43,1.67a49,49,0,0,1,6.18,0c1.8.2,3.29-.85,5-1.22Z"/><path class="cls-16" d="M259.68,462.44a43.88,43.88,0,0,0,34.3-1.57A127.57,127.57,0,0,1,314.33,453a2.1,2.1,0,0,1,1.9.08,31.33,31.33,0,0,1-9.94,7.52,58.64,58.64,0,0,0-9,5.11c-5.43,2-10.75,4.25-16.64,4.79a44.47,44.47,0,0,1-19.58-2.7C258.33,466.75,259.5,464.39,259.68,462.44Z"/><path class="cls-17" d="M231.67,164c.64-6.19,2.59-12.06,4.4-18,.39-1.46,1.63-1.31,2.71-1.43,7.3-.74,11.62-7.23,9.54-14.33-.27-.95-1-1.83-.45-2.92,4.56-1.76,5.24-1.64,7.83,1.39a7.83,7.83,0,0,1,.94,9.54c-3.91,6-9.32,10.7-14.5,15.55a88.93,88.93,0,0,0-10,10.2C232,164.29,231.82,164.27,231.67,164Z"/><path class="cls-17" d="M228.12,162.9a22.52,22.52,0,0,1-9.71-5.77,38.65,38.65,0,0,1,4.06-13,68.62,68.62,0,0,0,7.12-20.5c.26-1.31.15-3.23,1.86-3.35,1.52-.1,2,1.69,2.66,2.91a9.06,9.06,0,0,0,.65.88c-.07,1.53-1.46,2.06-2.31,3a10.8,10.8,0,0,0-.38,14.86c.59.69,1.41,1.27,1.19,2.37C230.86,150.29,229.53,156.6,228.12,162.9Z"/><path class="cls-5" d="M315.35,427.94c-3.18,2.51-6.91,2.08-10.38,1.4-2.71-.53-5.62-1.33-7.62-3.66-.45-3.08-2.05-5.88-2.33-9,5.74,0,11.54.42,17-2.1a1.36,1.36,0,0,1,1,.92c.93,3.44,2.12,6.81,2.74,10.33A2.25,2.25,0,0,1,315.35,427.94Z"/><path class="cls-18" d="M233.26,144.26c-7.81-6.44-5.12-16.38,1.5-20.19,5.84-2.16,9.16-1.33,13.11,3.3,3.09,6.24,1.82,12.59-3.24,16.17a9.81,9.81,0,0,1-6,1.94c-.9,0-1.88-.3-2.58.57A3.5,3.5,0,0,0,233.26,144.26Z"/><path class="cls-19" d="M292.77,186c-5.91-3.69-12-7-19-8.23A25.8,25.8,0,0,0,268,177a7.18,7.18,0,0,1-5.12-.66c-.21-1.66.95-2.94,1.21-4.48a2.49,2.49,0,0,1,3.21-1.2c7.15,1.95,14.29,3.89,20.29,8.48C289.91,180.87,292.71,182.45,292.77,186Z"/><path class="cls-9" d="M236.93,319.81l0-1.52c3.62-.87,4.32-3.61,4.43-6.79a3,3,0,0,1,1.53-2.78c2.23-.51,4.45-.82,6.6.33l.42,2a2.85,2.85,0,0,1,.16,2.63q.28,3.09.58,6.16Z"/><path class="cls-20" d="M93,466.8c-.45-2.1.64-4,.64-6.13q-.16-68.51-.08-137v-3.05h.56v144A3.06,3.06,0,0,1,93,466.8Z"/><path class="cls-21" d="M368.07,307.42a15.4,15.4,0,0,0,5,.64q31.89-.13,63.79-.22c.48,0,.58.36.65.74a.57.57,0,0,1-.45.14c-7.19.28-14.38.35-21.58.41-14.81.13-29.63.05-44.45,0-1.38,0-2.83.29-4.07-.66Z"/><path class="cls-22" d="M366.93,308.5l30.29.11,39.81.11c-3.48,1-7,.22-10.56.44-1,.07-2.06.06-3.08.08a8.25,8.25,0,0,1-3.89,0h-.64a2.55,2.55,0,0,1-1.09.21h-49a2.88,2.88,0,0,1-1.09-.19l-1.62-.12Z"/><path class="cls-23" d="M437.47,287.24c-.94.94-2.13.52-3.21.52-14.71,0-29.41,0-44.12,0-1.29,0-2.57.14-3.85.21v-.71l50.77-.14A.4.4,0,0,1,437.47,287.24Z"/><path class="cls-24" d="M357.27,319.25c2.12-.76,4.22.1,6.33.09,12.88-.07,25.76,0,38.64,0,1.05,0,2.26-.46,3.15.59L357,319.85Z"/><path class="cls-25" d="M231.67,164a2.07,2.07,0,0,1,.5,0c1.79.4,2.25,1.31,1.53,3.1-1.13,2.8-1.23,6-2.8,8.63A45.55,45.55,0,0,1,231.67,164Z"/><path class="cls-26" d="M62.56,308.58c.09-.52.29-.7.92-.69,9.64.08,19.28.06,28.92.24,1,0,2.81-1,2.71-.28-.21,1.55-2.07.7-3.17.71-9.65.09-19.29.08-28.94.1l-.23,0Z"/><path class="cls-27" d="M160.5,20.42a14.43,14.43,0,0,1-8.41,0A20.72,20.72,0,0,1,160.5,20.42Z"/><path class="cls-28" d="M111,72.75a22.77,22.77,0,0,1,0,10.67A60.36,60.36,0,0,1,111,72.75Z"/><path class="cls-29" d="M262.89,176.3,268,177c-2.28,1-4.65.28-7,.41C261.25,176.31,262.19,176.51,262.89,176.3Z"/><path class="cls-30" d="M192,70.47a18.1,18.1,0,0,1,0-9.55A41.78,41.78,0,0,1,192,70.47Z"/><path class="cls-31" d="M181.91,478a8.07,8.07,0,0,1,6.16,0A19.29,19.29,0,0,1,181.91,478Z"/><path class="cls-32" d="M419.5,309.25h3.89l0,.48C422.12,309.55,420.72,310.19,419.5,309.25Z"/><path class="cls-33" d="M389.06,135.22a3.37,3.37,0,0,1-1.68-1.69A1.59,1.59,0,0,1,389.06,135.22Z"/><path class="cls-12" d="M235.51,286.77l23.05,0c-3.26,5.11-6.82,10.07-8.1,16.16-.43,2-.64,4-1,6.08l-6.82,0c-1.52-1.7-.92-3.89-1.15-5.81a28.35,28.35,0,0,0-5-13.51C235.9,288.89,235,288.06,235.51,286.77Z"/><path class="cls-34" d="M307.33,319.91H294.54c1.41-5,5.23-7.93,9.1-10.84,1.59-.35,3.25-1.39,4.64.44A49.08,49.08,0,0,0,307.33,319.91Z"/><path class="cls-35" d="M308.28,309.5c-1.49-.78-3.1-.2-4.64-.44l5.34-3.77A11.9,11.9,0,0,1,308.28,309.5Z"/><path class="cls-36" d="M343.46,422.86a12.32,12.32,0,0,1-6.18,0A7.72,7.72,0,0,1,343.46,422.86Z"/><path class="cls-37" d="M250.09,313.65c-.06-.88-.11-1.75-.16-2.63.09-.62.18-1.24.26-1.85C250.44,310.7,251,312.22,250.09,313.65Z"/><path class="cls-38" d="M367.19,253.43a1.93,1.93,0,0,1-1.1,1.69l-1.27-.49C365.85,254.69,366.32,253.67,367.19,253.43Z"/><path class="cls-5" d="M185.43,278.76a21.28,21.28,0,0,1,.23,5.29c-.52,5.05-2.73,8.47-8.16,9.07a5.77,5.77,0,0,0-1.51.68c-5.12-.29-8.37-3.12-10.41-7.61a2.79,2.79,0,0,0-1.5-1.59c-5-1.94-8.84-5.42-12.43-9.24a72.33,72.33,0,0,0,8.77-12.42c.24-.45.83-.7,1.25-1,3.39.61,6.1,2.93,9.4,3.77,4.33,1,8.33,2.65,11.32,6.14C184.11,273.82,185.57,275.94,185.43,278.76Z"/><path class="cls-7" d="M170.68,266.19c-3.14-1.14-6.32-2.19-9-4.29-.17-1.38,1.08-3.16-1.13-4-2.61-11-5.51-22-7.42-33.22-4.49-21.35-6.58-43.1-11-64.46-.4-1.92-1.41-3.94-.13-5.95,4.76,2.73,9.74,4.76,15.37,4.52,1.14-.05,1.4.73,1.62,1.57a73.06,73.06,0,0,0,10.5,21.88,4.46,4.46,0,0,1-.28.8c.08,4.62-.47,9.25.4,13.84.43,7.11.22,14.22.06,21.33a5.67,5.67,0,0,1-.16,1,34.6,34.6,0,0,0,0,10.36,70.94,70.94,0,0,0,3.92,16.56c.2.54.37,1.1.57,1.65.33,1.38,1.24,2.59,1.16,4.09-.45,1.91-2.16,1.81-3.55,2.12s-2.6.08-3.89.25c-.73.09-1.62.1-1.88.93s.49,1.34,1.09,1.75c3.59,2.53,7.31,4.79,11.65,5.83,1.06.25,2.28.27,2.72,1.59l-.49.86C177.36,265.1,173.94,264.8,170.68,266.19Z"/><path class="cls-5" d="M131.13,76.66l0-3.34c.31-1.13-.08-2.37.58-3.44,1.3,1,1.25,2.67,1.71,4.06,1.5,4.51,3.82,6.07,9.72,6.44,4.54.28,7.78-1.57,9.53-5.45a25.06,25.06,0,0,0,1-2.34c.75-2.25,2.42-2.49,4.49-2.34s3.5.85,3.78,3c1.1,8.34,7.43,9.76,14.81,8.55,1-.16,2-.81,2.94,0,0,.37,0,.74,0,1.12l-1.26,3.87c-1.29,5.31-5,9-8.63,12.7a24.72,24.72,0,0,1-4.15,3.29c-8.16,5.92-16,4.48-23.76-.94-.84-.59-1.7-1.14-2.54-1.72-5.9-5.54-8.44-12.54-8.85-20.45A6.29,6.29,0,0,1,131.13,76.66Z"/><path class="cls-5" d="M132.93,63.69c5.1-3.07,10.27-.92,15.41-.18,1.11.16,2.1.36,2.54-.93s-.25-1.94-1.41-2.28c-.53-.16-1.06-.35-1.61-.48s-1-.19-2.39-.44L177.6,47.3c.13,6.64,1.48,12.92,2.56,19.25a3.49,3.49,0,0,1-4.46,0c1.8-2.8,1.31-3.56-2.44-3.72a28.35,28.35,0,0,0-3.91,0c-.46,0-1,.14-1.09.67-.09.71.53.91,1.08,1,1.19.25,2.42,0,3.61.24.77.14,2,0,1.38,1.53a6.11,6.11,0,0,1-3.29.46,16.93,16.93,0,0,0-10.45,2.46,3.84,3.84,0,0,1-4.73-.23c-4.84-3.93-10.64-4.11-16.43-4.48C137.26,64.38,134.94,65.21,132.93,63.69Z"/><path class="cls-39" d="M175.72,66.06c1.4.92,3,.27,4.44.49s3,.41,4.44.67a1.8,1.8,0,0,1,1.71,1.59c.11.94.26,2.08-.8,2.45-1.37.48-1.47,1.6-1.73,2.63a16.75,16.75,0,0,1-4.08,7.87,22.28,22.28,0,0,1-8.27,1.15c-5.29-.19-8.63-2.7-9.74-7.91-.57-2.68-1.3-4.36-4.61-4.11-1.53.11-2.3.41-2.63,1.72-2,8.18-8.17,9.43-14.71,8-3.57-.76-6-2.56-6.88-6.13-.4-1.54-.74-3.09-1.11-4.64-.06-.62.2-1.41-.51-1.77-1.4-.7-1.41-1.83-1.06-3.08.4-1.44,1.67-1.22,2.75-1.34,5.23.17,10.45-.1,15.65,1a16.65,16.65,0,0,1,7.27,3.36c1.15.93,2.5,1.8,3.77.82,4.14-3.2,8.9-3,13.69-2.92.47,0,.94-.06,1.4-.09A.71.71,0,0,1,175.72,66.06Z"/><path class="cls-40" d="M172.37,376.26q0,14.53,0,29.09c.65,3-.13,6,.43,9l.09,4.54c-2-2.5-1.45-5.68-1.41-8.33q.28-16.86.3-33.7V363.79c1.52.39,1,1.52,1.15,2.31,0,.54,0,1.08,0,1.62C172.1,370.53,173.08,373.44,172.37,376.26Z"/><path class="cls-10" d="M333.71,63.1h.84c1.7,0,3.74-.2,3.83,2.17.09,2.55-2,2.37-3.84,2.51-2.23.17-4.45.51-6.66.86-1.63.26-2.91-.24-3.26-1.85s.75-2.49,2.15-2.79A30.56,30.56,0,0,1,333.71,63.1Z"/><path class="cls-10" d="M299.45,71.7c-1.64.26-2.91-.32-3.12-2-.19-1.52.85-2.43,2.34-2.63,2.5-.34,5-.73,7.53-.84,1.41-.06,2.94.37,2.94,2.28s-1.24,2.59-3,2.52A34.3,34.3,0,0,0,299.45,71.7Z"/><path class="cls-41" d="M319.17,102.65c-.56,0-1.12,0-1.67-.1-.93-.12-1.68-.58-1.49-1.61s.87-1.85,1.95-1.48a5.11,5.11,0,0,0,3.76-.45,1.59,1.59,0,0,1,2.29.89c.47,1-.41,1.5-1.08,2A5.89,5.89,0,0,1,319.17,102.65Z"/><path class="cls-42" d="M302.84,77.87a5.13,5.13,0,0,0,2.7-.46,1.39,1.39,0,0,1,1.84.82,1.44,1.44,0,0,1-.53,2,6.13,6.13,0,0,1-5.85.51,1.38,1.38,0,0,1-.9-1.8C300.54,77.4,301.72,77.67,302.84,77.87Z"/><path class="cls-43" d="M330.49,74.8a3.71,3.71,0,0,0,2.54-.32c1-.37,1.93-.25,2.31.87s-.37,1.72-1.3,2.14a6.42,6.42,0,0,1-3.84.49c-1.11-.19-2.47-.4-2.32-1.87S329.21,74.25,330.49,74.8Z"/><path class="cls-3" d="M235.51,286.77c1.23,2,2.53,3.88,3.68,5.9,2.9,5.09,3.26,10.75,3.5,16.42-.94,1.51-.82,3.33-.81,4.88,0,3.66-1.72,4.67-4.93,4.32-9,1.17-17.34,3.89-23.81,10.67-1.46,1.54-1.89.07-2.46-.68-5.31-7-9-14.87-12.29-22.92-3.54-8.54-6.21-17.44-10.3-25.76-.53-1.09-1.13-2.14-1.69-3.21-.82-3.17-2.6-6.06-2.78-9.42l3.07-3.39c1.43-1.07,3.22-.79,4.81-1.26A81.8,81.8,0,0,0,205.86,257c1.27-.64,2.59-1.6,4.17-.75a59.41,59.41,0,0,0,12.34,17.18C226.81,277.8,231.13,282.31,235.51,286.77Z"/><path class="cls-44" d="M183.62,267c1.51,3,3,5.95,2.78,9.42l-1,2.37c-2.24-7.33-7.66-10.93-14.75-12.57,3.14-2.62,6.56-2.3,10.08-1A5.22,5.22,0,0,0,183.62,267Z"/><path class="cls-45" d="M405.94,464.57V320.38c.95.81.55,1.64.55,2.33q0,69.48,0,139c0,1,.36,2.09-.57,2.91Z"/><path class="cls-32" d="M367.72,309.26l51.14,0c-.68.73-1.57.49-2.39.49H370.11C369.29,309.73,368.4,310,367.72,309.26Z"/><path class="cls-4" d="M142,154.31c1.74,10.14,3.58,20.26,5.21,30.42,2.06,12.85,3.95,25.73,5.9,38.59a9.34,9.34,0,0,1,0,1.4c-6.38-17.87-14.06-35.2-21.42-52.67-4.79-11.35-10-22.6-12.85-34.64-1.7-7.14-1-14.12,4.58-19.77,1.65,6.69,3.19,13.4,6,19.75A45.72,45.72,0,0,0,142,154.31Z"/><path class="cls-5" d="M210,256.23c-4.74,1.45-9,4.21-13.78,5.49-3.14.84-6.18,2.23-9.56,1.86a155.78,155.78,0,0,1,21.61-22,179,179,0,0,1,46.48-28.63c1.05-.45,2.5-.5,2.67-2.11.8-.66,1.62-.17,2.38,0a54.8,54.8,0,0,1,19.47,10c-1.56,1.68-3.69,2.51-5.64,3.53-15.47,8.13-31,16.11-46.82,23.59C221.2,250.63,215.63,253.47,210,256.23Z"/><path class="cls-3" d="M172.88,246.65a50.22,50.22,0,0,1-4-16.77,52.37,52.37,0,0,1,0-10.84l0,0c1.58-8.51,4.08-16.8,6-25.24.27-1.17.16-2.74,2-2.9a76.54,76.54,0,0,0,25.35,15.72c.57,2.82,0,5.69.39,8.51a82,82,0,0,0,1.45,19,27.14,27.14,0,0,1,.83,5.81l-3.3,2.89c-2,1.07-4.16.74-6.28.43a54.8,54.8,0,0,0-7.46-.87,17.83,17.83,0,0,0-9.05,2.38C177,245.77,175.25,247.32,172.88,246.65Z"/><path class="cls-7" d="M169.49,149.34c-5.48,6.8-15.32,8.12-23.58,3.15-2.15-1.3-4.3-2.64-5.59-4.93-2.17-3.72-2.18-8-3.28-12.06-1.93-7.09-3.41-14.32-6.75-21a2.53,2.53,0,0,1-.31-1.88,3.07,3.07,0,0,1,3.41-.93c1.54.75,2.56,2.15,3.89,3.17,8.25,6.35,17.12,6.68,26.47,2.92,1.1-.44,2.13-1.25,3.45-.81a1.74,1.74,0,0,1,.59.75c1.32,6.32,1.47,12.76,2,19.16.23,3,0,6,.43,8.93A5,5,0,0,1,169.49,149.34Z"/><path class="cls-4" d="M181.84,129.47c-.07,1.74.73,3.27,1.15,4.89,2.11,8.16,1.37,16.34-.1,24.45-1.66,9.25-3.65,18.44-5.5,27.65a47.11,47.11,0,0,1-8.16-10.78c-1.2-6.25-.43-12.55-.56-18.82a5.4,5.4,0,0,1,.74-2.37c6.93-6.2,9.78-14.49,11.89-23.17C181.45,130.7,181.66,130.09,181.84,129.47Z"/><path class="cls-5" d="M172.88,246.65a46.41,46.41,0,0,0,6.78-3.26c4.49-2.52,9.32-2.23,14.14-1.19a33.8,33.8,0,0,0,7.77.63,287.14,287.14,0,0,0-20.32,21.54,40,40,0,0,1-14.9-6.87c-.94-.71-2.37-1.32-1.84-2.78.43-1.18,1.85-1.09,2.94-1.21,2.52-.26,5.21.29,7.39-1.58,3.12-1.1,6.39-1.87,9.67-4.23-2.28-.19-3.83.57-5.44.93-2,.44-4,1.09-5.7-.74A1.22,1.22,0,0,1,172.88,246.65Z"/><path class="cls-46" d="M165.54,102c5.66-4,9.66-9.28,12.91-15.26,1.23,3.16,1.43,6.52,1.73,9.84a113.24,113.24,0,0,1,0,19,8.36,8.36,0,0,0-.66,2.13c-.67,1.26-1,2.74-2.23,3.66-2.71,0-4.8-1.82-7.28-2.49a6.43,6.43,0,0,1-2.78-1.66v0a2.92,2.92,0,0,1-1.29-1.4A21.72,21.72,0,0,1,165.54,102Z"/><path class="cls-46" d="M133.44,112.05l-3.43.75c-.82,1.39-2.55,1.85-3.34,3.27-1.12-2-.58-4.2-.86-6.28-1.12-8.64-1.27-17.3.93-25.85a12.43,12.43,0,0,1,4.39-7.28c.05,8.73,2.32,16.65,8.59,23.07,1.18,3.3-.34,9.26-2.9,11.34A3.82,3.82,0,0,1,133.44,112.05Z"/><path class="cls-47" d="M167.24,117.19a5.92,5.92,0,0,1,2.87,1.12,32.56,32.56,0,0,1,7.12,5.17,6.16,6.16,0,0,1,1.71,2.15c-1.23,7.58-3.25,14.88-7.5,21.39a25.2,25.2,0,0,1-1.95,2.32C169,138.6,168.34,127.88,167.24,117.19Z"/><path class="cls-48" d="M126.67,116.07c-.37-2.61,2-2.44,3.34-3.27,3.51,5.24,4.85,11.3,6.44,17.26a151.31,151.31,0,0,1,3.87,17.5c-1.81-.81-2.62-2.56-3.63-4.06C131.06,135.2,128.51,125.76,126.67,116.07Z"/><path class="cls-48" d="M176.85,190.94c-2,3.81-2.14,8.17-3.42,12.2-1.68,5.27-2.14,10.89-4.56,15.94l0-22.51a67.37,67.37,0,0,1,.16-13.91l.43-.38Z"/><path class="cls-49" d="M169.41,154.49l-.18,21.19a61.31,61.31,0,0,1-6.81-15.24c-.44-1.4-.5-2.42,1.42-2.85C165.94,157.13,167.61,155.63,169.41,154.49Z"/><path class="cls-50" d="M215.1,209.9a5.5,5.5,0,0,0-2.83,1.59c-2.91,2.42-6.14,4.09-10.1,3.66a13.54,13.54,0,0,1,0-8.49Z"/><path class="cls-51" d="M178.94,125.63l-8.83-7.32,7.21,2.69a2.44,2.44,0,0,1,2.22.75Z"/><path class="cls-52" d="M179.54,121.75c-.8-.09-1.71.19-2.22-.75l1.83-3.75c1.44.49.6,1.54.59,2.38Z"/><path class="cls-53" d="M227.48,180.26a34.05,34.05,0,0,1,0-8.44A13.32,13.32,0,0,1,227.48,180.26Z"/><path class="cls-54" d="M179.74,119.63c-.32-.76.24-1.74-.59-2.38a2.31,2.31,0,0,1,1-1.7A9.56,9.56,0,0,1,179.74,119.63Z"/><path class="cls-55" d="M247.71,212.34c-.18-.2-.37-.39-.56-.58.59-.53,1.56-.87,1.87-.23S248.4,212.42,247.71,212.34Z"/><path class="cls-56" d="M236.67,142.46c-8.2-2.67-7.45-11.31-3.38-15a7.7,7.7,0,0,1,9.56-.94,8.59,8.59,0,0,1,2.93,10c-1.14,3.18-3.55,4.92-6.64,5.92A2,2,0,0,1,236.67,142.46Z"/><path class="cls-57" d="M236.67,142.46h2.47c.17.18,1.21.22.38.54a4.81,4.81,0,0,1-3.2,0C235.46,142.68,236.5,142.65,236.67,142.46Z"/><path class="cls-58" d="M173.37,247.89a8.33,8.33,0,0,0,5.74,0,38,38,0,0,1,4.31-1.15c.82-.17,1.89-.19,2.17.76s-.79,1.16-1.42,1.42c-3,1.25-5.75,3.47-9.33,3Z"/><path class="cls-59" d="M169.06,182.66q-.09,7-.16,13.91c-1-4.66-.44-9.35-.31-14a.38.38,0,0,1,.24,0A1,1,0,0,1,169.06,182.66Z"/><path class="cls-48" d="M168.91,219c0,3.62,0,7.23,0,10.84A31.82,31.82,0,0,1,168.91,219Z"/><path class="cls-14" d="M133.44,112.05c4.4-1.43,5.58-4.93,5.87-9,.08-1.1.27-2.19.41-3.29,3.5,1.86,6.66,4.28,10.59,5.44a15.63,15.63,0,0,0,13.08-1.86l2.15-1.3c-.13,5.15-.47,10.32,1.7,15.22-3.84,1.38-7.56,3-11.71,3.53C146.56,121.81,139.3,118.77,133.44,112.05Z"/><path class="cls-60" d="M156.5,95.27c-1.16-.33-2.45-.6-3.66-1.07A1.66,1.66,0,1,1,154,91.09c1.05.29,2.13.83,3.27.43,1.35-.46,2.27,0,2.55,1.34s-.75,1.74-1.82,2C157.53,95,157.08,95.1,156.5,95.27Z"/><path class="cls-61" d="M175.72,66.06l-1-.18c-1.73-.95-3.61-.61-5.45-.56-1.31,0-2.28-.42-2.3-1.8S168,62,169.14,61.93a20.18,20.18,0,0,1,7.17.63c1.1.36,2.26.74,2.05,2.19S176.8,66,175.72,66.06Z"/><path class="cls-17" d="M131.8,66.13a7.21,7.21,0,0,1,4.85-.62c4.9.46,9.88.19,14.63,1.95,2,.74,2.92,1.58,1.61,3.63a4.32,4.32,0,0,0-.59,1.27c-1.56,6.09-6.15,8.12-12.68,6.31-3.14-.87-4.46-2.91-5.1-5.94C134.05,70.49,134.89,67.67,131.8,66.13Z"/><path class="cls-62" d="M181.18,75.44c-2.84,5.8-8.51,7.6-14.14,4.4-2-1.14-2.72-3.16-3.27-5.33-1.52-6-1.49-6.24,4.72-6.75,4.29-.35,8.55.41,12.81.85C181.61,70.89,181.12,73.16,181.18,75.44Z"/><path class="cls-63" d="M181.18,75.44c-.32-2.28-1.51-4.58.12-6.83l3.18.53C181.85,70.78,181.82,73.24,181.18,75.44Z"/><path class="cls-5" d="M172.79,414.4c-1-3-.25-6-.43-9C173.33,408.33,172.69,411.38,172.79,414.4Z"/><path class="cls-5" d="M172.37,376.26c.25-2.84-.7-5.76.51-8.54C172.67,370.56,173.37,373.46,172.37,376.26Z"/><path class="cls-64" d="M144.87,72.55c-.89-.23-2-.46-3.05-.78s-1.9-1-1.47-2.27,1.35-1.39,2.51-.9a4.89,4.89,0,0,0,3.53.33c1.1-.34,2.12-.1,2.36,1.22S148.18,72,147,72.21Z"/><path class="cls-65" d="M171.8,74.93a10.71,10.71,0,0,1-3.74-.89c-.94-.46-1.56-1.11-1.12-2.2a1.57,1.57,0,0,1,2.29-.88,5.74,5.74,0,0,0,4.06.31,1.48,1.48,0,0,1,2,1.08A1.55,1.55,0,0,1,174,74.46C173.21,74.68,172.38,74.81,171.8,74.93Z"/></svg>